<?xml version="1.0" encoding="UTF-8" standalone="no"?>
<!-- Created with Inkscape (http://www.inkscape.org/) -->

<svg
   xmlns:dc="http://purl.org/dc/elements/1.1/"
   xmlns:cc="http://creativecommons.org/ns#"
   xmlns:rdf="http://www.w3.org/1999/02/22-rdf-syntax-ns#"
   xmlns:svg="http://www.w3.org/2000/svg"
   xmlns="http://www.w3.org/2000/svg"
   xmlns:sodipodi="http://sodipodi.sourceforge.net/DTD/sodipodi-0.dtd"
   xmlns:inkscape="http://www.inkscape.org/namespaces/inkscape"
   sodipodi:docname="subplot4.svg"
   viewBox="0 0 470.66666 384"
   height="384"
   width="470.66666"
   xml:space="preserve"
   id="svg1395"
   version="1.1"
   inkscape:version="0.92.3 (2405546, 2018-03-11)"><sodipodi:namedview
     inkscape:current-layer="svg1395"
     inkscape:window-maximized="1"
     inkscape:window-y="0"
     inkscape:window-x="0"
     inkscape:cy="174.87267"
     inkscape:cx="238.80366"
     inkscape:zoom="1.7383042"
     showgrid="false"
     id="namedview1397"
     inkscape:window-height="837"
     inkscape:window-width="1600"
     inkscape:pageshadow="2"
     inkscape:pageopacity="0"
     guidetolerance="10"
     gridtolerance="10"
     objecttolerance="10"
     borderopacity="1"
     bordercolor="#666666"
     pagecolor="#ffffff" /><metadata
     id="metadata1401"><rdf:RDF><cc:Work
         rdf:about=""><dc:format>image/svg+xml</dc:format><dc:type
           rdf:resource="http://purl.org/dc/dcmitype/StillImage" /><dc:title></dc:title></cc:Work></rdf:RDF></metadata><defs
     id="defs1399" /><g
     id="g1403"
     inkscape:groupmode="layer"
     inkscape:label="subplot4"
     transform="matrix(1.3333333,0,0,-1.3333333,0,384)"><g
       id="g1405"
       transform="matrix(0.125,0,0,-0.125,0,288)"><g
         id="g1407"
         transform="matrix(6,0,0,6,-284.3996,-188.99878)"><path
           d="M 74,371 H 516 V 32 H 74 Z"
           style="fill:#ffffff;fill-opacity:1;fill-rule:nonzero;stroke:none"
           id="path1409"
           inkscape:connector-curvature="0" /></g><g
         id="g1411"
         transform="matrix(6,0,0,6,-284.3996,-188.99878)"><path
           d="M 74,371 V 32"
           style="fill:none;stroke:#262626;stroke-width:0.66666698;stroke-linecap:butt;stroke-linejoin:round;stroke-miterlimit:10;stroke-dasharray:none;stroke-opacity:0.14901961"
           id="path1413"
           inkscape:connector-curvature="0" /></g><g
         id="g1415"
         transform="matrix(6,0,0,6,-284.3996,-188.99878)"><path
           d="M 184.5,371 V 32"
           style="fill:none;stroke:#262626;stroke-width:0.66666698;stroke-linecap:butt;stroke-linejoin:round;stroke-miterlimit:10;stroke-dasharray:none;stroke-opacity:0.14901961"
           id="path1417"
           inkscape:connector-curvature="0" /></g><g
         id="g1419"
         transform="matrix(6,0,0,6,-284.3996,-188.99878)"><path
           d="M 295,371 V 32"
           style="fill:none;stroke:#262626;stroke-width:0.66666698;stroke-linecap:butt;stroke-linejoin:round;stroke-miterlimit:10;stroke-dasharray:none;stroke-opacity:0.14901961"
           id="path1421"
           inkscape:connector-curvature="0" /></g><g
         id="g1423"
         transform="matrix(6,0,0,6,-284.3996,-188.99878)"><path
           d="M 405.5,371 V 32"
           style="fill:none;stroke:#262626;stroke-width:0.66666698;stroke-linecap:butt;stroke-linejoin:round;stroke-miterlimit:10;stroke-dasharray:none;stroke-opacity:0.14901961"
           id="path1425"
           inkscape:connector-curvature="0" /></g><g
         id="g1427"
         transform="matrix(6,0,0,6,-284.3996,-188.99878)"><path
           d="M 516,371 V 32"
           style="fill:none;stroke:#262626;stroke-width:0.66666698;stroke-linecap:butt;stroke-linejoin:round;stroke-miterlimit:10;stroke-dasharray:none;stroke-opacity:0.14901961"
           id="path1429"
           inkscape:connector-curvature="0" /></g><g
         id="g1431"
         transform="matrix(6,0,0,6,-284.3996,-188.99878)"><path
           d="M 516,371 H 74"
           style="fill:none;stroke:#262626;stroke-width:0.66666698;stroke-linecap:butt;stroke-linejoin:round;stroke-miterlimit:10;stroke-dasharray:none;stroke-opacity:0.14901961"
           id="path1433"
           inkscape:connector-curvature="0" /></g><g
         id="g1435"
         transform="matrix(6,0,0,6,-284.3996,-188.99878)"><path
           d="M 516,303.20001 H 74"
           style="fill:none;stroke:#262626;stroke-width:0.66666698;stroke-linecap:butt;stroke-linejoin:round;stroke-miterlimit:10;stroke-dasharray:none;stroke-opacity:0.14901961"
           id="path1437"
           inkscape:connector-curvature="0" /></g><g
         id="g1439"
         transform="matrix(6,0,0,6,-284.3996,-188.99878)"><path
           d="M 516,235.39999 H 74"
           style="fill:none;stroke:#262626;stroke-width:0.66666698;stroke-linecap:butt;stroke-linejoin:round;stroke-miterlimit:10;stroke-dasharray:none;stroke-opacity:0.14901961"
           id="path1441"
           inkscape:connector-curvature="0" /></g><g
         id="g1443"
         transform="matrix(6,0,0,6,-284.3996,-188.99878)"><path
           d="M 516,167.60001 H 74"
           style="fill:none;stroke:#262626;stroke-width:0.66666698;stroke-linecap:butt;stroke-linejoin:round;stroke-miterlimit:10;stroke-dasharray:none;stroke-opacity:0.14901961"
           id="path1445"
           inkscape:connector-curvature="0" /></g><g
         id="g1447"
         transform="matrix(6,0,0,6,-284.3996,-188.99878)"><path
           d="M 516,99.800003 H 74"
           style="fill:none;stroke:#262626;stroke-width:0.66666698;stroke-linecap:butt;stroke-linejoin:round;stroke-miterlimit:10;stroke-dasharray:none;stroke-opacity:0.14901961"
           id="path1449"
           inkscape:connector-curvature="0" /></g><g
         id="g1451"
         transform="matrix(6,0,0,6,-284.3996,-188.99878)"><path
           d="M 516,32 H 74"
           style="fill:none;stroke:#262626;stroke-width:0.66666698;stroke-linecap:butt;stroke-linejoin:round;stroke-miterlimit:10;stroke-dasharray:none;stroke-opacity:0.14901961"
           id="path1453"
           inkscape:connector-curvature="0" /></g><g
         id="g1455"
         transform="matrix(6,0,0,6,-284.3996,-188.99878)"><path
           d="M 74,371 H 516"
           style="fill:none;stroke:#262626;stroke-width:0.66666698;stroke-linecap:square;stroke-linejoin:round;stroke-miterlimit:10;stroke-dasharray:none;stroke-opacity:1"
           id="path1457"
           inkscape:connector-curvature="0" /></g><g
         id="g1459"
         transform="matrix(6,0,0,6,-284.3996,-188.99878)"><path
           d="M 74,32 H 516"
           style="fill:none;stroke:#262626;stroke-width:0.66666698;stroke-linecap:square;stroke-linejoin:round;stroke-miterlimit:10;stroke-dasharray:none;stroke-opacity:1"
           id="path1461"
           inkscape:connector-curvature="0" /></g><g
         id="g1463"
         transform="matrix(6,0,0,6,-284.3996,-188.99878)"><path
           d="m 74,371 v -4.42001"
           style="fill:none;stroke:#262626;stroke-width:0.66666698;stroke-linecap:square;stroke-linejoin:round;stroke-miterlimit:10;stroke-dasharray:none;stroke-opacity:1"
           id="path1465"
           inkscape:connector-curvature="0" /></g><g
         id="g1467"
         transform="matrix(6,0,0,6,-284.3996,-188.99878)"><path
           d="m 184.5,371 v -4.42001"
           style="fill:none;stroke:#262626;stroke-width:0.66666698;stroke-linecap:square;stroke-linejoin:round;stroke-miterlimit:10;stroke-dasharray:none;stroke-opacity:1"
           id="path1469"
           inkscape:connector-curvature="0" /></g><g
         id="g1471"
         transform="matrix(6,0,0,6,-284.3996,-188.99878)"><path
           d="m 295,371 v -4.42001"
           style="fill:none;stroke:#262626;stroke-width:0.66666698;stroke-linecap:square;stroke-linejoin:round;stroke-miterlimit:10;stroke-dasharray:none;stroke-opacity:1"
           id="path1473"
           inkscape:connector-curvature="0" /></g><g
         id="g1475"
         transform="matrix(6,0,0,6,-284.3996,-188.99878)"><path
           d="m 405.5,371 v -4.42001"
           style="fill:none;stroke:#262626;stroke-width:0.66666698;stroke-linecap:square;stroke-linejoin:round;stroke-miterlimit:10;stroke-dasharray:none;stroke-opacity:1"
           id="path1477"
           inkscape:connector-curvature="0" /></g><g
         id="g1479"
         transform="matrix(6,0,0,6,-284.3996,-188.99878)"><path
           d="m 516,371 v -4.42001"
           style="fill:none;stroke:#262626;stroke-width:0.66666698;stroke-linecap:square;stroke-linejoin:round;stroke-miterlimit:10;stroke-dasharray:none;stroke-opacity:1"
           id="path1481"
           inkscape:connector-curvature="0" /></g><g
         id="g1483"
         transform="matrix(6,0,0,6,-284.3996,-188.99878)"><path
           d="m 74,32 v 4.419994"
           style="fill:none;stroke:#262626;stroke-width:0.66666698;stroke-linecap:square;stroke-linejoin:round;stroke-miterlimit:10;stroke-dasharray:none;stroke-opacity:1"
           id="path1485"
           inkscape:connector-curvature="0" /></g><g
         id="g1487"
         transform="matrix(6,0,0,6,-284.3996,-188.99878)"><path
           d="m 184.5,32 v 4.419994"
           style="fill:none;stroke:#262626;stroke-width:0.66666698;stroke-linecap:square;stroke-linejoin:round;stroke-miterlimit:10;stroke-dasharray:none;stroke-opacity:1"
           id="path1489"
           inkscape:connector-curvature="0" /></g><g
         id="g1491"
         transform="matrix(6,0,0,6,-284.3996,-188.99878)"><path
           d="m 295,32 v 4.419994"
           style="fill:none;stroke:#262626;stroke-width:0.66666698;stroke-linecap:square;stroke-linejoin:round;stroke-miterlimit:10;stroke-dasharray:none;stroke-opacity:1"
           id="path1493"
           inkscape:connector-curvature="0" /></g><g
         id="g1495"
         transform="matrix(6,0,0,6,-284.3996,-188.99878)"><path
           d="m 405.5,32 v 4.419994"
           style="fill:none;stroke:#262626;stroke-width:0.66666698;stroke-linecap:square;stroke-linejoin:round;stroke-miterlimit:10;stroke-dasharray:none;stroke-opacity:1"
           id="path1497"
           inkscape:connector-curvature="0" /></g><g
         id="g1499"
         transform="matrix(6,0,0,6,-284.3996,-188.99878)"><path
           d="m 516,32 v 4.419994"
           style="fill:none;stroke:#262626;stroke-width:0.66666698;stroke-linecap:square;stroke-linejoin:round;stroke-miterlimit:10;stroke-dasharray:none;stroke-opacity:1"
           id="path1501"
           inkscape:connector-curvature="0" /></g><g
         id="g1511"><g
           id="g1513"
           transform="matrix(6,0,0,6,1485.6004,2073.0012)">

</g></g><g
         id="g1519"><g
           id="g1521"
           transform="matrix(6,0,0,6,1485.6017,2205.0012)"><text
   transform="translate(-3.564812,15.399933)"
   style="font-size:18.33300018px;-inkscape-font-specification:CM Roman;writing-mode:lr-tb;font-family:CM Roman;fill-opacity:1;fill-rule:nonzero;stroke:none;font-variant:normal;font-weight:normal;fill:#262626"
   id="text1525"><tspan
     x="0"
     y="0"
     id="tspan1523">t</tspan></text>


</g></g><g
         id="g1527"
         transform="matrix(6,0,0,6,-284.3996,-188.99878)"><path
           d="M 74,371 V 32"
           style="fill:none;stroke:#262626;stroke-width:0.66666698;stroke-linecap:square;stroke-linejoin:round;stroke-miterlimit:10;stroke-dasharray:none;stroke-opacity:1"
           id="path1529"
           inkscape:connector-curvature="0" /></g><g
         id="g1531"
         transform="matrix(6,0,0,6,-284.3996,-188.99878)"><path
           d="M 516,371 V 32"
           style="fill:none;stroke:#262626;stroke-width:0.66666698;stroke-linecap:square;stroke-linejoin:round;stroke-miterlimit:10;stroke-dasharray:none;stroke-opacity:1"
           id="path1533"
           inkscape:connector-curvature="0" /></g><g
         id="g1535"
         transform="matrix(6,0,0,6,-284.3996,-188.99878)"><path
           d="m 74,371 h 4.419998"
           style="fill:none;stroke:#262626;stroke-width:0.66666698;stroke-linecap:square;stroke-linejoin:round;stroke-miterlimit:10;stroke-dasharray:none;stroke-opacity:1"
           id="path1537"
           inkscape:connector-curvature="0" /></g><g
         id="g1539"
         transform="matrix(6,0,0,6,-284.3996,-188.99878)"><path
           d="m 74,303.20001 h 4.419998"
           style="fill:none;stroke:#262626;stroke-width:0.66666698;stroke-linecap:square;stroke-linejoin:round;stroke-miterlimit:10;stroke-dasharray:none;stroke-opacity:1"
           id="path1541"
           inkscape:connector-curvature="0" /></g><g
         id="g1543"
         transform="matrix(6,0,0,6,-284.3996,-188.99878)"><path
           d="m 74,235.39999 h 4.419998"
           style="fill:none;stroke:#262626;stroke-width:0.66666698;stroke-linecap:square;stroke-linejoin:round;stroke-miterlimit:10;stroke-dasharray:none;stroke-opacity:1"
           id="path1545"
           inkscape:connector-curvature="0" /></g><g
         id="g1547"
         transform="matrix(6,0,0,6,-284.3996,-188.99878)"><path
           d="m 74,167.60001 h 4.419998"
           style="fill:none;stroke:#262626;stroke-width:0.66666698;stroke-linecap:square;stroke-linejoin:round;stroke-miterlimit:10;stroke-dasharray:none;stroke-opacity:1"
           id="path1549"
           inkscape:connector-curvature="0" /></g><g
         id="g1551"
         transform="matrix(6,0,0,6,-284.3996,-188.99878)"><path
           d="m 74,99.800003 h 4.419998"
           style="fill:none;stroke:#262626;stroke-width:0.66666698;stroke-linecap:square;stroke-linejoin:round;stroke-miterlimit:10;stroke-dasharray:none;stroke-opacity:1"
           id="path1553"
           inkscape:connector-curvature="0" /></g><g
         id="g1555"
         transform="matrix(6,0,0,6,-284.3996,-188.99878)"><path
           d="m 74,32 h 4.419998"
           style="fill:none;stroke:#262626;stroke-width:0.66666698;stroke-linecap:square;stroke-linejoin:round;stroke-miterlimit:10;stroke-dasharray:none;stroke-opacity:1"
           id="path1557"
           inkscape:connector-curvature="0" /></g><g
         id="g1559"
         transform="matrix(6,0,0,6,-284.3996,-188.99878)"><path
           d="m 516,371 h -4.42001"
           style="fill:none;stroke:#262626;stroke-width:0.66666698;stroke-linecap:square;stroke-linejoin:round;stroke-miterlimit:10;stroke-dasharray:none;stroke-opacity:1"
           id="path1561"
           inkscape:connector-curvature="0" /></g><g
         id="g1563"
         transform="matrix(6,0,0,6,-284.3996,-188.99878)"><path
           d="m 516,303.20001 h -4.42001"
           style="fill:none;stroke:#262626;stroke-width:0.66666698;stroke-linecap:square;stroke-linejoin:round;stroke-miterlimit:10;stroke-dasharray:none;stroke-opacity:1"
           id="path1565"
           inkscape:connector-curvature="0" /></g><g
         id="g1567"
         transform="matrix(6,0,0,6,-284.3996,-188.99878)"><path
           d="m 516,235.39999 h -4.42001"
           style="fill:none;stroke:#262626;stroke-width:0.66666698;stroke-linecap:square;stroke-linejoin:round;stroke-miterlimit:10;stroke-dasharray:none;stroke-opacity:1"
           id="path1569"
           inkscape:connector-curvature="0" /></g><g
         id="g1571"
         transform="matrix(6,0,0,6,-284.3996,-188.99878)"><path
           d="m 516,167.60001 h -4.42001"
           style="fill:none;stroke:#262626;stroke-width:0.66666698;stroke-linecap:square;stroke-linejoin:round;stroke-miterlimit:10;stroke-dasharray:none;stroke-opacity:1"
           id="path1573"
           inkscape:connector-curvature="0" /></g><g
         id="g1575"
         transform="matrix(6,0,0,6,-284.3996,-188.99878)"><path
           d="m 516,99.800003 h -4.42001"
           style="fill:none;stroke:#262626;stroke-width:0.66666698;stroke-linecap:square;stroke-linejoin:round;stroke-miterlimit:10;stroke-dasharray:none;stroke-opacity:1"
           id="path1577"
           inkscape:connector-curvature="0" /></g><g
         id="g1579"
         transform="matrix(6,0,0,6,-284.3996,-188.99878)"><path
           d="m 516,32 h -4.42001"
           style="fill:none;stroke:#262626;stroke-width:0.66666698;stroke-linecap:square;stroke-linejoin:round;stroke-miterlimit:10;stroke-dasharray:none;stroke-opacity:1"
           id="path1581"
           inkscape:connector-curvature="0" /></g><g
         id="g1583"><g
           id="g1585"
           transform="matrix(-2.6e-7,-6,6,-2.6e-7,123.6004,1020.0003)"><text
   transform="translate(-42.013985,-6.600067)"
   style="font-size:18.33300018px;-inkscape-font-specification:CM Roman;writing-mode:lr-tb;font-family:CM Roman;fill-opacity:1;fill-rule:nonzero;stroke:none;font-variant:normal;font-weight:normal;fill:#262626"
   id="text1589"><tspan
     x="0"
     y="0"
     id="tspan1587">I</tspan></text>


</g></g><g
         id="g1591"><g
           id="g1593"
           transform="matrix(-2.6e-7,-6,6,-2.6e-7,123.6004,1020.0003)"><text
   transform="translate(-35.393608,-6.600067)"
   style="font-size:18.33300018px;-inkscape-font-specification:CM Roman;writing-mode:lr-tb;font-family:CM Roman;fill-opacity:1;fill-rule:nonzero;stroke:none;font-variant:normal;font-weight:normal;fill:#262626"
   id="text1597"><tspan
     x="0"
     y="0"
     id="tspan1595">n</tspan></text>


</g></g><g
         id="g1599"><g
           id="g1601"
           transform="matrix(-2.6e-7,-6,6,-2.6e-7,123.6004,1020.0003)"><text
   transform="translate(-25.208389,-6.600067)"
   style="font-size:18.33300018px;-inkscape-font-specification:CM Roman;writing-mode:lr-tb;font-family:CM Roman;fill-opacity:1;fill-rule:nonzero;stroke:none;font-variant:normal;font-weight:normal;fill:#262626"
   id="text1605"><tspan
     x="0"
     y="0"
     id="tspan1603">f</tspan></text>


</g></g><g
         id="g1607"><g
           id="g1609"
           transform="matrix(-2.6e-7,-6,6,-2.6e-7,123.6004,1020.0003)"><text
   transform="translate(-19.606506,-6.600067)"
   style="font-size:18.33300018px;-inkscape-font-specification:CM Roman;writing-mode:lr-tb;font-family:CM Roman;fill-opacity:1;fill-rule:nonzero;stroke:none;font-variant:normal;font-weight:normal;fill:#262626"
   id="text1613"><tspan
     x="0"
     y="0"
     id="tspan1611">e</tspan></text>


</g></g><g
         id="g1615"><g
           id="g1617"
           transform="matrix(-2.6e-7,-6,6,-2.6e-7,123.6004,1020.0003)"><text
   transform="translate(-11.458362,-6.600067)"
   style="font-size:18.33300018px;-inkscape-font-specification:CM Roman;writing-mode:lr-tb;font-family:CM Roman;fill-opacity:1;fill-rule:nonzero;stroke:none;font-variant:normal;font-weight:normal;fill:#262626"
   id="text1621"><tspan
     x="0"
     y="0"
     id="tspan1619">t</tspan></text>


</g></g><g
         id="g1623"><g
           id="g1625"
           transform="matrix(-2.6e-7,-6,6,-2.6e-7,123.6004,1020.0003)"><text
   transform="translate(-4.32871,-6.600067)"
   style="font-size:18.33300018px;-inkscape-font-specification:CM Roman;writing-mode:lr-tb;font-family:CM Roman;fill-opacity:1;fill-rule:nonzero;stroke:none;font-variant:normal;font-weight:normal;fill:#262626"
   id="text1629"><tspan
     x="0"
     y="0"
     id="tspan1627">t</tspan></text>


</g></g><g
         id="g1631"><g
           id="g1633"
           transform="matrix(-2.6e-7,-6,6,-2.6e-7,123.6004,1020.0003)"><text
   transform="translate(2.800941,-6.600067)"
   style="font-size:18.33300018px;-inkscape-font-specification:CM Roman;writing-mode:lr-tb;font-family:CM Roman;fill-opacity:1;fill-rule:nonzero;stroke:none;font-variant:normal;font-weight:normal;fill:#262626"
   id="text1637"><tspan
     x="0"
     y="0"
     id="tspan1635">i</tspan></text>


</g></g><g
         id="g1639"><g
           id="g1641"
           transform="matrix(-2.6e-7,-6,6,-2.6e-7,123.6004,1020.0003)"><text
   transform="translate(14.004652,-6.600067)"
   style="font-size:18.33300018px;-inkscape-font-specification:CM Roman;writing-mode:lr-tb;font-family:CM Roman;fill-opacity:1;fill-rule:nonzero;stroke:none;font-variant:normal;font-weight:normal;fill:#262626"
   id="text1645"><tspan
     x="0"
     y="0"
     id="tspan1643">I</tspan></text>


</g></g><g
         id="g1647"><g
           id="g1649"
           transform="matrix(-2.6e-7,-6,6,-2.6e-7,123.6004,1020.0003)"><text
   transform="translate(20.625029,-6.600067)"
   style="font-size:18.33300018px;-inkscape-font-specification:CM Roman;writing-mode:lr-tb;font-family:CM Roman;fill-opacity:1;fill-rule:nonzero;stroke:none;font-variant:normal;font-weight:normal;fill:#262626"
   id="text1653"><tspan
     x="0"
     y="0"
     id="tspan1651">(</tspan></text>


</g></g><g
         id="g1655"><g
           id="g1657"
           transform="matrix(-2.6e-7,-6,6,-2.6e-7,123.6004,1020.0003)"><text
   transform="translate(27.754681,-6.600067)"
   style="font-size:18.33300018px;-inkscape-font-specification:CM Roman;writing-mode:lr-tb;font-family:CM Roman;fill-opacity:1;fill-rule:nonzero;stroke:none;font-variant:normal;font-weight:normal;fill:#262626"
   id="text1661"><tspan
     x="0"
     y="0"
     id="tspan1659">t</tspan></text>


</g></g><g
         id="g1663"><g
           id="g1665"
           transform="matrix(-2.6e-7,-6,6,-2.6e-7,123.6004,1020.0003)"><text
   transform="translate(34.884331,-6.600067)"
   style="font-size:18.33300018px;-inkscape-font-specification:CM Roman;writing-mode:lr-tb;font-family:CM Roman;fill-opacity:1;fill-rule:nonzero;stroke:none;font-variant:normal;font-weight:normal;fill:#262626"
   id="text1669"><tspan
     x="0"
     y="0"
     id="tspan1667">)</tspan></text>


</g></g><g
         id="g1671"
         transform="matrix(6,0,0,6,-284.3996,-188.99878)"><path
           d="m 74,303.20001 4.464645,-7.95831 4.464646,-8.51135 4.464645,-9.01599 4.464653,-9.45276 4.464646,-9.80286 4.464645,-10.04932 4.46465,-10.17819 4.46464,-10.18011 4.46465,-10.05083 4.46464,-9.79196 4.46465,-9.41072 4.46465,-8.91939 4.46465,-8.33435 4.46464,-7.67465 4.46465,-6.96073 4.46464,-6.21295 4.46465,-5.45059 4.46464,-4.69083 4.46465,-3.94832 4.46464,-3.23478 4.46465,-2.55913 4.46466,-1.92757 4.46464,-1.34388 4.46465,-0.80993 4.46465,-0.32577 4.46464,0.10956 4.46465,0.49821 4.46464,0.84278 4.46465,1.1463 4.46464,1.412 4.46465,1.64319 4.46464,1.8432 4.46465,2.01498 4.46464,2.16164 4.46465,2.28575 4.46466,2.38995 4.46465,2.47649 4.46464,2.54742 4.46465,2.60462 4.46463,2.6497 4.46466,2.68424 4.46463,2.7095 4.46466,2.72664 4.46466,2.73671 4.46463,2.74061 4.46466,2.73916 4.46463,2.73304 4.46466,2.72287 4.46463,2.70923 4.46466,2.70809 4.46463,2.72576 4.46466,2.72696 4.46463,2.71631 4.46466,2.69718 4.46463,2.67193 4.46466,2.64244 4.46466,2.60991 4.46463,2.5754 4.46466,2.5395 4.46463,2.50282 4.46466,2.46569 4.46463,2.42839 4.46467,2.3911 4.46463,2.35401 4.46466,2.3172 4.46463,2.28075 4.46466,2.24471 4.46463,2.20909 4.46466,2.17398 4.46463,2.13933 4.46466,2.10522 4.46466,2.07158 4.46463,2.03845 4.46466,2.00586 4.46463,1.97376 4.46466,1.94213 4.46463,1.91106 4.46466,1.88043 4.46463,1.85031 4.46463,1.82062 4.46466,1.79148 4.46466,1.76278 4.46466,1.7345 4.4646,1.7067 4.46466,1.67935 4.46466,1.65243 4.46467,1.62592 4.46466,1.59988 4.4646,1.57422 4.46466,1.54898 4.46466,1.52414 4.46466,1.49973 4.4646,1.47567 4.46466,1.45203 4.46466,1.42874 4.46466,1.40582 4.4646,1.38331 4.46466,1.36111 4.46466,1.33932"
           style="fill:none;stroke:#0072bd;stroke-width:2;stroke-linecap:butt;stroke-linejoin:round;stroke-miterlimit:10;stroke-dasharray:none;stroke-opacity:1"
           id="path1673"
           inkscape:connector-curvature="0" /></g><g
         id="g1675"
         transform="matrix(6,0,0,6,-284.3996,-188.99878)"><path
           d="M 295,371 V 32"
           style="fill:none;stroke:#262626;stroke-width:2;stroke-linecap:butt;stroke-linejoin:bevel;stroke-miterlimit:1;stroke-dasharray:2, 2;stroke-dashoffset:0;stroke-opacity:0.70196078"
           id="path1677"
           inkscape:connector-curvature="0" /></g><g
         id="g1679"><g
           id="g1681"
           transform="matrix(-2.6e-7,-6,6,-2.6e-7,1503.6004,33.001289)"><text
   transform="translate(-74,13)"
   style="font-size:13.33300018px;-inkscape-font-specification:CM Roman;writing-mode:lr-tb;font-family:CM Roman;fill-opacity:1;fill-rule:nonzero;stroke:none;font-variant:normal;font-weight:normal;fill:#262626"
   id="text1685"><tspan
     x="0 7.4131479 11.119722 14.826296 17.786222 24.452723 31.86587 38.532372 41.492294 48.905445 56.318592"
     y="0"
     sodipodi:role="line"
     id="tspan1683">attivazione</tspan></text>


</g></g></g></g><g
     id="g2138"
     transform="translate(86.86627,230.6846)"><g
       id="content"
       transform="matrix(0.54857143,0,0,-0.54857143,-96,353)"
       xml:space="preserve"
       stroke-miterlimit="10.433"
       font-style="normal"
       font-variant="normal"
       font-weight="normal"
       font-stretch="normal"
       font-size-adjust="none"
       letter-spacing="normal"
       word-spacing="normal"
       style="font-style:normal;font-variant:normal;font-weight:normal;font-stretch:normal;letter-spacing:normal;word-spacing:normal;text-anchor:start;fill:none;fill-opacity:1;fill-rule:evenodd;stroke:#000000;stroke-linecap:butt;stroke-linejoin:miter;stroke-miterlimit:10.43299961;stroke-dasharray:none;stroke-dashoffset:0;stroke-opacity:1"><path
         d="m 470.16,424.78 h 8.38 c 0.65,0 2.43,0 2.43,1.7 0,1.19 -1.04,1.19 -1.98,1.19 h -13.95 c -1,0 -2.94,0 -5.13,-2.35 -1.66,-1.78 -3.05,-4.17 -3.05,-4.48 0,-0.05 0,-0.48 0.6,-0.48 0.4,0 0.5,0.18 0.79,0.59 2.46,3.83 5.29,3.83 6.33,3.83 h 4.14 l -4.89,-15.99 c -0.19,-0.59 -0.48,-1.64 -0.48,-1.84 0,-0.55 0.34,-1.34 1.44,-1.34 1.64,0 1.89,1.39 2.04,2.14 z"
         id="path2133"
         inkscape:connector-curvature="0"
         style="fill:#000000;stroke-width:0" /><path
         d="m 494.13,432.87 0.26,0.12 0.26,0.11 0.24,0.11 0.24,0.1 0.23,0.1 0.22,0.1 0.21,0.09 0.21,0.09 0.2,0.08 0.19,0.08 0.18,0.08 0.18,0.07 0.17,0.08 0.16,0.06 0.16,0.07 0.15,0.06 0.14,0.06 0.14,0.06 0.14,0.06 0.12,0.05 0.13,0.06 0.12,0.05 0.11,0.05 0.11,0.04 0.11,0.05 0.1,0.04 0.19,0.09 0.18,0.08 0.16,0.08 c 0.68,0.27 0.99,0.41 0.99,1.08 0,0.59 -0.45,1.11 -1.08,1.11 -0.25,0 -0.31,0 -0.73,-0.31 l -4.74,-3.17 0.52,5.15 c 0.08,0.63 0,1.5 -1.05,1.5 -0.42,0 -1.08,-0.28 -1.08,-1.04 0,-0.32 0.14,-1.36 0.17,-1.71 0.08,-0.59 0.32,-3.11 0.4,-3.9 l -4.71,3.17 c -0.36,0.2 -0.45,0.31 -0.76,0.31 -0.64,0 -1.1,-0.52 -1.1,-1.11 0,-0.7 0.42,-0.87 0.74,-1.01 l 5.26,-2.19 c -2.86,-1.27 -4.14,-1.75 -5.01,-2.17 -0.66,-0.29 -0.99,-0.43 -0.99,-1.08 0,-0.6 0.46,-1.11 1.1,-1.11 0.23,0 0.31,0 0.72,0.31 l 4.75,3.17 -0.57,-5.61 c 0,-0.76 0.66,-1.04 1.08,-1.04 0.42,0 1.08,0.28 1.08,1.04 0,0.32 -0.14,1.36 -0.17,1.71 -0.07,0.59 -0.32,3.09 -0.38,3.9 l 4.17,-2.79 c 0.91,-0.69 0.99,-0.69 1.3,-0.69 0.63,0 1.08,0.51 1.08,1.11 0,0.7 -0.42,0.87 -0.74,1.01 z"
         id="path2135"
         inkscape:connector-curvature="0"
         style="fill:#000000;stroke-width:0" /></g></g></svg>