<?xml version="1.0" encoding="UTF-8" standalone="no"?>
<!-- Created with Inkscape (http://www.inkscape.org/) -->

<svg
   xmlns:dc="http://purl.org/dc/elements/1.1/"
   xmlns:cc="http://creativecommons.org/ns#"
   xmlns:rdf="http://www.w3.org/1999/02/22-rdf-syntax-ns#"
   xmlns:svg="http://www.w3.org/2000/svg"
   xmlns="http://www.w3.org/2000/svg"
   xmlns:sodipodi="http://sodipodi.sourceforge.net/DTD/sodipodi-0.dtd"
   xmlns:inkscape="http://www.inkscape.org/namespaces/inkscape"
   version="1.1"
   id="svg1149"
   xml:space="preserve"
   width="1006.7614"
   height="161.18781"
   viewBox="0 0 1006.7614 161.18781"
   sodipodi:docname="sir.svg"
   inkscape:version="0.92.3 (2405546, 2018-03-11)"><metadata
     id="metadata1155"><rdf:RDF><cc:Work
         rdf:about=""><dc:format>image/svg+xml</dc:format><dc:type
           rdf:resource="http://purl.org/dc/dcmitype/StillImage" /><dc:title></dc:title></cc:Work></rdf:RDF></metadata><defs
     id="defs1153"><clipPath
       clipPathUnits="userSpaceOnUse"
       id="clipPath1167"><path
         d="M 0,0 H 756 V 121 H 0 Z"
         id="path1165"
         inkscape:connector-curvature="0" /></clipPath><clipPath
       clipPathUnits="userSpaceOnUse"
       id="clipPath1171"><path
         d="m 120.652,0 h 110.395 c 7.008,0 12.652,5.645 12.652,12.652 v 60.051 c 0,7.012 -5.644,12.652 -12.652,12.652 H 120.652 C 113.645,85.355 108,79.715 108,72.703 V 12.652 C 108,5.645 113.645,0 120.652,0 Z M 93.438,-49.551 H 672.516 V 155.012 H 93.438 Z m 27.777,98.914 v -4.797 c 0,-0.175 0.004,-0.296 0.015,-0.359 0.008,-0.062 0.036,-0.117 0.079,-0.172 0.05,-0.051 0.125,-0.078 0.218,-0.078 0.164,0 0.258,0.086 0.282,0.25 0.039,1.586 0.523,2.813 1.453,3.688 0.906,0.867 2.14,1.296 3.703,1.296 0.945,0 1.707,-0.343 2.281,-1.031 0.582,-0.687 0.875,-1.484 0.875,-2.39 0,-0.864 -0.246,-1.602 -0.734,-2.219 -0.199,-0.27 -0.43,-0.492 -0.688,-0.672 -0.261,-0.176 -0.469,-0.289 -0.625,-0.344 -0.156,-0.051 -0.386,-0.117 -0.687,-0.203 -1.938,-0.477 -2.969,-0.742 -3.094,-0.797 -0.93,-0.32 -1.672,-0.883 -2.234,-1.687 -0.563,-0.813 -0.844,-1.711 -0.844,-2.703 0,-1.282 0.441,-2.375 1.328,-3.282 0.883,-0.914 1.969,-1.375 3.25,-1.375 0.645,0 1.238,0.106 1.781,0.313 0.539,0.211 0.922,0.406 1.141,0.594 0.219,0.179 0.5,0.437 0.844,0.781 l 0.812,-1.375 c 0.125,-0.207 0.242,-0.313 0.359,-0.313 0.125,0 0.196,0.039 0.219,0.11 0.02,0.074 0.031,0.23 0.031,0.468 v 4.829 c 0,0.179 -0.007,0.296 -0.015,0.359 0,0.062 -0.027,0.117 -0.078,0.156 -0.043,0.043 -0.11,0.063 -0.203,0.063 -0.157,0 -0.25,-0.098 -0.282,-0.297 -0.437,-3.344 -1.964,-5.016 -4.578,-5.016 -0.898,0 -1.64,0.309 -2.234,0.922 -0.586,0.617 -0.875,1.356 -0.875,2.219 0,0.711 0.211,1.355 0.64,1.937 0.438,0.574 1.016,0.946 1.735,1.11 l 3.015,0.75 c 1,0.242 1.833,0.812 2.5,1.718 0.676,0.907 1.016,1.95 1.016,3.125 0,1.368 -0.437,2.543 -1.312,3.532 -0.868,0.976 -1.969,1.468 -3.313,1.468 -0.969,0 -1.836,-0.168 -2.594,-0.5 -0.75,-0.32 -1.328,-0.718 -1.734,-1.187 -0.313,0.531 -0.57,0.949 -0.766,1.25 l -0.078,0.125 c -0.125,0.207 -0.242,0.312 -0.344,0.312 -0.125,0 -0.203,-0.043 -0.234,-0.125 -0.023,-0.086 -0.031,-0.234 -0.031,-0.453 z m 12.461,-9.547 v -0.75 l 3.453,-0.265 v 7.969 c 0,0.386 0.016,0.695 0.047,0.921 0.031,0.219 0.109,0.461 0.234,0.719 0.125,0.25 0.332,0.438 0.625,0.563 0.301,0.117 0.688,0.172 1.156,0.172 0.844,0 1.524,-0.352 2.047,-1.063 0.532,-0.719 0.797,-1.602 0.797,-2.656 V 41.16 c 0,-0.594 -0.105,-0.961 -0.312,-1.109 -0.2,-0.156 -0.703,-0.235 -1.516,-0.235 v -0.75 l 3.453,-0.265 v 8.515 c 0,0.594 0.098,0.969 0.297,1.125 0.207,0.149 0.719,0.219 1.531,0.219 v 0.75 l -3.375,0.266 V 47.52 c -0.656,1.437 -1.668,2.156 -3.031,2.156 -0.687,0 -1.273,-0.09 -1.75,-0.266 -0.469,-0.176 -0.824,-0.375 -1.062,-0.594 -0.231,-0.226 -0.407,-0.554 -0.532,-0.984 -0.125,-0.437 -0.199,-0.785 -0.218,-1.047 -0.012,-0.269 -0.016,-0.66 -0.016,-1.172 V 42.02 c 0,-1.094 -0.078,-1.735 -0.234,-1.922 -0.157,-0.188 -0.688,-0.282 -1.594,-0.282 z m 13.054,9.282 v -3.172 c 0,-0.176 0,-0.297 0,-0.36 0.008,-0.062 0.036,-0.113 0.079,-0.156 0.05,-0.051 0.125,-0.078 0.218,-0.078 0.114,0 0.188,0.027 0.219,0.078 0.039,0.043 0.078,0.152 0.109,0.328 0.239,1.106 0.61,1.95 1.11,2.532 0.508,0.585 1.226,0.875 2.156,0.875 0.875,0 1.535,-0.196 1.984,-0.594 0.446,-0.406 0.672,-0.938 0.672,-1.594 0,-1.164 -0.812,-1.898 -2.437,-2.203 -0.949,-0.188 -1.621,-0.344 -2.016,-0.469 -0.386,-0.133 -0.75,-0.347 -1.094,-0.64 -0.668,-0.551 -1,-1.227 -1,-2.032 0,-0.801 0.297,-1.492 0.891,-2.078 0.594,-0.582 1.547,-0.875 2.859,-0.875 0.875,0 1.61,0.227 2.204,0.672 0.175,-0.144 0.312,-0.273 0.406,-0.391 0.195,-0.187 0.351,-0.281 0.469,-0.281 0.125,0 0.195,0.043 0.218,0.125 0.032,0.074 0.047,0.227 0.047,0.453 v 2.422 c 0,0.18 -0.008,0.297 -0.015,0.36 -0.012,0.062 -0.043,0.117 -0.094,0.156 -0.043,0.043 -0.11,0.062 -0.203,0.062 -0.18,0 -0.274,-0.07 -0.282,-0.218 -0.125,-1.938 -1.042,-2.907 -2.75,-2.907 -0.929,0 -1.601,0.184 -2.015,0.547 -0.406,0.356 -0.61,0.781 -0.61,1.281 0,0.274 0.063,0.512 0.188,0.719 0.125,0.211 0.266,0.375 0.422,0.5 0.164,0.117 0.398,0.231 0.703,0.344 0.312,0.105 0.562,0.18 0.75,0.219 0.187,0.043 0.461,0.105 0.828,0.187 1.25,0.242 2.141,0.621 2.672,1.141 0.656,0.679 0.984,1.437 0.984,2.281 0,0.949 -0.312,1.746 -0.937,2.391 -0.625,0.636 -1.574,0.953 -2.844,0.953 -1.023,0 -1.883,-0.344 -2.578,-1.031 -0.094,0.093 -0.18,0.183 -0.25,0.265 -0.074,0.074 -0.121,0.133 -0.141,0.172 -0.023,0.031 -0.039,0.059 -0.047,0.078 -0.011,0.012 -0.023,0.024 -0.031,0.031 -0.312,0.321 -0.512,0.485 -0.594,0.485 -0.125,0 -0.199,-0.043 -0.218,-0.125 -0.024,-0.074 -0.032,-0.223 -0.032,-0.453 z m 10.762,-1 c -0.992,-1.063 -1.484,-2.352 -1.484,-3.875 0,-1.52 0.488,-2.828 1.469,-3.922 0.976,-1.094 2.187,-1.641 3.625,-1.641 0.957,0 1.796,0.235 2.515,0.703 0.719,0.461 1.078,1.078 1.078,1.86 0,0.355 -0.105,0.632 -0.312,0.828 -0.199,0.199 -0.453,0.297 -0.766,0.297 -0.324,0 -0.586,-0.102 -0.781,-0.313 -0.199,-0.207 -0.297,-0.469 -0.297,-0.781 0,-0.145 0.02,-0.285 0.063,-0.422 0.05,-0.133 0.16,-0.273 0.328,-0.422 0.175,-0.156 0.414,-0.242 0.718,-0.265 -0.574,-0.594 -1.414,-0.891 -2.515,-0.891 -0.805,0 -1.531,0.387 -2.188,1.156 -0.656,0.774 -0.984,2.028 -0.984,3.766 0,0.918 0.109,1.715 0.328,2.39 0.219,0.668 0.504,1.172 0.859,1.516 0.364,0.344 0.723,0.594 1.079,0.75 0.351,0.156 0.703,0.234 1.046,0.234 1.532,0 2.555,-0.836 3.079,-2.515 0.039,-0.156 0.14,-0.235 0.296,-0.235 0.207,0 0.313,0.079 0.313,0.235 0,0.086 -0.031,0.226 -0.094,0.422 -0.062,0.199 -0.187,0.461 -0.375,0.781 -0.187,0.324 -0.422,0.625 -0.703,0.906 -0.273,0.274 -0.648,0.512 -1.125,0.719 -0.48,0.195 -1.016,0.297 -1.609,0.297 -1.375,0 -2.563,-0.524 -3.563,-1.578 z m 8.785,-3.969 c 0,-1.5 0.473,-2.785 1.422,-3.859 0.946,-1.071 2.102,-1.61 3.469,-1.61 1.375,0 2.414,0.461 3.125,1.375 0.719,0.906 1.078,2.016 1.078,3.328 0,0.242 -0.031,0.387 -0.094,0.438 -0.062,0.043 -0.23,0.062 -0.5,0.062 h -6.547 c 0,1.637 0.235,2.84 0.704,3.61 0.656,1.062 1.539,1.593 2.656,1.593 0.156,0 0.32,-0.015 0.5,-0.046 0.176,-0.032 0.453,-0.114 0.828,-0.25 0.383,-0.133 0.738,-0.383 1.062,-0.75 0.332,-0.364 0.594,-0.836 0.782,-1.422 0.039,-0.219 0.14,-0.328 0.297,-0.328 0.207,0 0.312,0.093 0.312,0.281 0,0.148 -0.078,0.375 -0.234,0.687 -0.149,0.313 -0.36,0.657 -0.641,1.032 -0.281,0.375 -0.699,0.703 -1.25,0.984 -0.543,0.281 -1.141,0.422 -1.797,0.422 -1.387,0 -2.594,-0.531 -3.625,-1.594 -1.031,-1.062 -1.547,-2.379 -1.547,-3.953 z m 1.969,-0.766 h 5.578 c 0,-0.332 -0.031,-0.687 -0.094,-1.062 -0.054,-0.383 -0.164,-0.832 -0.328,-1.344 -0.168,-0.519 -0.445,-0.941 -0.828,-1.266 -0.375,-0.332 -0.844,-0.5 -1.406,-0.5 -0.25,0 -0.516,0.059 -0.797,0.172 -0.273,0.106 -0.574,0.293 -0.906,0.563 -0.324,0.262 -0.602,0.695 -0.828,1.297 -0.231,0.593 -0.36,1.308 -0.391,2.14 z m 8.234,-3.547 v -0.531 c 0.719,-0.031 1.313,-0.305 1.782,-0.828 0.476,-0.519 0.8,-1.098 0.968,-1.734 0.165,-0.645 0.254,-1.336 0.266,-2.078 h 0.594 v 4.421 h 3.359 v 0.75 h -3.359 v 6.672 c 0,1.719 0.523,2.578 1.578,2.578 0.445,0 0.816,-0.234 1.109,-0.703 0.301,-0.468 0.453,-1.129 0.453,-1.984 v -1.313 h 0.594 v 1.375 c 0,0.856 -0.199,1.61 -0.594,2.266 -0.386,0.648 -0.964,0.969 -1.734,0.969 -0.281,0 -0.562,-0.039 -0.844,-0.11 -0.281,-0.074 -0.605,-0.203 -0.968,-0.39 -0.356,-0.196 -0.649,-0.531 -0.875,-1 -0.231,-0.469 -0.344,-1.047 -0.344,-1.735 v -6.625 z m 9.125,0 v -0.531 c 0.719,-0.031 1.313,-0.305 1.782,-0.828 0.476,-0.519 0.801,-1.098 0.968,-1.734 0.165,-0.645 0.254,-1.336 0.266,-2.078 h 0.594 v 4.421 h 3.359 v 0.75 h -3.359 v 6.672 c 0,1.719 0.523,2.578 1.578,2.578 0.445,0 0.816,-0.234 1.109,-0.703 0.301,-0.468 0.453,-1.129 0.453,-1.984 v -1.313 h 0.594 v 1.375 c 0,0.856 -0.199,1.61 -0.594,2.266 -0.386,0.648 -0.964,0.969 -1.734,0.969 -0.281,0 -0.562,-0.039 -0.844,-0.11 -0.281,-0.074 -0.605,-0.203 -0.968,-0.39 -0.356,-0.196 -0.649,-0.531 -0.875,-1 -0.231,-0.469 -0.344,-1.047 -0.344,-1.735 v -6.625 z m 9.454,9.594 v -0.75 c 0.82,0 1.332,-0.051 1.531,-0.156 0.195,-0.102 0.297,-0.41 0.297,-0.922 v -6.453 c 0,-0.594 -0.102,-0.957 -0.297,-1.094 -0.199,-0.144 -0.68,-0.219 -1.438,-0.219 v -0.75 l 3.282,-0.265 v 8.812 c 0,0.481 0.082,0.778 0.25,0.891 0.164,0.105 0.628,0.156 1.39,0.156 v 0.75 c -1.594,-0.051 -2.406,-0.078 -2.437,-0.078 -0.219,0 -1.078,0.027 -2.578,0.078 z m 0.984,-14.781 c 0,-0.32 0.117,-0.613 0.359,-0.875 0.239,-0.27 0.532,-0.406 0.875,-0.406 0.344,0 0.633,0.121 0.875,0.359 0.25,0.242 0.375,0.547 0.375,0.922 0,0.367 -0.125,0.668 -0.375,0.906 -0.242,0.242 -0.531,0.36 -0.875,0.36 -0.355,0 -0.652,-0.125 -0.89,-0.375 -0.231,-0.258 -0.344,-0.555 -0.344,-0.891 z m 5.402,-0.859 v -0.75 l 3.391,-0.266 v 7.609 c 0.906,-1.039 1.973,-1.562 3.203,-1.562 1.352,0 2.52,0.531 3.5,1.594 0.988,1.054 1.484,2.328 1.484,3.828 0,1.523 -0.515,2.812 -1.546,3.875 -1.032,1.054 -2.262,1.578 -3.688,1.578 -1.305,0 -2.328,-0.582 -3.078,-1.75 -0.555,0.969 -0.836,1.465 -0.844,1.484 h -0.594 V 35.113 c 0,-0.593 -0.105,-0.961 -0.312,-1.109 -0.199,-0.156 -0.703,-0.234 -1.516,-0.234 z m 3.453,12.906 c 0,0.336 0.11,0.668 0.329,1 0.625,0.98 1.445,1.469 2.468,1.469 1.094,0 1.977,-0.508 2.657,-1.532 0.476,-0.769 0.718,-1.906 0.718,-3.406 0,-1.488 -0.226,-2.602 -0.672,-3.344 -0.625,-1.019 -1.449,-1.531 -2.468,-1.531 -1.149,0 -2.071,0.512 -2.766,1.531 -0.18,0.262 -0.266,0.547 -0.266,0.86 z m 9.696,2.734 v -0.75 c 0.82,0 1.332,-0.051 1.531,-0.156 0.195,-0.102 0.297,-0.41 0.297,-0.922 v -6.453 c 0,-0.594 -0.102,-0.957 -0.297,-1.094 -0.199,-0.144 -0.68,-0.219 -1.437,-0.219 v -0.75 l 3.281,-0.265 v 8.812 c 0,0.481 0.082,0.778 0.25,0.891 0.164,0.105 0.629,0.156 1.39,0.156 v 0.75 c -1.593,-0.051 -2.406,-0.078 -2.437,-0.078 -0.219,0 -1.078,0.027 -2.578,0.078 z m 0.984,-14.781 c 0,-0.32 0.117,-0.613 0.36,-0.875 0.238,-0.27 0.531,-0.406 0.874,-0.406 0.344,0 0.633,0.121 0.876,0.359 0.25,0.242 0.374,0.547 0.374,0.922 0,0.367 -0.124,0.668 -0.374,0.906 -0.243,0.242 -0.532,0.36 -0.876,0.36 -0.355,0 -0.652,-0.125 -0.89,-0.375 -0.231,-0.258 -0.344,-0.555 -0.344,-0.891 z m 5.527,14.781 v -0.75 c 0.821,0 1.333,-0.051 1.532,-0.156 0.195,-0.102 0.297,-0.41 0.297,-0.922 V 35.113 c 0,-0.593 -0.106,-0.961 -0.313,-1.109 -0.199,-0.156 -0.703,-0.234 -1.516,-0.234 v -0.75 l 3.375,-0.266 v 14.828 c 0,0.512 0.098,0.82 0.297,0.922 0.196,0.105 0.707,0.156 1.532,0.156 v 0.75 c -0.188,0 -0.481,-0.004 -0.875,-0.015 -0.399,-0.02 -0.743,-0.036 -1.032,-0.047 -0.293,-0.008 -0.527,-0.016 -0.703,-0.016 -0.187,0 -1.054,0.027 -2.594,0.078 z m 6.512,0 v -0.75 c 0.821,0 1.332,-0.051 1.531,-0.156 0.196,-0.102 0.297,-0.41 0.297,-0.922 v -6.453 c 0,-0.594 -0.101,-0.957 -0.297,-1.094 -0.199,-0.144 -0.679,-0.219 -1.437,-0.219 v -0.75 l 3.281,-0.265 v 8.812 c 0,0.481 0.082,0.778 0.25,0.891 0.164,0.105 0.629,0.156 1.391,0.156 v 0.75 c -1.594,-0.051 -2.406,-0.078 -2.438,-0.078 -0.218,0 -1.078,0.027 -2.578,0.078 z m 0.985,-14.781 c 0,-0.32 0.117,-0.613 0.359,-0.875 0.238,-0.27 0.531,-0.406 0.875,-0.406 0.344,0 0.633,0.121 0.875,0.359 0.25,0.242 0.375,0.547 0.375,0.922 0,0.367 -0.125,0.668 -0.375,0.906 -0.242,0.242 -0.531,0.36 -0.875,0.36 -0.356,0 -0.652,-0.125 -0.891,-0.375 -0.23,-0.258 -0.343,-0.555 -0.343,-0.891 z m -138.5,-84.18 H 669.176 V 155.012 H 90.102 Z M 326.836,0 H 437.23 c 7.008,0 12.653,5.645 12.653,12.652 v 60.051 c 0,7.012 -5.645,12.652 -12.653,12.652 H 326.836 c -7.008,0 -12.652,-5.64 -12.652,-12.652 V 12.652 C 314.184,5.645 319.828,0 326.836,0 Z M 94.938,-49.551 H 674.016 V 155.012 H 94.938 Z M 353.449,49.41 v -0.75 h 0.61 c 0.875,0 1.41,-0.066 1.609,-0.203 0.207,-0.145 0.312,-0.453 0.312,-0.922 v -12.64 c 0,-0.469 -0.105,-0.77 -0.312,-0.907 -0.199,-0.144 -0.734,-0.218 -1.609,-0.218 h -0.61 v -0.75 c 0.551,0.054 1.75,0.078 3.594,0.078 1.832,0 3.023,-0.024 3.578,-0.078 v 0.75 h -0.625 c -0.875,0 -1.418,0.074 -1.625,0.218 -0.199,0.137 -0.297,0.438 -0.297,0.907 v 12.64 c 0,0.469 0.098,0.777 0.297,0.922 0.207,0.137 0.75,0.203 1.625,0.203 h 0.625 v 0.75 c -0.555,-0.051 -1.75,-0.078 -3.594,-0.078 -1.836,0 -3.027,0.027 -3.578,0.078 z m 8.578,0 v -0.75 c 0.832,0 1.344,-0.051 1.532,-0.156 0.195,-0.102 0.296,-0.41 0.296,-0.922 V 41.16 c 0,-0.594 -0.105,-0.961 -0.312,-1.109 -0.199,-0.156 -0.703,-0.235 -1.516,-0.235 v -0.75 l 3.313,-0.265 v 2.515 c 0.738,-1.675 1.894,-2.515 3.469,-2.515 1.175,0 2,0.297 2.468,0.89 0.344,0.399 0.551,0.821 0.625,1.266 0.071,0.449 0.11,1.25 0.11,2.406 v 4.578 c 0.008,0.344 0.14,0.555 0.39,0.625 0.25,0.063 0.727,0.094 1.438,0.094 v 0.75 c -1.594,-0.051 -2.469,-0.078 -2.625,-0.078 -0.125,0 -1.012,0.027 -2.656,0.078 v -0.75 c 0.832,0 1.343,-0.051 1.531,-0.156 0.195,-0.102 0.297,-0.41 0.297,-0.922 v -5.594 c 0,-0.812 -0.121,-1.457 -0.36,-1.937 -0.242,-0.477 -0.699,-0.719 -1.375,-0.719 -0.812,0 -1.547,0.352 -2.203,1.047 -0.648,0.699 -0.969,1.633 -0.969,2.797 v 4.406 c 0,0.512 0.098,0.82 0.297,0.922 0.196,0.105 0.707,0.156 1.532,0.156 v 0.75 c -1.594,-0.051 -2.469,-0.078 -2.625,-0.078 -0.125,0 -1.012,0.027 -2.657,0.078 z m 13.051,-9.594 v -0.75 h 1.844 v -2.765 c 0,-1.176 0.375,-2.102 1.125,-2.781 0.758,-0.688 1.598,-1.032 2.515,-1.032 0.614,0 1.118,0.172 1.516,0.516 0.406,0.336 0.61,0.726 0.61,1.172 0,0.304 -0.094,0.554 -0.282,0.75 -0.179,0.199 -0.433,0.297 -0.765,0.297 -0.313,0 -0.559,-0.098 -0.735,-0.297 -0.179,-0.196 -0.265,-0.442 -0.265,-0.735 0,-0.507 0.234,-0.843 0.703,-1 -0.242,-0.113 -0.5,-0.171 -0.782,-0.171 -0.562,0 -1.062,0.296 -1.5,0.89 -0.437,0.594 -0.656,1.387 -0.656,2.375 v 2.781 h 2.75 v 0.75 h -2.672 v 7.719 c 0,0.469 0.094,0.777 0.282,0.922 0.187,0.137 0.687,0.203 1.5,0.203 h 0.484 v 0.75 c -0.625,-0.051 -1.621,-0.078 -2.984,-0.078 -0.188,0 -0.434,0.008 -0.735,0.016 -0.293,0.011 -0.636,0.027 -1.031,0.047 -0.387,0.011 -0.688,0.015 -0.906,0.015 v -0.75 c 0.832,0 1.344,-0.051 1.531,-0.156 0.195,-0.102 0.297,-0.41 0.297,-0.922 v -7.766 z m 7.031,4.313 c 0,-1.5 0.473,-2.785 1.422,-3.859 0.946,-1.071 2.102,-1.61 3.469,-1.61 1.375,0 2.414,0.461 3.125,1.375 0.719,0.906 1.078,2.016 1.078,3.328 0,0.242 -0.031,0.387 -0.094,0.438 -0.062,0.043 -0.23,0.062 -0.5,0.062 h -6.547 c 0,1.637 0.235,2.84 0.704,3.61 0.656,1.062 1.539,1.593 2.656,1.593 0.156,0 0.32,-0.015 0.5,-0.046 0.176,-0.032 0.453,-0.114 0.828,-0.25 0.383,-0.133 0.738,-0.383 1.062,-0.75 0.333,-0.364 0.594,-0.836 0.782,-1.422 0.039,-0.219 0.14,-0.328 0.297,-0.328 0.207,0 0.312,0.093 0.312,0.281 0,0.148 -0.078,0.375 -0.234,0.687 -0.149,0.313 -0.36,0.657 -0.641,1.032 -0.281,0.375 -0.699,0.703 -1.25,0.984 -0.543,0.281 -1.14,0.422 -1.797,0.422 -1.386,0 -2.593,-0.531 -3.625,-1.594 -1.031,-1.062 -1.547,-2.379 -1.547,-3.953 z m 1.969,-0.766 h 5.578 c 0,-0.332 -0.031,-0.687 -0.094,-1.062 -0.054,-0.383 -0.164,-0.832 -0.328,-1.344 -0.168,-0.519 -0.445,-0.941 -0.828,-1.266 -0.375,-0.332 -0.844,-0.5 -1.406,-0.5 -0.25,0 -0.516,0.059 -0.797,0.172 -0.273,0.106 -0.574,0.293 -0.906,0.563 -0.324,0.262 -0.602,0.695 -0.828,1.297 -0.231,0.593 -0.36,1.308 -0.391,2.14 z m 8.234,-3.547 v -0.531 c 0.719,-0.031 1.313,-0.305 1.782,-0.828 0.476,-0.519 0.801,-1.098 0.968,-1.734 0.165,-0.645 0.254,-1.336 0.266,-2.078 h 0.594 v 4.421 h 3.359 v 0.75 h -3.359 v 6.672 c 0,1.719 0.523,2.578 1.578,2.578 0.445,0 0.816,-0.234 1.109,-0.703 0.301,-0.468 0.453,-1.129 0.453,-1.984 v -1.313 h 0.594 v 1.375 c 0,0.856 -0.199,1.61 -0.594,2.266 -0.386,0.648 -0.964,0.969 -1.734,0.969 -0.281,0 -0.562,-0.039 -0.844,-0.11 -0.281,-0.074 -0.605,-0.203 -0.968,-0.39 -0.356,-0.196 -0.649,-0.531 -0.875,-1 -0.231,-0.469 -0.344,-1.047 -0.344,-1.735 v -6.625 z m 9.126,0 v -0.531 c 0.718,-0.031 1.312,-0.305 1.781,-0.828 0.476,-0.519 0.801,-1.098 0.969,-1.734 0.164,-0.645 0.253,-1.336 0.265,-2.078 h 0.594 v 4.421 h 3.359 v 0.75 h -3.359 v 6.672 c 0,1.719 0.523,2.578 1.578,2.578 0.445,0 0.816,-0.234 1.109,-0.703 0.301,-0.468 0.454,-1.129 0.454,-1.984 v -1.313 h 0.593 v 1.375 c 0,0.856 -0.199,1.61 -0.593,2.266 -0.387,0.648 -0.965,0.969 -1.735,0.969 -0.281,0 -0.562,-0.039 -0.844,-0.11 -0.281,-0.074 -0.605,-0.203 -0.968,-0.39 -0.356,-0.196 -0.649,-0.531 -0.875,-1 -0.231,-0.469 -0.344,-1.047 -0.344,-1.735 v -6.625 z m 9.453,9.594 v -0.75 c 0.82,0 1.332,-0.051 1.531,-0.156 0.195,-0.102 0.297,-0.41 0.297,-0.922 v -6.453 c 0,-0.594 -0.102,-0.957 -0.297,-1.094 -0.199,-0.144 -0.68,-0.219 -1.438,-0.219 v -0.75 l 3.282,-0.265 v 8.812 c 0,0.481 0.082,0.778 0.25,0.891 0.164,0.105 0.629,0.156 1.39,0.156 v 0.75 c -1.594,-0.051 -2.406,-0.078 -2.437,-0.078 -0.219,0 -1.078,0.027 -2.578,0.078 z m 0.984,-14.781 c 0,-0.32 0.117,-0.613 0.359,-0.875 0.239,-0.27 0.532,-0.406 0.875,-0.406 0.344,0 0.633,0.121 0.875,0.359 0.25,0.242 0.375,0.547 0.375,0.922 0,0.367 -0.125,0.668 -0.375,0.906 -0.242,0.242 -0.531,0.36 -0.875,0.36 -0.355,0 -0.652,-0.125 -0.89,-0.375 -0.231,-0.258 -0.344,-0.555 -0.344,-0.891 z M 93.828,-49.551 H 672.902 V 155.012 H 93.828 Z M 528.184,0 h 110.39 c 7.012,0 12.653,5.645 12.653,12.652 v 60.051 c 0,7.012 -5.641,12.652 -12.653,12.652 h -110.39 c -7.012,0 -12.653,-5.64 -12.653,-12.652 V 12.652 C 515.531,5.645 521.172,0 528.184,0 Z M 94.938,-49.551 H 674.016 V 155.012 H 94.938 Z M 547.18,49.41 v -0.75 h 0.562 c 0.844,0 1.36,-0.066 1.547,-0.203 0.195,-0.145 0.297,-0.453 0.297,-0.922 v -12.64 c 0,-0.469 -0.102,-0.77 -0.297,-0.907 -0.187,-0.144 -0.703,-0.218 -1.547,-0.218 h -0.562 v -0.75 h 7.375 c 1.695,0 3.14,0.429 4.328,1.281 1.195,0.855 1.797,1.867 1.797,3.031 0,0.898 -0.391,1.699 -1.172,2.406 -0.774,0.711 -1.75,1.215 -2.938,1.516 1.551,0.543 2.504,1.469 2.86,2.781 l 0.312,1.922 c 0.063,0.461 0.11,0.809 0.141,1.047 0.039,0.23 0.097,0.508 0.172,0.828 0.07,0.313 0.14,0.547 0.203,0.703 0.07,0.156 0.16,0.313 0.265,0.469 0.114,0.156 0.239,0.266 0.375,0.328 0.145,0.055 0.313,0.078 0.5,0.078 0.364,0 0.696,-0.16 1,-0.484 0.313,-0.332 0.5,-0.883 0.563,-1.656 0.031,-0.25 0.125,-0.375 0.281,-0.375 0.196,0 0.297,0.136 0.297,0.406 0,0.211 -0.031,0.445 -0.094,0.703 -0.062,0.262 -0.168,0.547 -0.312,0.859 -0.149,0.305 -0.383,0.555 -0.703,0.766 -0.325,0.207 -0.7,0.312 -1.125,0.312 -1.219,0 -2.203,-0.339 -2.953,-1.015 -0.313,-0.281 -0.543,-0.61 -0.688,-0.985 -0.137,-0.382 -0.219,-0.722 -0.25,-1.015 -0.023,-0.289 -0.031,-0.766 -0.031,-1.422 0,-0.926 -0.047,-1.594 -0.141,-2 -0.094,-0.414 -0.344,-0.82 -0.75,-1.219 -0.543,-0.539 -1.265,-0.812 -2.172,-0.812 h -2.703 v 6.062 c 0,0.469 0.094,0.777 0.281,0.922 0.196,0.137 0.719,0.203 1.563,0.203 h 0.562 v 0.75 c -0.562,-0.051 -1.703,-0.078 -3.421,-0.078 -1.719,0 -2.86,0.027 -3.422,0.078 z m 4.437,-8.469 h 2.61 c 0.82,0 1.515,-0.101 2.078,-0.312 0.562,-0.207 0.972,-0.5 1.234,-0.875 0.27,-0.375 0.457,-0.75 0.563,-1.125 0.101,-0.383 0.156,-0.817 0.156,-1.297 0,-0.551 -0.063,-1.039 -0.188,-1.469 -0.125,-0.425 -0.324,-0.758 -0.593,-1 -0.262,-0.25 -0.528,-0.453 -0.797,-0.609 -0.262,-0.164 -0.602,-0.281 -1.016,-0.344 -0.418,-0.062 -0.766,-0.098 -1.047,-0.109 -0.281,-0.02 -0.652,-0.031 -1.109,-0.031 -0.762,0 -1.219,0.015 -1.375,0.046 -0.18,0.012 -0.305,0.063 -0.375,0.157 -0.063,0.086 -0.106,0.172 -0.125,0.265 -0.012,0.094 -0.016,0.258 -0.016,0.485 z m 12.801,8.469 v -0.75 c 0.82,0 1.332,-0.051 1.531,-0.156 0.196,-0.102 0.297,-0.41 0.297,-0.922 v -6.453 c 0,-0.594 -0.101,-0.957 -0.297,-1.094 -0.199,-0.144 -0.679,-0.219 -1.437,-0.219 v -0.75 l 3.281,-0.265 v 8.812 c 0,0.481 0.082,0.778 0.25,0.891 0.164,0.105 0.629,0.156 1.391,0.156 v 0.75 c -1.594,-0.051 -2.407,-0.078 -2.438,-0.078 -0.219,0 -1.078,0.027 -2.578,0.078 z m 0.984,-14.781 c 0,-0.32 0.118,-0.613 0.36,-0.875 0.238,-0.27 0.531,-0.406 0.875,-0.406 0.343,0 0.633,0.121 0.875,0.359 0.25,0.242 0.375,0.547 0.375,0.922 0,0.367 -0.125,0.668 -0.375,0.906 -0.242,0.242 -0.532,0.36 -0.875,0.36 -0.356,0 -0.653,-0.125 -0.891,-0.375 -0.23,-0.258 -0.344,-0.555 -0.344,-0.891 z m 5.496,14.781 v -0.75 c 0.832,0 1.344,-0.051 1.532,-0.156 0.195,-0.102 0.297,-0.41 0.297,-0.922 V 41.16 c 0,-0.594 -0.106,-0.961 -0.313,-1.109 -0.199,-0.156 -0.703,-0.235 -1.516,-0.235 v -0.75 l 3.313,-0.265 v 2.515 c 0.738,-1.675 1.894,-2.515 3.469,-2.515 1.832,0 2.875,0.789 3.125,2.359 0.269,-0.613 0.687,-1.16 1.25,-1.64 0.562,-0.477 1.281,-0.719 2.156,-0.719 1.176,0 2,0.297 2.469,0.89 0.343,0.399 0.55,0.821 0.625,1.266 0.07,0.449 0.109,1.25 0.109,2.406 v 4.578 c 0.008,0.344 0.141,0.555 0.391,0.625 0.25,0.063 0.726,0.094 1.437,0.094 v 0.75 c -1.594,-0.051 -2.469,-0.078 -2.625,-0.078 -0.125,0 -1.012,0.027 -2.656,0.078 v -0.75 c 0.82,0 1.332,-0.051 1.531,-0.156 0.196,-0.102 0.297,-0.41 0.297,-0.922 v -5.594 c 0,-0.812 -0.125,-1.457 -0.375,-1.937 -0.242,-0.477 -0.695,-0.719 -1.359,-0.719 -0.813,0 -1.547,0.352 -2.203,1.047 -0.649,0.699 -0.969,1.633 -0.969,2.797 v 4.406 c 0,0.512 0.094,0.82 0.281,0.922 0.195,0.105 0.711,0.156 1.547,0.156 v 0.75 c -1.594,-0.051 -2.469,-0.078 -2.625,-0.078 -0.125,0 -1.012,0.027 -2.656,0.078 v -0.75 c 0.832,0 1.343,-0.051 1.531,-0.156 0.195,-0.102 0.297,-0.41 0.297,-0.922 v -5.594 c 0,-0.812 -0.121,-1.457 -0.36,-1.937 -0.242,-0.477 -0.699,-0.719 -1.375,-0.719 -0.812,0 -1.546,0.352 -2.203,1.047 -0.648,0.699 -0.968,1.633 -0.968,2.797 v 4.406 c 0,0.512 0.097,0.82 0.296,0.922 0.196,0.105 0.707,0.156 1.532,0.156 v 0.75 c -1.594,-0.051 -2.469,-0.078 -2.625,-0.078 -0.125,0 -1.012,0.027 -2.657,0.078 z m 21.032,-1.297 c -1.032,-1.039 -1.547,-2.32 -1.547,-3.843 0,-1.52 0.504,-2.832 1.515,-3.938 1.008,-1.113 2.243,-1.672 3.704,-1.672 1.425,0 2.644,0.555 3.656,1.656 1.019,1.106 1.531,2.422 1.531,3.954 0,1.511 -0.516,2.792 -1.547,3.843 -1.023,1.043 -2.246,1.563 -3.672,1.563 -1.398,0 -2.609,-0.52 -3.64,-1.563 z m 0.406,-4.031 c 0,1.555 0.191,2.684 0.578,3.391 0.613,1.062 1.508,1.593 2.688,1.593 0.57,0 1.101,-0.156 1.593,-0.468 0.489,-0.321 0.864,-0.754 1.125,-1.297 0.344,-0.707 0.516,-1.781 0.516,-3.219 0,-1.531 -0.203,-2.641 -0.609,-3.328 -0.618,-1.039 -1.5,-1.563 -2.657,-1.563 -0.5,0 -1,0.137 -1.5,0.407 -0.492,0.273 -0.882,0.672 -1.172,1.203 -0.375,0.699 -0.562,1.793 -0.562,3.281 z m 9.914,5.016 v -3.172 c 0,-0.176 0,-0.297 0,-0.36 0.008,-0.062 0.035,-0.113 0.078,-0.156 0.051,-0.051 0.125,-0.078 0.219,-0.078 0.113,0 0.187,0.027 0.219,0.078 0.039,0.043 0.078,0.152 0.109,0.328 0.238,1.106 0.609,1.95 1.109,2.532 0.508,0.585 1.227,0.875 2.157,0.875 0.875,0 1.535,-0.196 1.984,-0.594 0.445,-0.406 0.672,-0.938 0.672,-1.594 0,-1.164 -0.813,-1.898 -2.438,-2.203 -0.949,-0.188 -1.621,-0.344 -2.015,-0.469 -0.387,-0.133 -0.75,-0.347 -1.094,-0.64 -0.668,-0.551 -1,-1.227 -1,-2.032 0,-0.801 0.297,-1.492 0.891,-2.078 0.593,-0.582 1.547,-0.875 2.859,-0.875 0.875,0 1.609,0.227 2.203,0.672 0.176,-0.144 0.313,-0.273 0.406,-0.391 0.196,-0.187 0.352,-0.281 0.469,-0.281 0.125,0 0.195,0.043 0.219,0.125 0.031,0.074 0.047,0.227 0.047,0.453 v 2.422 c 0,0.18 -0.008,0.297 -0.016,0.36 -0.012,0.062 -0.043,0.117 -0.094,0.156 -0.043,0.043 -0.109,0.062 -0.203,0.062 -0.179,0 -0.273,-0.07 -0.281,-0.218 -0.125,-1.938 -1.043,-2.907 -2.75,-2.907 -0.93,0 -1.602,0.184 -2.016,0.547 -0.406,0.356 -0.609,0.781 -0.609,1.281 0,0.274 0.063,0.512 0.187,0.719 0.126,0.211 0.266,0.375 0.422,0.5 0.164,0.117 0.399,0.231 0.704,0.344 0.312,0.105 0.562,0.18 0.75,0.219 0.187,0.043 0.46,0.105 0.828,0.187 1.25,0.242 2.14,0.621 2.672,1.141 0.656,0.679 0.984,1.437 0.984,2.281 0,0.949 -0.313,1.746 -0.938,2.391 -0.625,0.636 -1.574,0.953 -2.843,0.953 -1.024,0 -1.883,-0.344 -2.579,-1.031 -0.093,0.093 -0.179,0.183 -0.25,0.265 -0.074,0.074 -0.121,0.133 -0.14,0.172 -0.024,0.031 -0.039,0.059 -0.047,0.078 -0.012,0.012 -0.023,0.024 -0.031,0.031 -0.313,0.321 -0.512,0.485 -0.594,0.485 -0.125,0 -0.199,-0.043 -0.219,-0.125 -0.023,-0.074 -0.031,-0.223 -0.031,-0.453 z m 9.262,0 v -3.172 c 0,-0.176 0,-0.297 0,-0.36 0.008,-0.062 0.035,-0.113 0.078,-0.156 0.051,-0.051 0.125,-0.078 0.219,-0.078 0.113,0 0.187,0.027 0.218,0.078 0.039,0.043 0.078,0.152 0.11,0.328 0.238,1.106 0.609,1.95 1.109,2.532 0.508,0.585 1.227,0.875 2.156,0.875 0.875,0 1.536,-0.196 1.985,-0.594 0.445,-0.406 0.672,-0.938 0.672,-1.594 0,-1.164 -0.813,-1.898 -2.438,-2.203 -0.949,-0.188 -1.621,-0.344 -2.016,-0.469 -0.386,-0.133 -0.75,-0.347 -1.093,-0.64 -0.668,-0.551 -1,-1.227 -1,-2.032 0,-0.801 0.297,-1.492 0.89,-2.078 0.594,-0.582 1.547,-0.875 2.86,-0.875 0.875,0 1.609,0.227 2.203,0.672 0.176,-0.144 0.312,-0.273 0.406,-0.391 0.195,-0.187 0.352,-0.281 0.469,-0.281 0.125,0 0.195,0.043 0.219,0.125 0.031,0.074 0.046,0.227 0.046,0.453 v 2.422 c 0,0.18 -0.007,0.297 -0.015,0.36 -0.012,0.062 -0.043,0.117 -0.094,0.156 -0.043,0.043 -0.109,0.062 -0.203,0.062 -0.18,0 -0.273,-0.07 -0.281,-0.218 -0.125,-1.938 -1.043,-2.907 -2.75,-2.907 -0.93,0 -1.602,0.184 -2.016,0.547 -0.406,0.356 -0.609,0.781 -0.609,1.281 0,0.274 0.062,0.512 0.187,0.719 0.125,0.211 0.266,0.375 0.422,0.5 0.164,0.117 0.399,0.231 0.703,0.344 0.313,0.105 0.563,0.18 0.75,0.219 0.188,0.043 0.461,0.105 0.828,0.187 1.25,0.242 2.141,0.621 2.672,1.141 0.656,0.679 0.985,1.437 0.985,2.281 0,0.949 -0.313,1.746 -0.938,2.391 -0.625,0.636 -1.574,0.953 -2.844,0.953 -1.023,0 -1.882,-0.344 -2.578,-1.031 -0.094,0.093 -0.179,0.183 -0.25,0.265 -0.074,0.074 -0.121,0.133 -0.14,0.172 -0.024,0.031 -0.039,0.059 -0.047,0.078 -0.012,0.012 -0.024,0.024 -0.032,0.031 -0.312,0.321 -0.511,0.485 -0.593,0.485 -0.125,0 -0.2,-0.043 -0.219,-0.125 -0.023,-0.074 -0.031,-0.223 -0.031,-0.453 z m 9.261,0.312 v -0.75 c 0.821,0 1.332,-0.051 1.532,-0.156 0.195,-0.102 0.297,-0.41 0.297,-0.922 v -6.453 c 0,-0.594 -0.102,-0.957 -0.297,-1.094 -0.2,-0.144 -0.68,-0.219 -1.438,-0.219 v -0.75 l 3.281,-0.265 v 8.812 c 0,0.481 0.082,0.778 0.25,0.891 0.164,0.105 0.629,0.156 1.391,0.156 v 0.75 c -1.594,-0.051 -2.406,-0.078 -2.437,-0.078 -0.219,0 -1.079,0.027 -2.579,0.078 z m 0.985,-14.781 c 0,-0.32 0.117,-0.613 0.359,-0.875 0.238,-0.27 0.531,-0.406 0.875,-0.406 0.344,0 0.633,0.121 0.875,0.359 0.25,0.242 0.375,0.547 0.375,0.922 0,0.367 -0.125,0.668 -0.375,0.906 -0.242,0.242 -0.531,0.36 -0.875,0.36 -0.355,0 -0.652,-0.125 -0.89,-0.375 -0.231,-0.258 -0.344,-0.555 -0.344,-0.891 z M 93.828,-49.551 H 672.902 V 155.012 H 93.828 Z m 160.117,93.625 h 47.993 m -8.993,-3.73 10.11,3.715 -10.11,3.718 c 1.617,-2.195 1.606,-5.195 0,-7.433 z M 93.438,-49.551 H 672.516 V 155.012 H 93.438 Z m 364.664,93.625 h 47.992 m -8.989,-3.73 10.106,3.715 -10.106,3.718 c 1.614,-2.195 1.606,-5.195 0,-7.433 z M 94.938,-49.551 H 674.016 V 155.012 H 94.938 Z m 173.878,85.348 c 0,-0.156 0.079,-0.453 0.235,-0.891 0.156,-0.437 0.41,-1.414 0.765,-2.922 0.364,-1.5 0.743,-3.422 1.141,-5.765 l 1.047,-6.344 c 0,-0.031 0.004,-0.078 0.016,-0.141 0.257,-1.644 0.976,-2.929 2.156,-3.859 0.976,-0.789 2.062,-1.187 3.25,-1.187 0.906,0 1.633,0.281 2.187,0.843 0.563,0.563 0.844,1.262 0.844,2.094 0,0.73 -0.211,1.437 -0.625,2.125 -0.418,0.688 -0.945,1.25 -1.578,1.688 v 0.015 c 1.375,0.867 2.062,2.109 2.062,3.735 0,1.468 -0.558,2.746 -1.671,3.828 -1.106,1.074 -2.352,1.609 -3.735,1.609 -1.375,0 -2.637,-0.695 -3.781,-2.094 -0.18,1.199 -0.313,2.274 -0.406,3.235 -0.094,0.968 -0.153,1.679 -0.172,2.14 -0.012,0.469 -0.024,0.867 -0.031,1.203 -0.012,0.344 -0.032,0.582 -0.063,0.719 -0.023,0.133 -0.078,0.254 -0.172,0.36 -0.18,0.218 -0.422,0.328 -0.734,0.328 -0.211,0 -0.379,-0.063 -0.516,-0.188 -0.144,-0.125 -0.219,-0.305 -0.219,-0.531 z m 2.469,-8.156 c 0,0.281 0.305,0.699 0.922,1.25 0.625,0.543 1.273,0.812 1.953,0.812 1.082,0 2.203,-0.586 3.36,-1.765 1.156,-1.176 1.734,-2.407 1.734,-3.688 0,-0.77 -0.203,-1.359 -0.609,-1.766 -0.407,-0.414 -0.766,-0.625 -1.079,-0.625 -0.023,0 -0.246,0.063 -0.671,0.188 -0.43,0.125 -0.778,0.187 -1.047,0.187 -0.543,0 -0.813,-0.207 -0.813,-0.625 0,-0.093 0.016,-0.191 0.047,-0.297 0.039,-0.101 0.141,-0.21 0.297,-0.328 0.156,-0.113 0.359,-0.172 0.609,-0.172 0.289,0 0.625,0.04 1,0.11 0.914,-0.594 1.578,-1.254 1.985,-1.984 0.406,-0.739 0.609,-1.368 0.609,-1.891 0,-0.477 -0.148,-0.863 -0.437,-1.156 -0.293,-0.301 -0.672,-0.453 -1.141,-0.453 -0.399,0 -0.867,0.105 -1.406,0.312 -0.543,0.199 -1.133,0.562 -1.766,1.094 -0.625,0.531 -1.109,1.164 -1.453,1.89 -0.281,0.618 -0.602,1.653 -0.953,3.11 -0.344,1.461 -0.621,2.758 -0.828,3.89 -0.211,1.137 -0.313,1.774 -0.313,1.907 z M 105.68,-50.664 H 684.754 V 153.898 H 105.68 Z M 477.039,21.93 c 0,-0.321 0.172,-0.758 0.516,-1.313 0.351,-0.562 0.828,-0.844 1.422,-0.844 0.312,0 0.597,0.086 0.859,0.25 0.258,0.157 0.476,0.403 0.656,0.735 0.188,0.336 0.344,0.668 0.469,1 0.125,0.324 0.238,0.746 0.344,1.265 0.101,0.524 0.179,0.938 0.234,1.25 0.051,0.313 0.109,0.735 0.172,1.266 0.062,0.531 0.109,0.883 0.141,1.047 0.351,-0.832 0.875,-1.879 1.562,-3.141 0.688,-1.257 1.313,-2.172 1.875,-2.734 0.625,-0.625 1.25,-0.938 1.875,-0.938 0.25,0 0.453,0.075 0.609,0.219 0.165,0.149 0.25,0.34 0.25,0.578 0,0.438 -0.214,0.762 -0.64,0.969 -0.074,0.023 -0.246,0.047 -0.516,0.078 -0.262,0.024 -0.543,0.11 -0.844,0.266 -0.293,0.156 -0.617,0.433 -0.968,0.828 -0.563,0.625 -1.203,1.594 -1.922,2.906 -0.711,1.313 -1.11,2.153 -1.203,2.516 -0.012,0.094 -0.016,0.226 -0.016,0.39 v 0.422 c -0.023,0.914 -0.078,1.817 -0.172,2.703 -0.086,0.895 -0.164,1.461 -0.234,1.704 -0.156,0.437 -0.453,0.656 -0.891,0.656 -0.211,0 -0.387,-0.07 -0.531,-0.203 -0.148,-0.125 -0.219,-0.305 -0.219,-0.532 0,-0.281 0.113,-0.906 0.344,-1.875 0.227,-0.968 0.516,-1.925 0.859,-2.875 0.114,-0.363 0.172,-0.57 0.172,-0.625 0,-0.445 -0.117,-1.281 -0.344,-2.5 -0.23,-1.226 -0.484,-2.125 -0.765,-2.687 -0.356,-0.727 -0.86,-1.094 -1.516,-1.094 -0.25,0 -0.453,0.031 -0.609,0.094 -0.156,0.062 -0.266,0.137 -0.328,0.219 -0.055,0.074 -0.118,0.14 -0.188,0.203 -0.062,0.062 -0.133,0.094 -0.203,0.094 l -0.031,-0.032 c -0.012,0 -0.028,0 -0.047,0 -0.117,-0.031 -0.172,-0.117 -0.172,-0.265 z M 98.277,-50.664 H 677.352 V 153.898 H 98.277 Z M 171.66,111.23 v -4.453 c 0,-0.156 0,-0.265 0,-0.328 0.008,-0.062 0.035,-0.113 0.078,-0.156 0.051,-0.039 0.117,-0.063 0.203,-0.063 0.164,0 0.254,0.075 0.266,0.219 0.051,1.469 0.516,2.61 1.391,3.422 0.851,0.805 2.023,1.203 3.515,1.203 0.883,0 1.598,-0.316 2.141,-0.953 0.551,-0.633 0.828,-1.375 0.828,-2.219 0,-0.8 -0.23,-1.484 -0.687,-2.047 -0.188,-0.257 -0.407,-0.468 -0.657,-0.625 -0.242,-0.164 -0.437,-0.273 -0.593,-0.328 -0.149,-0.05 -0.36,-0.113 -0.641,-0.187 -1.836,-0.445 -2.813,-0.692 -2.938,-0.735 -0.875,-0.3 -1.578,-0.82 -2.109,-1.562 -0.531,-0.75 -0.797,-1.586 -0.797,-2.516 0,-1.187 0.414,-2.203 1.25,-3.047 0.844,-0.843 1.867,-1.265 3.078,-1.265 0.614,0 1.176,0.101 1.688,0.297 0.508,0.187 0.867,0.371 1.078,0.547 0.207,0.168 0.473,0.406 0.797,0.718 l 0.781,-1.265 c 0.113,-0.196 0.223,-0.297 0.328,-0.297 0.125,0 0.195,0.039 0.219,0.109 0.019,0.063 0.031,0.203 0.031,0.422 v 4.469 c 0,0.168 -0.008,0.281 -0.015,0.344 0,0.062 -0.028,0.117 -0.079,0.156 -0.043,0.031 -0.105,0.047 -0.187,0.047 -0.156,0 -0.246,-0.086 -0.266,-0.266 -0.418,-3.101 -1.867,-4.656 -4.343,-4.656 -0.844,0 -1.547,0.289 -2.11,0.859 -0.555,0.574 -0.828,1.258 -0.828,2.047 0,0.656 0.203,1.258 0.609,1.797 0.407,0.531 0.954,0.875 1.641,1.031 l 2.844,0.688 c 0.945,0.23 1.738,0.765 2.375,1.609 0.644,0.836 0.969,1.797 0.969,2.891 0,1.261 -0.415,2.351 -1.235,3.265 -0.824,0.907 -1.875,1.36 -3.156,1.36 -0.918,0 -1.734,-0.153 -2.453,-0.453 -0.711,-0.301 -1.258,-0.664 -1.641,-1.094 -0.293,0.492 -0.539,0.875 -0.734,1.156 l -0.063,0.109 c -0.125,0.188 -0.242,0.282 -0.343,0.282 -0.118,0 -0.184,-0.039 -0.204,-0.11 -0.023,-0.074 -0.031,-0.214 -0.031,-0.422 z M 95.664,-50.664 H 674.738 V 153.898 H 95.664 Z m 286.078,162.266 v -0.688 h 0.578 c 0.832,0 1.344,-0.066 1.532,-0.203 0.195,-0.133 0.296,-0.414 0.296,-0.844 V 98.133 c 0,-0.426 -0.101,-0.703 -0.296,-0.828 -0.188,-0.133 -0.7,-0.203 -1.532,-0.203 h -0.578 v -0.704 c 0.52,0.055 1.656,0.079 3.406,0.079 1.727,0 2.852,-0.024 3.375,-0.079 v 0.704 h -0.578 c -0.836,0 -1.351,0.07 -1.547,0.203 -0.187,0.125 -0.281,0.402 -0.281,0.828 v 11.734 c 0,0.43 0.094,0.711 0.281,0.844 0.196,0.137 0.711,0.203 1.547,0.203 h 0.578 v 0.688 c -0.523,-0.04 -1.656,-0.063 -3.406,-0.063 -1.73,0 -2.855,0.023 -3.375,0.063 z M 97.164,-50.664 H 676.238 V 153.898 H 97.164 Z m 483.328,161.805 v -0.688 h 0.531 c 0.801,0 1.297,-0.066 1.485,-0.203 0.187,-0.133 0.281,-0.414 0.281,-0.844 V 97.672 c 0,-0.426 -0.094,-0.703 -0.281,-0.828 -0.188,-0.133 -0.684,-0.203 -1.485,-0.203 h -0.531 v -0.703 h 6.985 c 1.613,0 2.984,0.402 4.109,1.203 1.133,0.793 1.703,1.73 1.703,2.812 0,0.824 -0.371,1.563 -1.109,2.219 -0.731,0.656 -1.664,1.125 -2.797,1.406 1.469,0.5 2.375,1.36 2.719,2.578 l 0.296,1.782 c 0.051,0.429 0.094,0.75 0.125,0.968 0.039,0.219 0.094,0.477 0.157,0.766 0.07,0.293 0.14,0.512 0.203,0.656 0.07,0.149 0.16,0.293 0.265,0.438 0.102,0.148 0.223,0.246 0.36,0.296 0.133,0.055 0.289,0.079 0.469,0.079 0.343,0 0.656,-0.149 0.937,-0.453 0.289,-0.301 0.469,-0.813 0.531,-1.532 0.032,-0.238 0.117,-0.359 0.266,-0.359 0.187,0 0.281,0.133 0.281,0.391 0,0.187 -0.031,0.406 -0.094,0.656 -0.054,0.242 -0.152,0.5 -0.296,0.781 -0.137,0.281 -0.356,0.516 -0.657,0.703 -0.304,0.195 -0.656,0.297 -1.062,0.297 -1.156,0 -2.09,-0.309 -2.797,-0.922 -0.305,-0.269 -0.524,-0.578 -0.656,-0.922 -0.125,-0.351 -0.203,-0.664 -0.235,-0.937 -0.023,-0.282 -0.031,-0.723 -0.031,-1.328 0,-0.864 -0.047,-1.485 -0.141,-1.86 -0.085,-0.375 -0.32,-0.75 -0.703,-1.125 -0.523,-0.5 -1.211,-0.75 -2.062,-0.75 h -2.563 v 5.625 c 0,0.43 0.094,0.711 0.282,0.844 0.187,0.137 0.675,0.203 1.468,0.203 h 0.547 v 0.688 c -0.543,-0.039 -1.633,-0.063 -3.265,-0.063 -1.625,0 -2.704,0.024 -3.235,0.063 z m 4.203,-7.86 h 2.469 c 0.789,0 1.453,-0.093 1.984,-0.281 0.532,-0.195 0.922,-0.469 1.172,-0.812 0.25,-0.352 0.422,-0.704 0.516,-1.047 0.102,-0.352 0.156,-0.75 0.156,-1.188 0,-0.519 -0.062,-0.976 -0.187,-1.375 -0.117,-0.394 -0.297,-0.707 -0.547,-0.937 -0.25,-0.227 -0.508,-0.414 -0.766,-0.563 -0.25,-0.144 -0.574,-0.25 -0.969,-0.312 -0.386,-0.063 -0.714,-0.098 -0.984,-0.11 -0.262,-0.008 -0.609,-0.015 -1.047,-0.015 -0.719,0 -1.156,0.011 -1.312,0.031 -0.157,0.023 -0.274,0.074 -0.344,0.156 -0.063,0.074 -0.106,0.156 -0.125,0.25 -0.012,0.094 -0.016,0.246 -0.016,0.453 z M 97.164,-50.664 H 676.238 V 153.898 H 97.164 Z m 360.254,94.738 h 47.992 m -8.992,-3.73 10.109,3.715 -10.109,3.718 c 1.617,-2.195 1.605,-5.195 0,-7.433 z M 94.254,-49.551 H 673.328 V 155.012 H 94.254 Z M 17.055,0 h 720.961 c 9.449,0 17.054,7.605 17.054,17.055 v 86.781 c 0,9.449 -7.605,17.055 -17.054,17.055 H 17.055 C 7.605,120.891 0,113.285 0,103.836 V 17.055 C 0,7.605 7.605,0 17.055,0 Z"
         id="path1169"
         inkscape:connector-curvature="0" /></clipPath><clipPath
       clipPathUnits="userSpaceOnUse"
       id="clipPath1175"><path
         d="M 0,0 H 756 V 121 H 0 Z"
         id="path1173"
         inkscape:connector-curvature="0" /></clipPath><clipPath
       clipPathUnits="userSpaceOnUse"
       id="clipPath1179"><path
         d="M 93.438,0 H 672.516 V 121 H 93.438 Z"
         id="path1177"
         inkscape:connector-curvature="0" /></clipPath><clipPath
       clipPathUnits="userSpaceOnUse"
       id="clipPath1183"><path
         d="M 0,0 H 756 V 121 H 0 Z"
         id="path1181"
         inkscape:connector-curvature="0" /></clipPath><clipPath
       clipPathUnits="userSpaceOnUse"
       id="clipPath1187"><path
         d="M 90.102,0 H 669.176 V 121 H 90.102 Z"
         id="path1185"
         inkscape:connector-curvature="0" /></clipPath><clipPath
       clipPathUnits="userSpaceOnUse"
       id="clipPath1191"><path
         d="M 0,0 H 756 V 121 H 0 Z"
         id="path1189"
         inkscape:connector-curvature="0" /></clipPath><clipPath
       clipPathUnits="userSpaceOnUse"
       id="clipPath1195"><path
         d="M 94.938,0 H 674.016 V 121 H 94.938 Z"
         id="path1193"
         inkscape:connector-curvature="0" /></clipPath><clipPath
       clipPathUnits="userSpaceOnUse"
       id="clipPath1199"><path
         d="M 0,0 H 756 V 121 H 0 Z"
         id="path1197"
         inkscape:connector-curvature="0" /></clipPath><clipPath
       clipPathUnits="userSpaceOnUse"
       id="clipPath1203"><path
         d="M 93.828,0 H 672.902 V 121 H 93.828 Z"
         id="path1201"
         inkscape:connector-curvature="0" /></clipPath><clipPath
       clipPathUnits="userSpaceOnUse"
       id="clipPath1207"><path
         d="M 0,0 H 756 V 121 H 0 Z"
         id="path1205"
         inkscape:connector-curvature="0" /></clipPath><clipPath
       clipPathUnits="userSpaceOnUse"
       id="clipPath1211"><path
         d="M 94.938,0 H 674.016 V 121 H 94.938 Z"
         id="path1209"
         inkscape:connector-curvature="0" /></clipPath><clipPath
       clipPathUnits="userSpaceOnUse"
       id="clipPath1215"><path
         d="M 0,0 H 756 V 121 H 0 Z"
         id="path1213"
         inkscape:connector-curvature="0" /></clipPath><clipPath
       clipPathUnits="userSpaceOnUse"
       id="clipPath1219"><path
         d="M 93.828,0 H 672.902 V 121 H 93.828 Z"
         id="path1217"
         inkscape:connector-curvature="0" /></clipPath><clipPath
       clipPathUnits="userSpaceOnUse"
       id="clipPath1223"><path
         d="M 0,0 H 756 V 121 H 0 Z"
         id="path1221"
         inkscape:connector-curvature="0" /></clipPath><clipPath
       clipPathUnits="userSpaceOnUse"
       id="clipPath1227"><path
         d="M 93.438,0 H 672.516 V 121 H 93.438 Z"
         id="path1225"
         inkscape:connector-curvature="0" /></clipPath><clipPath
       clipPathUnits="userSpaceOnUse"
       id="clipPath1231"><path
         d="M 0,0 H 756 V 121 H 0 Z"
         id="path1229"
         inkscape:connector-curvature="0" /></clipPath><clipPath
       clipPathUnits="userSpaceOnUse"
       id="clipPath1235"><path
         d="M 94.938,0 H 674.016 V 121 H 94.938 Z"
         id="path1233"
         inkscape:connector-curvature="0" /></clipPath><clipPath
       clipPathUnits="userSpaceOnUse"
       id="clipPath1239"><path
         d="M 0,0 H 756 V 121 H 0 Z"
         id="path1237"
         inkscape:connector-curvature="0" /></clipPath><clipPath
       clipPathUnits="userSpaceOnUse"
       id="clipPath1243"><path
         d="M 105.68,0 H 684.754 V 121 H 105.68 Z"
         id="path1241"
         inkscape:connector-curvature="0" /></clipPath><clipPath
       clipPathUnits="userSpaceOnUse"
       id="clipPath1247"><path
         d="M 0,0 H 756 V 121 H 0 Z"
         id="path1245"
         inkscape:connector-curvature="0" /></clipPath><clipPath
       clipPathUnits="userSpaceOnUse"
       id="clipPath1251"><path
         d="M 98.277,0 H 677.351 V 121 H 98.277 Z"
         id="path1249"
         inkscape:connector-curvature="0" /></clipPath><clipPath
       clipPathUnits="userSpaceOnUse"
       id="clipPath1255"><path
         d="M 0,0 H 756 V 121 H 0 Z"
         id="path1253"
         inkscape:connector-curvature="0" /></clipPath><clipPath
       clipPathUnits="userSpaceOnUse"
       id="clipPath1259"><path
         d="M 95.664,0 H 674.738 V 121 H 95.664 Z"
         id="path1257"
         inkscape:connector-curvature="0" /></clipPath><clipPath
       clipPathUnits="userSpaceOnUse"
       id="clipPath1263"><path
         d="M 0,0 H 756 V 121 H 0 Z"
         id="path1261"
         inkscape:connector-curvature="0" /></clipPath><clipPath
       clipPathUnits="userSpaceOnUse"
       id="clipPath1267"><path
         d="M 97.164,0 H 676.238 V 121 H 97.164 Z"
         id="path1265"
         inkscape:connector-curvature="0" /></clipPath><clipPath
       clipPathUnits="userSpaceOnUse"
       id="clipPath1271"><path
         d="M 0,0 H 756 V 121 H 0 Z"
         id="path1269"
         inkscape:connector-curvature="0" /></clipPath><clipPath
       clipPathUnits="userSpaceOnUse"
       id="clipPath1275"><path
         d="M 0,0 H 756 V 121 H 0 Z"
         id="path1273"
         inkscape:connector-curvature="0" /></clipPath><clipPath
       clipPathUnits="userSpaceOnUse"
       id="clipPath1279"><path
         d="M 0,0 H 756 V 121 H 0 Z"
         id="path1277"
         inkscape:connector-curvature="0" /></clipPath></defs><sodipodi:namedview
     pagecolor="#ffffff"
     bordercolor="#666666"
     borderopacity="1"
     objecttolerance="10"
     gridtolerance="10"
     guidetolerance="10"
     inkscape:pageopacity="0"
     inkscape:pageshadow="2"
     inkscape:window-width="1423"
     inkscape:window-height="724"
     id="namedview1151"
     showgrid="false"
     inkscape:zoom="0.98533772"
     inkscape:cx="431.54089"
     inkscape:cy="17.194583"
     inkscape:window-x="0"
     inkscape:window-y="0"
     inkscape:window-maximized="0"
     inkscape:current-layer="g1159" /><g
     id="g1157"
     inkscape:groupmode="layer"
     inkscape:label="sir"
     transform="matrix(1.3333333,0,0,1.3333333,0,8.6963618e-6)"><g
       id="g1159"><g
         id="g1161"><g
           id="g1163" /><g
           id="g1523"><g
             clip-path="url(#clipPath1167)"
             id="g1521"
             style="opacity:0.97000002"><g
               id="g1281" /><g
               id="g1519"><g
                 clip-path="url(#clipPath1171)"
                 id="g1517"><g
                   id="g1515"><g
                     id="g1283" /><g
                     id="g1513"><g
                       clip-path="url(#clipPath1175)"
                       id="g1511"><g
                         id="g1285" /><g
                         id="g1299"><g
                           clip-path="url(#clipPath1179)"
                           id="g1297"><g
                             id="g1295"><g
                               id="g1293"><g
                                 clip-path="url(#clipPath1183)"
                                 id="g1291"><g
                                   id="g1289"><path
                                   d="m 120.652,0 h 110.395 c 7.008,0 12.652,5.645 12.652,12.652 v 60.051 c 0,7.012 -5.644,12.652 -12.652,12.652 H 120.652 C 113.645,85.355 108,79.715 108,72.703 V 12.652 C 108,5.645 113.645,0 120.652,0 Z"
                                   style="fill:#ecc00c;fill-opacity:1;fill-rule:nonzero;stroke:none"
                                   id="path1287"
                                   inkscape:connector-curvature="0" /></g></g></g></g></g></g><g
                         id="g1315"><g
                           clip-path="url(#clipPath1187)"
                           id="g1313"><g
                             id="g1311"><g
                               id="g1309"><g
                                 clip-path="url(#clipPath1191)"
                                 id="g1307"><g
                                   id="g1305"><text
                                   transform="matrix(0.97820504,0,0,1,119.90406,49.411947)"
                                   style="font-variant:normal;font-weight:normal;font-size:24.00022507px;font-family:'CMU Serif';-inkscape-font-specification:CMUSerif-Roman;writing-mode:lr-tb;fill:#ffffff;fill-opacity:1;fill-rule:nonzero;stroke:none"
                                   id="text1303"><tspan
                                   x="0 13.320126 26.640251 36.09634 46.752441 57.408539 66.720627 76.032715 82.680779 96.0009 102.64896 109.29703"
                                   y="0"
                                   sodipodi:role="line"
                                   id="tspan1301">Suscettibili</tspan></text>
</g></g></g></g></g></g><g
                         id="g1329"><g
                           clip-path="url(#clipPath1195)"
                           id="g1327"><g
                             id="g1325"><g
                               id="g1323"><g
                                 clip-path="url(#clipPath1199)"
                                 id="g1321"><g
                                   id="g1319"><path
                                   d="M 326.836,0 H 437.23 c 7.008,0 12.653,5.645 12.653,12.652 v 60.051 c 0,7.012 -5.645,12.652 -12.653,12.652 H 326.836 c -7.008,0 -12.652,-5.64 -12.652,-12.652 V 12.652 C 314.184,5.645 319.828,0 326.836,0 Z"
                                   style="fill:#bc2122;fill-opacity:1;fill-rule:nonzero;stroke:none"
                                   id="path1317"
                                   inkscape:connector-curvature="0" /></g></g></g></g></g></g><g
                         id="g1345"><g
                           clip-path="url(#clipPath1203)"
                           id="g1343"><g
                             id="g1341"><g
                               id="g1339"><g
                                 clip-path="url(#clipPath1207)"
                                 id="g1337"><g
                                   id="g1335"><text
                                   transform="matrix(0.97820438,0,0,1,352.79284,49.411917)"
                                   style="font-variant:normal;font-weight:normal;font-size:24.0002346px;font-family:'CMU Serif';-inkscape-font-specification:CMUSerif-Roman;writing-mode:lr-tb;fill:#ffffff;fill-opacity:1;fill-rule:nonzero;stroke:none"
                                   id="text1333"><tspan
                                   x="0 8.6640844 21.984215 29.304287 39.960392 49.272484 58.584572"
                                   y="0"
                                   sodipodi:role="line"
                                   id="tspan1331">Infetti</tspan></text>
</g></g></g></g></g></g><g
                         id="g1359"><g
                           clip-path="url(#clipPath1211)"
                           id="g1357"><g
                             id="g1355"><g
                               id="g1353"><g
                                 clip-path="url(#clipPath1215)"
                                 id="g1351"><g
                                   id="g1349"><path
                                   d="m 528.184,0 h 110.39 c 7.012,0 12.653,5.645 12.653,12.652 v 60.051 c 0,7.012 -5.641,12.652 -12.653,12.652 h -110.39 c -7.012,0 -12.653,-5.64 -12.653,-12.652 V 12.652 C 515.531,5.645 521.172,0 528.184,0 Z"
                                   style="fill:#2193bc;fill-opacity:1;fill-rule:nonzero;stroke:none"
                                   id="path1347"
                                   inkscape:connector-curvature="0" /></g></g></g></g></g></g><g
                         id="g1375"><g
                           clip-path="url(#clipPath1219)"
                           id="g1373"><g
                             id="g1371"><g
                               id="g1369"><g
                                 clip-path="url(#clipPath1223)"
                                 id="g1367"><g
                                   id="g1365"><text
                                   transform="matrix(0.97820438,0,0,1,546.35077,49.411917)"
                                   style="font-variant:normal;font-weight:normal;font-size:24.0002346px;font-family:'CMU Serif';-inkscape-font-specification:CMUSerif-Roman;writing-mode:lr-tb;fill:#ffffff;fill-opacity:1;fill-rule:nonzero;stroke:none"
                                   id="text1363"><tspan
                                   x="0 17.664173 24.312239 44.304432 56.30455 65.760643 75.288734"
                                   y="0"
                                   sodipodi:role="line"
                                   id="tspan1361">Rimossi</tspan></text>
</g></g></g></g></g></g><g
                         id="g1395"><g
                           clip-path="url(#clipPath1227)"
                           id="g1393"><g
                             id="g1391"><g
                               id="g1389"><g
                                 clip-path="url(#clipPath1231)"
                                 id="g1387"><g
                                   id="g1385"><g
                                   id="g1379"><path
                                   d="m 253.945,44.074 h 47.993"
                                   style="fill:none;stroke:#000000;stroke-width:0.84108299;stroke-linecap:butt;stroke-linejoin:miter;stroke-miterlimit:4;stroke-dasharray:none;stroke-opacity:1"
                                   id="path1377"
                                   inkscape:connector-curvature="0" /></g><g
                                   transform="scale(-1)"
                                   id="g1383"><path
                                   d="m -292.945,-40.344 -10.11,-3.715 10.11,-3.718 c -1.618,2.195 -1.606,5.195 0,7.433 z"
                                   style="fill:#000000;fill-opacity:1;fill-rule:evenodd;stroke:#000000;stroke-width:0.57824498;stroke-linecap:butt;stroke-linejoin:round;stroke-miterlimit:4;stroke-dasharray:none;stroke-opacity:1"
                                   id="path1381"
                                   inkscape:connector-curvature="0" /></g></g></g></g></g></g></g><g
                         id="g1415"><g
                           clip-path="url(#clipPath1235)"
                           id="g1413"><g
                             id="g1411"><g
                               id="g1409"><g
                                 clip-path="url(#clipPath1239)"
                                 id="g1407"><g
                                   id="g1405"><g
                                   id="g1399"><path
                                   d="m 458.102,44.074 h 47.992"
                                   style="fill:none;stroke:#000000;stroke-width:0.84108299;stroke-linecap:butt;stroke-linejoin:miter;stroke-miterlimit:4;stroke-dasharray:none;stroke-opacity:1"
                                   id="path1397"
                                   inkscape:connector-curvature="0" /></g><g
                                   transform="scale(-1)"
                                   id="g1403"><path
                                   d="m -497.105,-40.344 -10.106,-3.715 10.106,-3.718 c -1.614,2.195 -1.606,5.195 0,7.433 z"
                                   style="fill:#000000;fill-opacity:1;fill-rule:evenodd;stroke:#000000;stroke-width:0.57824498;stroke-linecap:butt;stroke-linejoin:round;stroke-miterlimit:4;stroke-dasharray:none;stroke-opacity:1"
                                   id="path1401"
                                   inkscape:connector-curvature="0" /></g></g></g></g></g></g></g><g
                         id="g1431"><g
                           clip-path="url(#clipPath1243)"
                           id="g1429"><g
                             id="g1427"><g
                               id="g1425"><g
                                 clip-path="url(#clipPath1247)"
                                 id="g1423"><g
                                   id="g1421"><text
                                   transform="translate(269.33041,30.373588)"
                                   style="font-style:italic;font-variant:normal;font-weight:normal;font-size:22.25366592px;font-family:'CMU Serif Extra';-inkscape-font-specification:CMUSerif-RomanSlanted;writing-mode:lr-tb;fill:#000000;fill-opacity:1;fill-rule:nonzero;stroke:none"
                                   id="text1419"><tspan
                                   x="0"
                                   y="0"
                                   id="tspan1417"></tspan></text>
</g></g></g></g></g></g><g
                         id="g1447"><g
                           clip-path="url(#clipPath1251)"
                           id="g1445"><g
                             id="g1443"><g
                               id="g1441"><g
                                 clip-path="url(#clipPath1255)"
                                 id="g1439"><g
                                   id="g1437"><text
                                   transform="translate(475.14795,29.586773)"
                                   style="font-style:italic;font-variant:normal;font-weight:normal;font-size:22.25366592px;font-family:'CMU Serif Extra';-inkscape-font-specification:CMUSerif-RomanSlanted;writing-mode:lr-tb;fill:#000000;fill-opacity:1;fill-rule:nonzero;stroke:none"
                                   id="text1435"><tspan
                                   x="0"
                                   y="0"
                                   id="tspan1433"></tspan></text>
</g></g></g></g></g></g><g
                         id="g1463"><g
                           clip-path="url(#clipPath1259)"
                           id="g1461"><g
                             id="g1459"><g
                               id="g1457"><g
                                 clip-path="url(#clipPath1263)"
                                 id="g1455"><g
                                   id="g1453"><text
                                   transform="translate(170.40946,111.2775)"
                                   style="font-variant:normal;font-weight:normal;font-size:22.25366592px;font-family:'CMU Serif';-inkscape-font-specification:CMUSerif-Roman;writing-mode:lr-tb;fill:#000000;fill-opacity:1;fill-rule:nonzero;stroke:none"
                                   id="text1451"><tspan
                                   x="0"
                                   y="0"
                                   id="tspan1449">S</tspan></text>
</g></g></g></g></g></g><g
                         id="g1509"><g
                           clip-path="url(#clipPath1267)"
                           id="g1507"><g
                             id="g1475"><g
                               id="g1473"><g
                                 clip-path="url(#clipPath1271)"
                                 id="g1471"><g
                                   id="g1469"><text
                                   transform="translate(381.11666,111.60338)"
                                   style="font-variant:normal;font-weight:normal;font-size:22.25366592px;font-family:'CMU Serif';-inkscape-font-specification:CMUSerif-Roman;writing-mode:lr-tb;fill:#000000;fill-opacity:1;fill-rule:nonzero;stroke:none"
                                   id="text1467"><tspan
                                   x="0"
                                   y="0"
                                   id="tspan1465">I</tspan></text>
</g></g></g></g><g
                             id="g1487"><g
                               id="g1485"><g
                                 clip-path="url(#clipPath1275)"
                                 id="g1483"><g
                                   id="g1481"><text
                                   transform="translate(579.71151,111.14248)"
                                   style="font-variant:normal;font-weight:normal;font-size:22.25366592px;font-family:'CMU Serif';-inkscape-font-specification:CMUSerif-Roman;writing-mode:lr-tb;fill:#000000;fill-opacity:1;fill-rule:nonzero;stroke:none"
                                   id="text1479"><tspan
                                   x="0"
                                   y="0"
                                   id="tspan1477">R</tspan></text>
</g></g></g></g><g
                             id="g1505"><g
                               id="g1489" /><g
                               id="g1503"><g
                                 clip-path="url(#clipPath1279)"
                                 id="g1501"
                                 style="opacity:0.97000002"><g
                                   id="g1499"><g
                                   id="g1493"><path
                                   d="M 457.418,44.074 H 505.41"
                                   style="fill:none;stroke:#000000;stroke-width:0.84108299;stroke-linecap:butt;stroke-linejoin:miter;stroke-miterlimit:4;stroke-dasharray:none;stroke-opacity:1"
                                   id="path1491"
                                   inkscape:connector-curvature="0" /></g><g
                                   transform="scale(-1)"
                                   id="g1497"><path
                                   d="m -496.418,-40.344 -10.109,-3.715 10.109,-3.718 c -1.617,2.195 -1.605,5.195 0,7.433 z"
                                   style="fill:#000000;fill-opacity:1;fill-rule:evenodd;stroke:#000000;stroke-width:0.57824498;stroke-linecap:butt;stroke-linejoin:round;stroke-miterlimit:4;stroke-dasharray:none;stroke-opacity:1"
                                   id="path1495"
                                   inkscape:connector-curvature="0" /></g></g></g></g></g></g></g></g></g></g></g></g></g></g></g></g></g></svg>