<?xml version="1.0" encoding="UTF-8" standalone="no"?>
<!-- Created with Inkscape (http://www.inkscape.org/) -->

<svg
   xmlns:dc="http://purl.org/dc/elements/1.1/"
   xmlns:cc="http://creativecommons.org/ns#"
   xmlns:rdf="http://www.w3.org/1999/02/22-rdf-syntax-ns#"
   xmlns:svg="http://www.w3.org/2000/svg"
   xmlns="http://www.w3.org/2000/svg"
   xmlns:sodipodi="http://sodipodi.sourceforge.net/DTD/sodipodi-0.dtd"
   xmlns:inkscape="http://www.inkscape.org/namespaces/inkscape"
   sodipodi:docname="subplot3.svg"
   viewBox="0 0 470.66666 384"
   height="384"
   width="470.66666"
   xml:space="preserve"
   id="svg29"
   version="1.1"
   inkscape:version="0.92.3 (2405546, 2018-03-11)"><sodipodi:namedview
     inkscape:current-layer="svg29"
     inkscape:window-maximized="1"
     inkscape:window-y="0"
     inkscape:window-x="0"
     inkscape:cy="192"
     inkscape:cx="235.33333"
     inkscape:zoom="1.6588542"
     showgrid="false"
     id="namedview31"
     inkscape:window-height="837"
     inkscape:window-width="1600"
     inkscape:pageshadow="2"
     inkscape:pageopacity="0"
     guidetolerance="10"
     gridtolerance="10"
     objecttolerance="10"
     borderopacity="1"
     bordercolor="#666666"
     pagecolor="#ffffff" /><metadata
     id="metadata35"><rdf:RDF><cc:Work
         rdf:about=""><dc:format>image/svg+xml</dc:format><dc:type
           rdf:resource="http://purl.org/dc/dcmitype/StillImage" /><dc:title></dc:title></cc:Work></rdf:RDF></metadata><defs
     id="defs33" /><g
     id="g37"
     inkscape:groupmode="layer"
     inkscape:label="subplot3"
     transform="matrix(1.3333333,0,0,-1.3333333,0,384)"><g
       id="g39"
       transform="matrix(0.125,0,0,-0.125,0,288)"><g
         id="g41"
         transform="matrix(6,0,0,6,-284.3996,-188.99878)"><path
           d="M 74,371 H 516 V 32 H 74 Z"
           style="fill:#ffffff;fill-opacity:1;fill-rule:nonzero;stroke:none"
           id="path43"
           inkscape:connector-curvature="0" /></g><g
         id="g45"
         transform="matrix(6,0,0,6,-284.3996,-188.99878)"><path
           d="M 74,371 V 32"
           style="fill:none;stroke:#262626;stroke-width:0.66666698;stroke-linecap:butt;stroke-linejoin:round;stroke-miterlimit:10;stroke-dasharray:none;stroke-opacity:0.14901961"
           id="path47"
           inkscape:connector-curvature="0" /></g><g
         id="g49"
         transform="matrix(6,0,0,6,-284.3996,-188.99878)"><path
           d="M 184.5,371 V 32"
           style="fill:none;stroke:#262626;stroke-width:0.66666698;stroke-linecap:butt;stroke-linejoin:round;stroke-miterlimit:10;stroke-dasharray:none;stroke-opacity:0.14901961"
           id="path51"
           inkscape:connector-curvature="0" /></g><g
         id="g53"
         transform="matrix(6,0,0,6,-284.3996,-188.99878)"><path
           d="M 295,371 V 32"
           style="fill:none;stroke:#262626;stroke-width:0.66666698;stroke-linecap:butt;stroke-linejoin:round;stroke-miterlimit:10;stroke-dasharray:none;stroke-opacity:0.14901961"
           id="path55"
           inkscape:connector-curvature="0" /></g><g
         id="g57"
         transform="matrix(6,0,0,6,-284.3996,-188.99878)"><path
           d="M 405.5,371 V 32"
           style="fill:none;stroke:#262626;stroke-width:0.66666698;stroke-linecap:butt;stroke-linejoin:round;stroke-miterlimit:10;stroke-dasharray:none;stroke-opacity:0.14901961"
           id="path59"
           inkscape:connector-curvature="0" /></g><g
         id="g61"
         transform="matrix(6,0,0,6,-284.3996,-188.99878)"><path
           d="M 516,371 V 32"
           style="fill:none;stroke:#262626;stroke-width:0.66666698;stroke-linecap:butt;stroke-linejoin:round;stroke-miterlimit:10;stroke-dasharray:none;stroke-opacity:0.14901961"
           id="path63"
           inkscape:connector-curvature="0" /></g><g
         id="g65"
         transform="matrix(6,0,0,6,-284.3996,-188.99878)"><path
           d="M 516,371 H 74"
           style="fill:none;stroke:#262626;stroke-width:0.66666698;stroke-linecap:butt;stroke-linejoin:round;stroke-miterlimit:10;stroke-dasharray:none;stroke-opacity:0.14901961"
           id="path67"
           inkscape:connector-curvature="0" /></g><g
         id="g69"
         transform="matrix(6,0,0,6,-284.3996,-188.99878)"><path
           d="M 516,303.20001 H 74"
           style="fill:none;stroke:#262626;stroke-width:0.66666698;stroke-linecap:butt;stroke-linejoin:round;stroke-miterlimit:10;stroke-dasharray:none;stroke-opacity:0.14901961"
           id="path71"
           inkscape:connector-curvature="0" /></g><g
         id="g73"
         transform="matrix(6,0,0,6,-284.3996,-188.99878)"><path
           d="M 516,235.39999 H 74"
           style="fill:none;stroke:#262626;stroke-width:0.66666698;stroke-linecap:butt;stroke-linejoin:round;stroke-miterlimit:10;stroke-dasharray:none;stroke-opacity:0.14901961"
           id="path75"
           inkscape:connector-curvature="0" /></g><g
         id="g77"
         transform="matrix(6,0,0,6,-284.3996,-188.99878)"><path
           d="M 516,167.60001 H 74"
           style="fill:none;stroke:#262626;stroke-width:0.66666698;stroke-linecap:butt;stroke-linejoin:round;stroke-miterlimit:10;stroke-dasharray:none;stroke-opacity:0.14901961"
           id="path79"
           inkscape:connector-curvature="0" /></g><g
         id="g81"
         transform="matrix(6,0,0,6,-284.3996,-188.99878)"><path
           d="M 516,99.800003 H 74"
           style="fill:none;stroke:#262626;stroke-width:0.66666698;stroke-linecap:butt;stroke-linejoin:round;stroke-miterlimit:10;stroke-dasharray:none;stroke-opacity:0.14901961"
           id="path83"
           inkscape:connector-curvature="0" /></g><g
         id="g85"
         transform="matrix(6,0,0,6,-284.3996,-188.99878)"><path
           d="M 516,32 H 74"
           style="fill:none;stroke:#262626;stroke-width:0.66666698;stroke-linecap:butt;stroke-linejoin:round;stroke-miterlimit:10;stroke-dasharray:none;stroke-opacity:0.14901961"
           id="path87"
           inkscape:connector-curvature="0" /></g><g
         id="g89"
         transform="matrix(6,0,0,6,-284.3996,-188.99878)"><path
           d="M 74,371 H 516"
           style="fill:none;stroke:#262626;stroke-width:0.66666698;stroke-linecap:square;stroke-linejoin:round;stroke-miterlimit:10;stroke-dasharray:none;stroke-opacity:1"
           id="path91"
           inkscape:connector-curvature="0" /></g><g
         id="g93"
         transform="matrix(6,0,0,6,-284.3996,-188.99878)"><path
           d="M 74,32 H 516"
           style="fill:none;stroke:#262626;stroke-width:0.66666698;stroke-linecap:square;stroke-linejoin:round;stroke-miterlimit:10;stroke-dasharray:none;stroke-opacity:1"
           id="path95"
           inkscape:connector-curvature="0" /></g><g
         id="g97"
         transform="matrix(6,0,0,6,-284.3996,-188.99878)"><path
           d="m 74,371 v -4.42001"
           style="fill:none;stroke:#262626;stroke-width:0.66666698;stroke-linecap:square;stroke-linejoin:round;stroke-miterlimit:10;stroke-dasharray:none;stroke-opacity:1"
           id="path99"
           inkscape:connector-curvature="0" /></g><g
         id="g101"
         transform="matrix(6,0,0,6,-284.3996,-188.99878)"><path
           d="m 184.5,371 v -4.42001"
           style="fill:none;stroke:#262626;stroke-width:0.66666698;stroke-linecap:square;stroke-linejoin:round;stroke-miterlimit:10;stroke-dasharray:none;stroke-opacity:1"
           id="path103"
           inkscape:connector-curvature="0" /></g><g
         id="g105"
         transform="matrix(6,0,0,6,-284.3996,-188.99878)"><path
           d="m 295,371 v -4.42001"
           style="fill:none;stroke:#262626;stroke-width:0.66666698;stroke-linecap:square;stroke-linejoin:round;stroke-miterlimit:10;stroke-dasharray:none;stroke-opacity:1"
           id="path107"
           inkscape:connector-curvature="0" /></g><g
         id="g109"
         transform="matrix(6,0,0,6,-284.3996,-188.99878)"><path
           d="m 405.5,371 v -4.42001"
           style="fill:none;stroke:#262626;stroke-width:0.66666698;stroke-linecap:square;stroke-linejoin:round;stroke-miterlimit:10;stroke-dasharray:none;stroke-opacity:1"
           id="path111"
           inkscape:connector-curvature="0" /></g><g
         id="g113"
         transform="matrix(6,0,0,6,-284.3996,-188.99878)"><path
           d="m 516,371 v -4.42001"
           style="fill:none;stroke:#262626;stroke-width:0.66666698;stroke-linecap:square;stroke-linejoin:round;stroke-miterlimit:10;stroke-dasharray:none;stroke-opacity:1"
           id="path115"
           inkscape:connector-curvature="0" /></g><g
         id="g117"
         transform="matrix(6,0,0,6,-284.3996,-188.99878)"><path
           d="m 74,32 v 4.419994"
           style="fill:none;stroke:#262626;stroke-width:0.66666698;stroke-linecap:square;stroke-linejoin:round;stroke-miterlimit:10;stroke-dasharray:none;stroke-opacity:1"
           id="path119"
           inkscape:connector-curvature="0" /></g><g
         id="g121"
         transform="matrix(6,0,0,6,-284.3996,-188.99878)"><path
           d="m 184.5,32 v 4.419994"
           style="fill:none;stroke:#262626;stroke-width:0.66666698;stroke-linecap:square;stroke-linejoin:round;stroke-miterlimit:10;stroke-dasharray:none;stroke-opacity:1"
           id="path123"
           inkscape:connector-curvature="0" /></g><g
         id="g125"
         transform="matrix(6,0,0,6,-284.3996,-188.99878)"><path
           d="m 295,32 v 4.419994"
           style="fill:none;stroke:#262626;stroke-width:0.66666698;stroke-linecap:square;stroke-linejoin:round;stroke-miterlimit:10;stroke-dasharray:none;stroke-opacity:1"
           id="path127"
           inkscape:connector-curvature="0" /></g><g
         id="g129"
         transform="matrix(6,0,0,6,-284.3996,-188.99878)"><path
           d="m 405.5,32 v 4.419994"
           style="fill:none;stroke:#262626;stroke-width:0.66666698;stroke-linecap:square;stroke-linejoin:round;stroke-miterlimit:10;stroke-dasharray:none;stroke-opacity:1"
           id="path131"
           inkscape:connector-curvature="0" /></g><g
         id="g133"
         transform="matrix(6,0,0,6,-284.3996,-188.99878)"><path
           d="m 516,32 v 4.419994"
           style="fill:none;stroke:#262626;stroke-width:0.66666698;stroke-linecap:square;stroke-linejoin:round;stroke-miterlimit:10;stroke-dasharray:none;stroke-opacity:1"
           id="path135"
           inkscape:connector-curvature="0" /></g><g
         id="g153"><g
           id="g155"
           transform="matrix(6,0,0,6,1485.6017,2205.0012)"><text
   transform="translate(-3.564812,15.399933)"
   style="font-size:18.33300018px;-inkscape-font-specification:CM Roman;writing-mode:lr-tb;font-family:CM Roman;fill-opacity:1;fill-rule:nonzero;stroke:none;font-variant:normal;font-weight:normal;fill:#262626"
   id="text159"><tspan
     x="0"
     y="0"
     id="tspan157">t</tspan></text>


</g></g><g
         id="g161"
         transform="matrix(6,0,0,6,-284.3996,-188.99878)"><path
           d="M 74,371 V 32"
           style="fill:none;stroke:#262626;stroke-width:0.66666698;stroke-linecap:square;stroke-linejoin:round;stroke-miterlimit:10;stroke-dasharray:none;stroke-opacity:1"
           id="path163"
           inkscape:connector-curvature="0" /></g><g
         id="g165"
         transform="matrix(6,0,0,6,-284.3996,-188.99878)"><path
           d="M 516,371 V 32"
           style="fill:none;stroke:#262626;stroke-width:0.66666698;stroke-linecap:square;stroke-linejoin:round;stroke-miterlimit:10;stroke-dasharray:none;stroke-opacity:1"
           id="path167"
           inkscape:connector-curvature="0" /></g><g
         id="g169"
         transform="matrix(6,0,0,6,-284.3996,-188.99878)"><path
           d="m 74,371 h 4.419998"
           style="fill:none;stroke:#262626;stroke-width:0.66666698;stroke-linecap:square;stroke-linejoin:round;stroke-miterlimit:10;stroke-dasharray:none;stroke-opacity:1"
           id="path171"
           inkscape:connector-curvature="0" /></g><g
         id="g173"
         transform="matrix(6,0,0,6,-284.3996,-188.99878)"><path
           d="m 74,303.20001 h 4.419998"
           style="fill:none;stroke:#262626;stroke-width:0.66666698;stroke-linecap:square;stroke-linejoin:round;stroke-miterlimit:10;stroke-dasharray:none;stroke-opacity:1"
           id="path175"
           inkscape:connector-curvature="0" /></g><g
         id="g177"
         transform="matrix(6,0,0,6,-284.3996,-188.99878)"><path
           d="m 74,235.39999 h 4.419998"
           style="fill:none;stroke:#262626;stroke-width:0.66666698;stroke-linecap:square;stroke-linejoin:round;stroke-miterlimit:10;stroke-dasharray:none;stroke-opacity:1"
           id="path179"
           inkscape:connector-curvature="0" /></g><g
         id="g181"
         transform="matrix(6,0,0,6,-284.3996,-188.99878)"><path
           d="m 74,167.60001 h 4.419998"
           style="fill:none;stroke:#262626;stroke-width:0.66666698;stroke-linecap:square;stroke-linejoin:round;stroke-miterlimit:10;stroke-dasharray:none;stroke-opacity:1"
           id="path183"
           inkscape:connector-curvature="0" /></g><g
         id="g185"
         transform="matrix(6,0,0,6,-284.3996,-188.99878)"><path
           d="m 74,99.800003 h 4.419998"
           style="fill:none;stroke:#262626;stroke-width:0.66666698;stroke-linecap:square;stroke-linejoin:round;stroke-miterlimit:10;stroke-dasharray:none;stroke-opacity:1"
           id="path187"
           inkscape:connector-curvature="0" /></g><g
         id="g189"
         transform="matrix(6,0,0,6,-284.3996,-188.99878)"><path
           d="m 74,32 h 4.419998"
           style="fill:none;stroke:#262626;stroke-width:0.66666698;stroke-linecap:square;stroke-linejoin:round;stroke-miterlimit:10;stroke-dasharray:none;stroke-opacity:1"
           id="path191"
           inkscape:connector-curvature="0" /></g><g
         id="g193"
         transform="matrix(6,0,0,6,-284.3996,-188.99878)"><path
           d="m 516,371 h -4.42001"
           style="fill:none;stroke:#262626;stroke-width:0.66666698;stroke-linecap:square;stroke-linejoin:round;stroke-miterlimit:10;stroke-dasharray:none;stroke-opacity:1"
           id="path195"
           inkscape:connector-curvature="0" /></g><g
         id="g197"
         transform="matrix(6,0,0,6,-284.3996,-188.99878)"><path
           d="m 516,303.20001 h -4.42001"
           style="fill:none;stroke:#262626;stroke-width:0.66666698;stroke-linecap:square;stroke-linejoin:round;stroke-miterlimit:10;stroke-dasharray:none;stroke-opacity:1"
           id="path199"
           inkscape:connector-curvature="0" /></g><g
         id="g201"
         transform="matrix(6,0,0,6,-284.3996,-188.99878)"><path
           d="m 516,235.39999 h -4.42001"
           style="fill:none;stroke:#262626;stroke-width:0.66666698;stroke-linecap:square;stroke-linejoin:round;stroke-miterlimit:10;stroke-dasharray:none;stroke-opacity:1"
           id="path203"
           inkscape:connector-curvature="0" /></g><g
         id="g205"
         transform="matrix(6,0,0,6,-284.3996,-188.99878)"><path
           d="m 516,167.60001 h -4.42001"
           style="fill:none;stroke:#262626;stroke-width:0.66666698;stroke-linecap:square;stroke-linejoin:round;stroke-miterlimit:10;stroke-dasharray:none;stroke-opacity:1"
           id="path207"
           inkscape:connector-curvature="0" /></g><g
         id="g209"
         transform="matrix(6,0,0,6,-284.3996,-188.99878)"><path
           d="m 516,99.800003 h -4.42001"
           style="fill:none;stroke:#262626;stroke-width:0.66666698;stroke-linecap:square;stroke-linejoin:round;stroke-miterlimit:10;stroke-dasharray:none;stroke-opacity:1"
           id="path211"
           inkscape:connector-curvature="0" /></g><g
         id="g213"
         transform="matrix(6,0,0,6,-284.3996,-188.99878)"><path
           d="m 516,32 h -4.42001"
           style="fill:none;stroke:#262626;stroke-width:0.66666698;stroke-linecap:square;stroke-linejoin:round;stroke-miterlimit:10;stroke-dasharray:none;stroke-opacity:1"
           id="path215"
           inkscape:connector-curvature="0" /></g><g
         id="g217"><g
           id="g219"
           transform="matrix(-2.6e-7,-6,6,-2.6e-7,123.6004,1020.0003)"><text
   transform="translate(-42.013985,-6.600067)"
   style="font-size:18.33300018px;-inkscape-font-specification:CM Roman;writing-mode:lr-tb;font-family:CM Roman;fill-opacity:1;fill-rule:nonzero;stroke:none;font-variant:normal;font-weight:normal;fill:#262626"
   id="text223"><tspan
     x="0"
     y="0"
     id="tspan221">I</tspan></text>


</g></g><g
         id="g225"><g
           id="g227"
           transform="matrix(-2.6e-7,-6,6,-2.6e-7,123.6004,1020.0003)"><text
   transform="translate(-35.393608,-6.600067)"
   style="font-size:18.33300018px;-inkscape-font-specification:CM Roman;writing-mode:lr-tb;font-family:CM Roman;fill-opacity:1;fill-rule:nonzero;stroke:none;font-variant:normal;font-weight:normal;fill:#262626"
   id="text231"><tspan
     x="0"
     y="0"
     id="tspan229">n</tspan></text>


</g></g><g
         id="g233"><g
           id="g235"
           transform="matrix(-2.6e-7,-6,6,-2.6e-7,123.6004,1020.0003)"><text
   transform="translate(-25.208389,-6.600067)"
   style="font-size:18.33300018px;-inkscape-font-specification:CM Roman;writing-mode:lr-tb;font-family:CM Roman;fill-opacity:1;fill-rule:nonzero;stroke:none;font-variant:normal;font-weight:normal;fill:#262626"
   id="text239"><tspan
     x="0"
     y="0"
     id="tspan237">f</tspan></text>


</g></g><g
         id="g241"><g
           id="g243"
           transform="matrix(-2.6e-7,-6,6,-2.6e-7,123.6004,1020.0003)"><text
   transform="translate(-19.606506,-6.600067)"
   style="font-size:18.33300018px;-inkscape-font-specification:CM Roman;writing-mode:lr-tb;font-family:CM Roman;fill-opacity:1;fill-rule:nonzero;stroke:none;font-variant:normal;font-weight:normal;fill:#262626"
   id="text247"><tspan
     x="0"
     y="0"
     id="tspan245">e</tspan></text>


</g></g><g
         id="g249"><g
           id="g251"
           transform="matrix(-2.6e-7,-6,6,-2.6e-7,123.6004,1020.0003)"><text
   transform="translate(-11.458362,-6.600067)"
   style="font-size:18.33300018px;-inkscape-font-specification:CM Roman;writing-mode:lr-tb;font-family:CM Roman;fill-opacity:1;fill-rule:nonzero;stroke:none;font-variant:normal;font-weight:normal;fill:#262626"
   id="text255"><tspan
     x="0"
     y="0"
     id="tspan253">t</tspan></text>


</g></g><g
         id="g257"><g
           id="g259"
           transform="matrix(-2.6e-7,-6,6,-2.6e-7,123.6004,1020.0003)"><text
   transform="translate(-4.32871,-6.600067)"
   style="font-size:18.33300018px;-inkscape-font-specification:CM Roman;writing-mode:lr-tb;font-family:CM Roman;fill-opacity:1;fill-rule:nonzero;stroke:none;font-variant:normal;font-weight:normal;fill:#262626"
   id="text263"><tspan
     x="0"
     y="0"
     id="tspan261">t</tspan></text>


</g></g><g
         id="g265"><g
           id="g267"
           transform="matrix(-2.6e-7,-6,6,-2.6e-7,123.6004,1020.0003)"><text
   transform="translate(2.800941,-6.600067)"
   style="font-size:18.33300018px;-inkscape-font-specification:CM Roman;writing-mode:lr-tb;font-family:CM Roman;fill-opacity:1;fill-rule:nonzero;stroke:none;font-variant:normal;font-weight:normal;fill:#262626"
   id="text271"><tspan
     x="0"
     y="0"
     id="tspan269">i</tspan></text>


</g></g><g
         id="g273"><g
           id="g275"
           transform="matrix(-2.6e-7,-6,6,-2.6e-7,123.6004,1020.0003)"><text
   transform="translate(14.004652,-6.600067)"
   style="font-size:18.33300018px;-inkscape-font-specification:CM Roman;writing-mode:lr-tb;font-family:CM Roman;fill-opacity:1;fill-rule:nonzero;stroke:none;font-variant:normal;font-weight:normal;fill:#262626"
   id="text279"><tspan
     x="0"
     y="0"
     id="tspan277">I</tspan></text>


</g></g><g
         id="g281"><g
           id="g283"
           transform="matrix(-2.6e-7,-6,6,-2.6e-7,123.6004,1020.0003)"><text
   transform="translate(20.625029,-6.600067)"
   style="font-size:18.33300018px;-inkscape-font-specification:CM Roman;writing-mode:lr-tb;font-family:CM Roman;fill-opacity:1;fill-rule:nonzero;stroke:none;font-variant:normal;font-weight:normal;fill:#262626"
   id="text287"><tspan
     x="0"
     y="0"
     id="tspan285">(</tspan></text>


</g></g><g
         id="g289"><g
           id="g291"
           transform="matrix(-2.6e-7,-6,6,-2.6e-7,123.6004,1020.0003)"><text
   transform="translate(27.754681,-6.600067)"
   style="font-size:18.33300018px;-inkscape-font-specification:CM Roman;writing-mode:lr-tb;font-family:CM Roman;fill-opacity:1;fill-rule:nonzero;stroke:none;font-variant:normal;font-weight:normal;fill:#262626"
   id="text295"><tspan
     x="0"
     y="0"
     id="tspan293">t</tspan></text>


</g></g><g
         id="g297"><g
           id="g299"
           transform="matrix(-2.6e-7,-6,6,-2.6e-7,123.6004,1020.0003)"><text
   transform="translate(34.884331,-6.600067)"
   style="font-size:18.33300018px;-inkscape-font-specification:CM Roman;writing-mode:lr-tb;font-family:CM Roman;fill-opacity:1;fill-rule:nonzero;stroke:none;font-variant:normal;font-weight:normal;fill:#262626"
   id="text303"><tspan
     x="0"
     y="0"
     id="tspan301">)</tspan></text>


</g></g><g
         id="g305"
         transform="matrix(6,0,0,6,-284.3996,-188.99878)"><path
           d="m 74,303.20001 4.464645,-7.95831 4.464646,-8.51135 4.464645,-9.01599 4.464653,-9.45276 4.464646,-9.80286 4.464645,-10.04932 4.46465,-10.17819 4.46464,-10.18011 4.46465,-10.05083 4.46464,-9.79196 4.46465,-9.41072 4.46465,-8.91939 4.46465,-8.33435 4.46464,-7.67465 4.46465,-6.96073 4.46464,-6.21295 4.46465,-5.45059 4.46464,-4.69083 4.46465,-3.94832 4.46464,-3.23478 4.46465,-2.55913 4.46466,-1.92757 4.46464,-1.34388 4.46465,-0.80993 4.46465,-0.32577 4.46464,0.56341 4.46465,1.42492 4.46464,2.03988 4.46465,2.47187 4.46464,2.76959 4.46465,2.96953 4.46464,3.09875 4.46465,3.17699 4.46464,3.21858 4.46465,3.23401 4.46466,3.2307 4.46465,3.21414 4.46464,3.18818 4.46465,3.15569 4.46463,3.11864 4.46466,3.07852 4.46463,3.03639 4.46466,2.99298 4.46466,2.94887 4.46463,2.90442 4.46466,2.85994 4.46463,2.81563 4.46466,2.77162 4.46463,2.728 4.46466,2.6849 4.46463,2.64229 4.46466,2.60028 4.46463,2.55884 4.46466,2.518 4.46463,2.47777 4.46466,2.43816 4.46466,2.39914 4.46463,2.36073 4.46466,2.32292 4.46463,2.28574 4.46466,2.2491 4.46463,2.21306 4.46467,2.17759 4.46463,2.1427 4.46466,2.10836 4.46463,2.07455 4.46466,2.04131 4.46463,2.00857 4.46466,1.9764 4.46463,1.94468 4.46466,1.91353 4.46466,1.88284 4.46463,1.85268 4.46466,1.82297 4.46463,1.79373 4.46466,1.76498 4.46463,1.73667 4.46466,1.70886 4.46463,1.68146 4.46463,1.65448 4.46466,1.62796 4.46466,1.60187 4.46466,1.5762 4.4646,1.5509 4.46466,1.52606 4.46466,1.50159 4.46467,1.47754 4.46466,1.45383 4.4646,1.43051 4.46466,1.40759 4.46466,1.38501 4.46466,1.36282 4.4646,1.34098 4.46466,1.31948 4.46466,1.29831 4.46466,1.2775 4.4646,1.25702 4.46466,1.23688 4.46466,1.21704"
           style="fill:none;stroke:#0072bd;stroke-width:2;stroke-linecap:butt;stroke-linejoin:round;stroke-miterlimit:10;stroke-dasharray:none;stroke-opacity:1"
           id="path307"
           inkscape:connector-curvature="0" /></g><g
         id="g309"
         transform="matrix(6,0,0,6,-284.3996,-188.99878)"><path
           d="M 184.5,371 V 32"
           style="fill:none;stroke:#262626;stroke-width:2;stroke-linecap:butt;stroke-linejoin:bevel;stroke-miterlimit:1;stroke-dasharray:2, 2;stroke-dashoffset:0;stroke-opacity:0.70196078"
           id="path311"
           inkscape:connector-curvature="0" /></g><g
         id="g313"><g
           id="g315"
           transform="matrix(-2.6e-7,-6,6,-2.6e-7,840.6004,33.001289)"><text
   transform="translate(-74,13)"
   style="font-size:13.33300018px;-inkscape-font-specification:CM Roman;writing-mode:lr-tb;font-family:CM Roman;fill-opacity:1;fill-rule:nonzero;stroke:none;font-variant:normal;font-weight:normal;fill:#262626"
   id="text319"><tspan
     x="0 7.4131479 11.119722 14.826296 17.786222 24.452723 31.86587 38.532372 41.492294 48.905445 56.318592"
     y="0"
     sodipodi:role="line"
     id="tspan317">attivazione</tspan></text>


</g></g></g></g><g
     id="g1206"
     transform="translate(-28.935636,232.69074)"><g
       word-spacing="normal"
       letter-spacing="normal"
       font-size-adjust="none"
       font-stretch="normal"
       font-weight="normal"
       font-variant="normal"
       font-style="normal"
       stroke-miterlimit="10.433"
       xml:space="preserve"
       transform="matrix(0.54857143,0,0,-0.54857143,-96,353)"
       id="content"
       style="font-style:normal;font-variant:normal;font-weight:normal;font-stretch:normal;letter-spacing:normal;word-spacing:normal;text-anchor:start;fill:none;fill-opacity:1;fill-rule:evenodd;stroke:#000000;stroke-linecap:butt;stroke-linejoin:miter;stroke-miterlimit:10.43299961;stroke-dasharray:none;stroke-dashoffset:0;stroke-opacity:1"><path
         id="path1201"
         d="m 470.16,424.78 h 8.38 c 0.65,0 2.43,0 2.43,1.7 0,1.19 -1.04,1.19 -1.98,1.19 h -13.95 c -1,0 -2.94,0 -5.13,-2.35 -1.66,-1.78 -3.05,-4.17 -3.05,-4.48 0,-0.05 0,-0.48 0.6,-0.48 0.4,0 0.5,0.18 0.79,0.59 2.46,3.83 5.29,3.83 6.33,3.83 h 4.14 l -4.89,-15.99 c -0.19,-0.59 -0.48,-1.64 -0.48,-1.84 0,-0.55 0.34,-1.34 1.44,-1.34 1.64,0 1.89,1.39 2.04,2.14 z"
         inkscape:connector-curvature="0"
         style="fill:#000000;stroke-width:0" /><path
         id="path1203"
         d="m 494.13,432.87 0.26,0.12 0.26,0.11 0.24,0.11 0.24,0.1 0.23,0.1 0.22,0.1 0.21,0.09 0.21,0.09 0.2,0.08 0.19,0.08 0.18,0.08 0.18,0.07 0.17,0.08 0.16,0.06 0.16,0.07 0.15,0.06 0.14,0.06 0.14,0.06 0.14,0.06 0.12,0.05 0.13,0.06 0.12,0.05 0.11,0.05 0.11,0.04 0.11,0.05 0.1,0.04 0.19,0.09 0.18,0.08 0.16,0.08 c 0.68,0.27 0.99,0.41 0.99,1.08 0,0.59 -0.45,1.11 -1.08,1.11 -0.25,0 -0.31,0 -0.73,-0.31 l -4.74,-3.17 0.52,5.15 c 0.08,0.63 0,1.5 -1.05,1.5 -0.42,0 -1.08,-0.28 -1.08,-1.04 0,-0.32 0.14,-1.36 0.17,-1.71 0.08,-0.59 0.32,-3.11 0.4,-3.9 l -4.71,3.17 c -0.36,0.2 -0.45,0.31 -0.76,0.31 -0.64,0 -1.1,-0.52 -1.1,-1.11 0,-0.7 0.42,-0.87 0.74,-1.01 l 5.26,-2.19 c -2.86,-1.27 -4.14,-1.75 -5.01,-2.17 -0.66,-0.29 -0.99,-0.43 -0.99,-1.08 0,-0.6 0.46,-1.11 1.1,-1.11 0.23,0 0.31,0 0.72,0.31 l 4.75,3.17 -0.57,-5.61 c 0,-0.76 0.66,-1.04 1.08,-1.04 0.42,0 1.08,0.28 1.08,1.04 0,0.32 -0.14,1.36 -0.17,1.71 -0.07,0.59 -0.32,3.09 -0.38,3.9 l 4.17,-2.79 c 0.91,-0.69 0.99,-0.69 1.3,-0.69 0.63,0 1.08,0.51 1.08,1.11 0,0.7 -0.42,0.87 -0.74,1.01 z"
         inkscape:connector-curvature="0"
         style="fill:#000000;stroke-width:0" /></g></g></svg>