<?xml version="1.0" encoding="UTF-8" standalone="no"?>
<!-- Created with Inkscape (http://www.inkscape.org/) -->

<svg
   xmlns:dc="http://purl.org/dc/elements/1.1/"
   xmlns:cc="http://creativecommons.org/ns#"
   xmlns:rdf="http://www.w3.org/1999/02/22-rdf-syntax-ns#"
   xmlns:svg="http://www.w3.org/2000/svg"
   xmlns="http://www.w3.org/2000/svg"
   xmlns:sodipodi="http://sodipodi.sourceforge.net/DTD/sodipodi-0.dtd"
   xmlns:inkscape="http://www.inkscape.org/namespaces/inkscape"
   sodipodi:docname="subplot1.svg"
   viewBox="0 0 470.66666 384"
   height="384"
   width="470.66666"
   xml:space="preserve"
   id="svg48"
   version="1.1"
   inkscape:version="0.92.3 (2405546, 2018-03-11)"><sodipodi:namedview
     inkscape:current-layer="g56"
     inkscape:window-maximized="1"
     inkscape:window-y="0"
     inkscape:window-x="0"
     inkscape:cy="153.5428"
     inkscape:cx="-23.833134"
     inkscape:zoom="0.82942708"
     showgrid="false"
     id="namedview50"
     inkscape:window-height="837"
     inkscape:window-width="1600"
     inkscape:pageshadow="2"
     inkscape:pageopacity="0"
     guidetolerance="10"
     gridtolerance="10"
     objecttolerance="10"
     borderopacity="1"
     bordercolor="#666666"
     pagecolor="#ffffff" /><metadata
     id="metadata54"><rdf:RDF><cc:Work
         rdf:about=""><dc:format>image/svg+xml</dc:format><dc:type
           rdf:resource="http://purl.org/dc/dcmitype/StillImage" /><dc:title></dc:title></cc:Work></rdf:RDF></metadata><defs
     id="defs52" /><g
     id="g56"
     inkscape:groupmode="layer"
     inkscape:label="subplot1"
     transform="matrix(1.3333333,0,0,-1.3333333,0,384)"><g
       id="g58"
       transform="matrix(0.125,0,0,-0.125,0,288)"><g
         id="g60"
         transform="matrix(6,0,0,6,-284.3996,-188.99878)"><path
           d="M 74,371 H 516 V 32 H 74 Z"
           style="fill:#ffffff;fill-opacity:1;fill-rule:nonzero;stroke:none"
           id="path62"
           inkscape:connector-curvature="0" /></g><g
         id="g64"
         transform="matrix(6,0,0,6,-284.3996,-188.99878)"><path
           d="M 74,371 V 32"
           style="fill:none;stroke:#262626;stroke-width:0.66666698;stroke-linecap:butt;stroke-linejoin:round;stroke-miterlimit:10;stroke-dasharray:none;stroke-opacity:0.14901961"
           id="path66"
           inkscape:connector-curvature="0" /></g><g
         id="g68"
         transform="matrix(6,0,0,6,-284.3996,-188.99878)"><path
           d="M 184.5,371 V 32"
           style="fill:none;stroke:#262626;stroke-width:0.66666698;stroke-linecap:butt;stroke-linejoin:round;stroke-miterlimit:10;stroke-dasharray:none;stroke-opacity:0.14901961"
           id="path70"
           inkscape:connector-curvature="0" /></g><g
         id="g72"
         transform="matrix(6,0,0,6,-284.3996,-188.99878)"><path
           d="M 295,371 V 32"
           style="fill:none;stroke:#262626;stroke-width:0.66666698;stroke-linecap:butt;stroke-linejoin:round;stroke-miterlimit:10;stroke-dasharray:none;stroke-opacity:0.14901961"
           id="path74"
           inkscape:connector-curvature="0" /></g><g
         id="g76"
         transform="matrix(6,0,0,6,-284.3996,-188.99878)"><path
           d="M 405.5,371 V 32"
           style="fill:none;stroke:#262626;stroke-width:0.66666698;stroke-linecap:butt;stroke-linejoin:round;stroke-miterlimit:10;stroke-dasharray:none;stroke-opacity:0.14901961"
           id="path78"
           inkscape:connector-curvature="0" /></g><g
         id="g80"
         transform="matrix(6,0,0,6,-284.3996,-188.99878)"><path
           d="M 516,371 V 32"
           style="fill:none;stroke:#262626;stroke-width:0.66666698;stroke-linecap:butt;stroke-linejoin:round;stroke-miterlimit:10;stroke-dasharray:none;stroke-opacity:0.14901961"
           id="path82"
           inkscape:connector-curvature="0" /></g><g
         id="g84"
         transform="matrix(6,0,0,6,-284.3996,-188.99878)"><path
           d="M 516,371 H 74"
           style="fill:none;stroke:#262626;stroke-width:0.66666698;stroke-linecap:butt;stroke-linejoin:round;stroke-miterlimit:10;stroke-dasharray:none;stroke-opacity:0.14901961"
           id="path86"
           inkscape:connector-curvature="0" /></g><g
         id="g88"
         transform="matrix(6,0,0,6,-284.3996,-188.99878)"><path
           d="M 516,303.20001 H 74"
           style="fill:none;stroke:#262626;stroke-width:0.66666698;stroke-linecap:butt;stroke-linejoin:round;stroke-miterlimit:10;stroke-dasharray:none;stroke-opacity:0.14901961"
           id="path90"
           inkscape:connector-curvature="0" /></g><g
         id="g92"
         transform="matrix(6,0,0,6,-284.3996,-188.99878)"><path
           d="M 516,235.39999 H 74"
           style="fill:none;stroke:#262626;stroke-width:0.66666698;stroke-linecap:butt;stroke-linejoin:round;stroke-miterlimit:10;stroke-dasharray:none;stroke-opacity:0.14901961"
           id="path94"
           inkscape:connector-curvature="0" /></g><g
         id="g96"
         transform="matrix(6,0,0,6,-284.3996,-188.99878)"><path
           d="M 516,167.60001 H 74"
           style="fill:none;stroke:#262626;stroke-width:0.66666698;stroke-linecap:butt;stroke-linejoin:round;stroke-miterlimit:10;stroke-dasharray:none;stroke-opacity:0.14901961"
           id="path98"
           inkscape:connector-curvature="0" /></g><g
         id="g100"
         transform="matrix(6,0,0,6,-284.3996,-188.99878)"><path
           d="M 516,99.800003 H 74"
           style="fill:none;stroke:#262626;stroke-width:0.66666698;stroke-linecap:butt;stroke-linejoin:round;stroke-miterlimit:10;stroke-dasharray:none;stroke-opacity:0.14901961"
           id="path102"
           inkscape:connector-curvature="0" /></g><g
         id="g104"
         transform="matrix(6,0,0,6,-284.3996,-188.99878)"><path
           d="M 516,32 H 74"
           style="fill:none;stroke:#262626;stroke-width:0.66666698;stroke-linecap:butt;stroke-linejoin:round;stroke-miterlimit:10;stroke-dasharray:none;stroke-opacity:0.14901961"
           id="path106"
           inkscape:connector-curvature="0" /></g><g
         id="g108"
         transform="matrix(6,0,0,6,-284.3996,-188.99878)"><path
           d="M 74,371 H 516"
           style="fill:none;stroke:#262626;stroke-width:0.66666698;stroke-linecap:square;stroke-linejoin:round;stroke-miterlimit:10;stroke-dasharray:none;stroke-opacity:1"
           id="path110"
           inkscape:connector-curvature="0" /></g><g
         id="g112"
         transform="matrix(6,0,0,6,-284.3996,-188.99878)"><path
           d="M 74,32 H 516"
           style="fill:none;stroke:#262626;stroke-width:0.66666698;stroke-linecap:square;stroke-linejoin:round;stroke-miterlimit:10;stroke-dasharray:none;stroke-opacity:1"
           id="path114"
           inkscape:connector-curvature="0" /></g><g
         id="g116"
         transform="matrix(6,0,0,6,-284.3996,-188.99878)"><path
           d="m 74,371 v -4.42001"
           style="fill:none;stroke:#262626;stroke-width:0.66666698;stroke-linecap:square;stroke-linejoin:round;stroke-miterlimit:10;stroke-dasharray:none;stroke-opacity:1"
           id="path118"
           inkscape:connector-curvature="0" /></g><g
         id="g120"
         transform="matrix(6,0,0,6,-284.3996,-188.99878)"><path
           d="m 184.5,371 v -4.42001"
           style="fill:none;stroke:#262626;stroke-width:0.66666698;stroke-linecap:square;stroke-linejoin:round;stroke-miterlimit:10;stroke-dasharray:none;stroke-opacity:1"
           id="path122"
           inkscape:connector-curvature="0" /></g><g
         id="g124"
         transform="matrix(6,0,0,6,-284.3996,-188.99878)"><path
           d="m 295,371 v -4.42001"
           style="fill:none;stroke:#262626;stroke-width:0.66666698;stroke-linecap:square;stroke-linejoin:round;stroke-miterlimit:10;stroke-dasharray:none;stroke-opacity:1"
           id="path126"
           inkscape:connector-curvature="0" /></g><g
         id="g128"
         transform="matrix(6,0,0,6,-284.3996,-188.99878)"><path
           d="m 405.5,371 v -4.42001"
           style="fill:none;stroke:#262626;stroke-width:0.66666698;stroke-linecap:square;stroke-linejoin:round;stroke-miterlimit:10;stroke-dasharray:none;stroke-opacity:1"
           id="path130"
           inkscape:connector-curvature="0" /></g><g
         id="g132"
         transform="matrix(6,0,0,6,-284.3996,-188.99878)"><path
           d="m 516,371 v -4.42001"
           style="fill:none;stroke:#262626;stroke-width:0.66666698;stroke-linecap:square;stroke-linejoin:round;stroke-miterlimit:10;stroke-dasharray:none;stroke-opacity:1"
           id="path134"
           inkscape:connector-curvature="0" /></g><g
         id="g136"
         transform="matrix(6,0,0,6,-284.3996,-188.99878)"><path
           d="m 74,32 v 4.419994"
           style="fill:none;stroke:#262626;stroke-width:0.66666698;stroke-linecap:square;stroke-linejoin:round;stroke-miterlimit:10;stroke-dasharray:none;stroke-opacity:1"
           id="path138"
           inkscape:connector-curvature="0" /></g><g
         id="g140"
         transform="matrix(6,0,0,6,-284.3996,-188.99878)"><path
           d="m 184.5,32 v 4.419994"
           style="fill:none;stroke:#262626;stroke-width:0.66666698;stroke-linecap:square;stroke-linejoin:round;stroke-miterlimit:10;stroke-dasharray:none;stroke-opacity:1"
           id="path142"
           inkscape:connector-curvature="0" /></g><g
         id="g144"
         transform="matrix(6,0,0,6,-284.3996,-188.99878)"><path
           d="m 295,32 v 4.419994"
           style="fill:none;stroke:#262626;stroke-width:0.66666698;stroke-linecap:square;stroke-linejoin:round;stroke-miterlimit:10;stroke-dasharray:none;stroke-opacity:1"
           id="path146"
           inkscape:connector-curvature="0" /></g><g
         id="g148"
         transform="matrix(6,0,0,6,-284.3996,-188.99878)"><path
           d="m 405.5,32 v 4.419994"
           style="fill:none;stroke:#262626;stroke-width:0.66666698;stroke-linecap:square;stroke-linejoin:round;stroke-miterlimit:10;stroke-dasharray:none;stroke-opacity:1"
           id="path150"
           inkscape:connector-curvature="0" /></g><g
         id="g152"
         transform="matrix(6,0,0,6,-284.3996,-188.99878)"><path
           d="m 516,32 v 4.419994"
           style="fill:none;stroke:#262626;stroke-width:0.66666698;stroke-linecap:square;stroke-linejoin:round;stroke-miterlimit:10;stroke-dasharray:none;stroke-opacity:1"
           id="path154"
           inkscape:connector-curvature="0" /></g><g
         id="g156"><g
           id="g158"
           transform="matrix(6,0,0,6,159.6004,2073.0012)"><text
   transform="translate(-7.919566,13.99994)"
   style="font-variant:normal;font-weight:normal;font-size:16.66699982px;font-family:'CM Roman';-inkscape-font-specification:'CM Roman';writing-mode:lr-tb;fill:#262626;fill-opacity:1;fill-rule:nonzero;stroke:none"
   id="text162"><tspan
     x="0"
     y="0"
     id="tspan160" /></text>


</g></g><g
         id="g164"><g
           id="g166"
           transform="matrix(6,0,0,6,159.6004,2073.0012)"><text
   transform="translate(1.252899,7.951737)"
   style="font-variant:normal;font-weight:normal;font-size:11.66699982px;font-family:'CM Roman';-inkscape-font-specification:'CM Roman';writing-mode:lr-tb;fill:#262626;fill-opacity:1;fill-rule:nonzero;stroke:none"
   id="text170"><tspan
     x="0"
     y="0"
     id="tspan168" /></text>


</g></g><g
         id="g172"><g
           id="g174"
           transform="matrix(6,0,0,6,1485.6017,2205.0012)"><text
   transform="translate(-3.564812,15.399933)"
   style="font-size:18.33300018px;-inkscape-font-specification:CM Roman;writing-mode:lr-tb;font-family:CM Roman;fill-opacity:1;fill-rule:nonzero;stroke:none;font-variant:normal;font-weight:normal;fill:#262626"
   id="text178"><tspan
     x="0"
     y="0"
     id="tspan176">t</tspan></text>


</g></g><g
         id="g180"
         transform="matrix(6,0,0,6,-284.3996,-188.99878)"><path
           d="M 74,371 V 32"
           style="fill:none;stroke:#262626;stroke-width:0.66666698;stroke-linecap:square;stroke-linejoin:round;stroke-miterlimit:10;stroke-dasharray:none;stroke-opacity:1"
           id="path182"
           inkscape:connector-curvature="0" /></g><g
         id="g184"
         transform="matrix(6,0,0,6,-284.3996,-188.99878)"><path
           d="M 516,371 V 32"
           style="fill:none;stroke:#262626;stroke-width:0.66666698;stroke-linecap:square;stroke-linejoin:round;stroke-miterlimit:10;stroke-dasharray:none;stroke-opacity:1"
           id="path186"
           inkscape:connector-curvature="0" /></g><g
         id="g188"
         transform="matrix(6,0,0,6,-284.3996,-188.99878)"><path
           d="m 74,371 h 4.419998"
           style="fill:none;stroke:#262626;stroke-width:0.66666698;stroke-linecap:square;stroke-linejoin:round;stroke-miterlimit:10;stroke-dasharray:none;stroke-opacity:1"
           id="path190"
           inkscape:connector-curvature="0" /></g><g
         id="g192"
         transform="matrix(6,0,0,6,-284.3996,-188.99878)"><path
           d="m 74,303.20001 h 4.419998"
           style="fill:none;stroke:#262626;stroke-width:0.66666698;stroke-linecap:square;stroke-linejoin:round;stroke-miterlimit:10;stroke-dasharray:none;stroke-opacity:1"
           id="path194"
           inkscape:connector-curvature="0" /></g><g
         id="g196"
         transform="matrix(6,0,0,6,-284.3996,-188.99878)"><path
           d="m 74,235.39999 h 4.419998"
           style="fill:none;stroke:#262626;stroke-width:0.66666698;stroke-linecap:square;stroke-linejoin:round;stroke-miterlimit:10;stroke-dasharray:none;stroke-opacity:1"
           id="path198"
           inkscape:connector-curvature="0" /></g><g
         id="g200"
         transform="matrix(6,0,0,6,-284.3996,-188.99878)"><path
           d="m 74,167.60001 h 4.419998"
           style="fill:none;stroke:#262626;stroke-width:0.66666698;stroke-linecap:square;stroke-linejoin:round;stroke-miterlimit:10;stroke-dasharray:none;stroke-opacity:1"
           id="path202"
           inkscape:connector-curvature="0" /></g><g
         id="g204"
         transform="matrix(6,0,0,6,-284.3996,-188.99878)"><path
           d="m 74,99.800003 h 4.419998"
           style="fill:none;stroke:#262626;stroke-width:0.66666698;stroke-linecap:square;stroke-linejoin:round;stroke-miterlimit:10;stroke-dasharray:none;stroke-opacity:1"
           id="path206"
           inkscape:connector-curvature="0" /></g><g
         id="g208"
         transform="matrix(6,0,0,6,-284.3996,-188.99878)"><path
           d="m 74,32 h 4.419998"
           style="fill:none;stroke:#262626;stroke-width:0.66666698;stroke-linecap:square;stroke-linejoin:round;stroke-miterlimit:10;stroke-dasharray:none;stroke-opacity:1"
           id="path210"
           inkscape:connector-curvature="0" /></g><g
         id="g212"
         transform="matrix(6,0,0,6,-284.3996,-188.99878)"><path
           d="m 516,371 h -4.42001"
           style="fill:none;stroke:#262626;stroke-width:0.66666698;stroke-linecap:square;stroke-linejoin:round;stroke-miterlimit:10;stroke-dasharray:none;stroke-opacity:1"
           id="path214"
           inkscape:connector-curvature="0" /></g><g
         id="g216"
         transform="matrix(6,0,0,6,-284.3996,-188.99878)"><path
           d="m 516,303.20001 h -4.42001"
           style="fill:none;stroke:#262626;stroke-width:0.66666698;stroke-linecap:square;stroke-linejoin:round;stroke-miterlimit:10;stroke-dasharray:none;stroke-opacity:1"
           id="path218"
           inkscape:connector-curvature="0" /></g><g
         id="g220"
         transform="matrix(6,0,0,6,-284.3996,-188.99878)"><path
           d="m 516,235.39999 h -4.42001"
           style="fill:none;stroke:#262626;stroke-width:0.66666698;stroke-linecap:square;stroke-linejoin:round;stroke-miterlimit:10;stroke-dasharray:none;stroke-opacity:1"
           id="path222"
           inkscape:connector-curvature="0" /></g><g
         id="g224"
         transform="matrix(6,0,0,6,-284.3996,-188.99878)"><path
           d="m 516,167.60001 h -4.42001"
           style="fill:none;stroke:#262626;stroke-width:0.66666698;stroke-linecap:square;stroke-linejoin:round;stroke-miterlimit:10;stroke-dasharray:none;stroke-opacity:1"
           id="path226"
           inkscape:connector-curvature="0" /></g><g
         id="g228"
         transform="matrix(6,0,0,6,-284.3996,-188.99878)"><path
           d="m 516,99.800003 h -4.42001"
           style="fill:none;stroke:#262626;stroke-width:0.66666698;stroke-linecap:square;stroke-linejoin:round;stroke-miterlimit:10;stroke-dasharray:none;stroke-opacity:1"
           id="path230"
           inkscape:connector-curvature="0" /></g><g
         id="g232"
         transform="matrix(6,0,0,6,-284.3996,-188.99878)"><path
           d="m 516,32 h -4.42001"
           style="fill:none;stroke:#262626;stroke-width:0.66666698;stroke-linecap:square;stroke-linejoin:round;stroke-miterlimit:10;stroke-dasharray:none;stroke-opacity:1"
           id="path234"
           inkscape:connector-curvature="0" /></g><g
         id="g236"><g
           id="g238"
           transform="matrix(-2.6e-7,-6,6,-2.6e-7,123.6004,1020.0003)"><text
   transform="translate(-42.013985,-6.600067)"
   style="font-size:18.33300018px;-inkscape-font-specification:CM Roman;writing-mode:lr-tb;font-family:CM Roman;fill-opacity:1;fill-rule:nonzero;stroke:none;font-variant:normal;font-weight:normal;fill:#262626"
   id="text242"><tspan
     x="0"
     y="0"
     id="tspan240">I</tspan></text>


</g></g><g
         id="g244"><g
           id="g246"
           transform="matrix(-2.6e-7,-6,6,-2.6e-7,123.6004,1020.0003)"><text
   transform="translate(-35.393608,-6.600067)"
   style="font-size:18.33300018px;-inkscape-font-specification:CM Roman;writing-mode:lr-tb;font-family:CM Roman;fill-opacity:1;fill-rule:nonzero;stroke:none;font-variant:normal;font-weight:normal;fill:#262626"
   id="text250"><tspan
     x="0"
     y="0"
     id="tspan248">n</tspan></text>


</g></g><g
         id="g252"><g
           id="g254"
           transform="matrix(-2.6e-7,-6,6,-2.6e-7,123.6004,1020.0003)"><text
   transform="translate(-25.208389,-6.600067)"
   style="font-size:18.33300018px;-inkscape-font-specification:CM Roman;writing-mode:lr-tb;font-family:CM Roman;fill-opacity:1;fill-rule:nonzero;stroke:none;font-variant:normal;font-weight:normal;fill:#262626"
   id="text258"><tspan
     x="0"
     y="0"
     id="tspan256">f</tspan></text>


</g></g><g
         id="g260"><g
           id="g262"
           transform="matrix(-2.6e-7,-6,6,-2.6e-7,123.6004,1020.0003)"><text
   transform="translate(-19.606506,-6.600067)"
   style="font-size:18.33300018px;-inkscape-font-specification:CM Roman;writing-mode:lr-tb;font-family:CM Roman;fill-opacity:1;fill-rule:nonzero;stroke:none;font-variant:normal;font-weight:normal;fill:#262626"
   id="text266"><tspan
     x="0"
     y="0"
     id="tspan264">e</tspan></text>


</g></g><g
         id="g268"><g
           id="g270"
           transform="matrix(-2.6e-7,-6,6,-2.6e-7,123.6004,1020.0003)"><text
   transform="translate(-11.458362,-6.600067)"
   style="font-size:18.33300018px;-inkscape-font-specification:CM Roman;writing-mode:lr-tb;font-family:CM Roman;fill-opacity:1;fill-rule:nonzero;stroke:none;font-variant:normal;font-weight:normal;fill:#262626"
   id="text274"><tspan
     x="0"
     y="0"
     id="tspan272">t</tspan></text>


</g></g><g
         id="g276"><g
           id="g278"
           transform="matrix(-2.6e-7,-6,6,-2.6e-7,123.6004,1020.0003)"><text
   transform="translate(-4.32871,-6.600067)"
   style="font-size:18.33300018px;-inkscape-font-specification:CM Roman;writing-mode:lr-tb;font-family:CM Roman;fill-opacity:1;fill-rule:nonzero;stroke:none;font-variant:normal;font-weight:normal;fill:#262626"
   id="text282"><tspan
     x="0"
     y="0"
     id="tspan280">t</tspan></text>


</g></g><g
         id="g284"><g
           id="g286"
           transform="matrix(-2.6e-7,-6,6,-2.6e-7,123.6004,1020.0003)"><text
   transform="translate(2.800941,-6.600067)"
   style="font-size:18.33300018px;-inkscape-font-specification:CM Roman;writing-mode:lr-tb;font-family:CM Roman;fill-opacity:1;fill-rule:nonzero;stroke:none;font-variant:normal;font-weight:normal;fill:#262626"
   id="text290"><tspan
     x="0"
     y="0"
     id="tspan288">i</tspan></text>


</g></g><g
         id="g292"><g
           id="g294"
           transform="matrix(-2.6e-7,-6,6,-2.6e-7,123.6004,1020.0003)"><text
   transform="translate(14.004652,-6.600067)"
   style="font-size:18.33300018px;-inkscape-font-specification:CM Roman;writing-mode:lr-tb;font-family:CM Roman;fill-opacity:1;fill-rule:nonzero;stroke:none;font-variant:normal;font-weight:normal;fill:#262626"
   id="text298"><tspan
     x="0"
     y="0"
     id="tspan296">I</tspan></text>


</g></g><g
         id="g300"><g
           id="g302"
           transform="matrix(-2.6e-7,-6,6,-2.6e-7,123.6004,1020.0003)"><text
   transform="translate(20.625029,-6.600067)"
   style="font-size:18.33300018px;-inkscape-font-specification:CM Roman;writing-mode:lr-tb;font-family:CM Roman;fill-opacity:1;fill-rule:nonzero;stroke:none;font-variant:normal;font-weight:normal;fill:#262626"
   id="text306"><tspan
     x="0"
     y="0"
     id="tspan304">(</tspan></text>


</g></g><g
         id="g308"><g
           id="g310"
           transform="matrix(-2.6e-7,-6,6,-2.6e-7,123.6004,1020.0003)"><text
   transform="translate(27.754681,-6.600067)"
   style="font-size:18.33300018px;-inkscape-font-specification:CM Roman;writing-mode:lr-tb;font-family:CM Roman;fill-opacity:1;fill-rule:nonzero;stroke:none;font-variant:normal;font-weight:normal;fill:#262626"
   id="text314"><tspan
     x="0"
     y="0"
     id="tspan312">t</tspan></text>


</g></g><g
         id="g316"><g
           id="g318"
           transform="matrix(-2.6e-7,-6,6,-2.6e-7,123.6004,1020.0003)"><text
   transform="translate(34.884331,-6.600067)"
   style="font-size:18.33300018px;-inkscape-font-specification:CM Roman;writing-mode:lr-tb;font-family:CM Roman;fill-opacity:1;fill-rule:nonzero;stroke:none;font-variant:normal;font-weight:normal;fill:#262626"
   id="text322"><tspan
     x="0"
     y="0"
     id="tspan320">)</tspan></text>


</g></g><g
         id="g324"
         transform="matrix(6,0,0,6,-284.3996,-188.99878)"><path
           d="m 74,303.20001 4.464645,-7.05789 4.464646,-5.80359 4.464645,-4.58304 4.464653,-3.46811 4.464646,-2.49487 4.464645,-1.67343 4.46465,-0.99777 4.46464,-0.45313 4.46465,-0.0212 4.46464,0.31662 4.46465,0.57761 4.46465,0.77679 4.46465,0.92698 4.46464,1.03854 4.46465,1.11996 4.46464,1.17792 4.46465,1.21777 4.46464,1.24363 4.46465,1.25872 4.46464,1.26563 4.46465,1.26623 4.46466,1.26206 4.46464,1.25433 4.46465,1.24384 4.46465,1.23135 4.46464,1.21738 4.46465,1.20233 4.46464,1.18649 4.46465,1.17017 4.46464,1.15344 4.46465,1.1366 4.46464,1.1196 4.46465,1.10263 4.46464,1.08569 4.46465,1.06888 4.46466,1.05218 4.46465,1.03568 4.46464,1.01935 4.46465,1.0032 4.46463,0.98731 4.46466,0.97161 4.46463,0.95612 4.46466,0.94089 4.46466,0.92587 4.46463,0.91104 4.46466,0.89652 4.46463,0.88214 4.46466,0.86804 4.46463,0.85413 4.46466,0.84045 4.46463,0.827 4.46466,0.81375 4.46463,0.80069 4.46466,0.78787 4.46463,0.77524 4.46466,0.76284 4.46466,0.75058 4.46463,0.73856 4.46466,0.72675 4.46463,0.71505 4.46466,0.70362 4.46463,0.69232 4.46467,0.68124 4.46463,0.67032 4.46466,0.65958 4.46463,0.64898 4.46466,0.63858 4.46463,0.62836 4.46466,0.61829 4.46463,0.60837 4.46466,0.5986 4.46466,0.58902 4.46463,0.57956 4.46466,0.57028 4.46463,0.56116 4.46466,0.55212 4.46463,0.5433 4.46466,0.53458 4.46463,0.526 4.46463,0.51758 4.46466,0.50928 4.46466,0.50113 4.46466,0.49307 4.4646,0.4852 4.46466,0.47738 4.46466,0.46976 4.46467,0.46222 4.46466,0.4548 4.4646,0.44751 4.46466,0.44034 4.46466,0.43326 4.46466,0.42636 4.4646,0.4195 4.46466,0.41275 4.46466,0.40615 4.46466,0.39966 4.4646,0.39325 4.46466,0.38693 4.46466,0.38071"
           style="fill:none;stroke:#0072bd;stroke-width:2;stroke-linecap:butt;stroke-linejoin:round;stroke-miterlimit:10;stroke-dasharray:none;stroke-opacity:1"
           id="path326"
           inkscape:connector-curvature="0" /></g><g
         id="g328"
         transform="matrix(6,0,0,6,-284.3996,-188.99878)"><path
           d="M 74,371 V 32"
           style="fill:none;stroke:#262626;stroke-width:2;stroke-linecap:butt;stroke-linejoin:bevel;stroke-miterlimit:1;stroke-dasharray:2, 2;stroke-dashoffset:0;stroke-opacity:0.70196078"
           id="path330"
           inkscape:connector-curvature="0" /></g><g
         id="g332"><g
           id="g334"
           transform="matrix(-2.6e-7,-6,6,-2.6e-7,177.6004,33.001289)"><text
   transform="translate(-74,13)"
   style="font-size:13.33300018px;-inkscape-font-specification:CM Roman;writing-mode:lr-tb;font-family:CM Roman;fill-opacity:1;fill-rule:nonzero;stroke:none;font-variant:normal;font-weight:normal;fill:#262626"
   id="text338"><tspan
     x="0 7.4131479 11.119722 14.826296 17.786222 24.452723 31.86587 38.532372 41.492294 48.905445 56.318592"
     y="0"
     sodipodi:role="line"
     id="tspan336">attivazione</tspan></text>


</g></g></g></g><g
     id="g1997"
     transform="translate(-134.43014,233.29356)"><g
       word-spacing="normal"
       letter-spacing="normal"
       font-size-adjust="none"
       font-stretch="normal"
       font-weight="normal"
       font-variant="normal"
       font-style="normal"
       stroke-miterlimit="10.433"
       xml:space="preserve"
       transform="matrix(0.54857143,0,0,-0.54857143,-96,353)"
       id="content"
       style="font-style:normal;font-variant:normal;font-weight:normal;font-stretch:normal;letter-spacing:normal;word-spacing:normal;text-anchor:start;fill:none;fill-opacity:1;fill-rule:evenodd;stroke:#000000;stroke-linecap:butt;stroke-linejoin:miter;stroke-miterlimit:10.43299961;stroke-dasharray:none;stroke-dashoffset:0;stroke-opacity:1"><path
         id="path1992"
         d="m 470.16,424.78 h 8.38 c 0.65,0 2.43,0 2.43,1.7 0,1.19 -1.04,1.19 -1.98,1.19 h -13.95 c -1,0 -2.94,0 -5.13,-2.35 -1.66,-1.78 -3.05,-4.17 -3.05,-4.48 0,-0.05 0,-0.48 0.6,-0.48 0.4,0 0.5,0.18 0.79,0.59 2.46,3.83 5.29,3.83 6.33,3.83 h 4.14 l -4.89,-15.99 c -0.19,-0.59 -0.48,-1.64 -0.48,-1.84 0,-0.55 0.34,-1.34 1.44,-1.34 1.64,0 1.89,1.39 2.04,2.14 z"
         inkscape:connector-curvature="0"
         style="fill:#000000;stroke-width:0" /><path
         id="path1994"
         d="m 494.13,432.87 0.26,0.12 0.26,0.11 0.24,0.11 0.24,0.1 0.23,0.1 0.22,0.1 0.21,0.09 0.21,0.09 0.2,0.08 0.19,0.08 0.18,0.08 0.18,0.07 0.17,0.08 0.16,0.06 0.16,0.07 0.15,0.06 0.14,0.06 0.14,0.06 0.14,0.06 0.12,0.05 0.13,0.06 0.12,0.05 0.11,0.05 0.11,0.04 0.11,0.05 0.1,0.04 0.19,0.09 0.18,0.08 0.16,0.08 c 0.68,0.27 0.99,0.41 0.99,1.08 0,0.59 -0.45,1.11 -1.08,1.11 -0.25,0 -0.31,0 -0.73,-0.31 l -4.74,-3.17 0.52,5.15 c 0.08,0.63 0,1.5 -1.05,1.5 -0.42,0 -1.08,-0.28 -1.08,-1.04 0,-0.32 0.14,-1.36 0.17,-1.71 0.08,-0.59 0.32,-3.11 0.4,-3.9 l -4.71,3.17 c -0.36,0.2 -0.45,0.31 -0.76,0.31 -0.64,0 -1.1,-0.52 -1.1,-1.11 0,-0.7 0.42,-0.87 0.74,-1.01 l 5.26,-2.19 c -2.86,-1.27 -4.14,-1.75 -5.01,-2.17 -0.66,-0.29 -0.99,-0.43 -0.99,-1.08 0,-0.6 0.46,-1.11 1.1,-1.11 0.23,0 0.31,0 0.72,0.31 l 4.75,3.17 -0.57,-5.61 c 0,-0.76 0.66,-1.04 1.08,-1.04 0.42,0 1.08,0.28 1.08,1.04 0,0.32 -0.14,1.36 -0.17,1.71 -0.07,0.59 -0.32,3.09 -0.38,3.9 l 4.17,-2.79 c 0.91,-0.69 0.99,-0.69 1.3,-0.69 0.63,0 1.08,0.51 1.08,1.11 0,0.7 -0.42,0.87 -0.74,1.01 z"
         inkscape:connector-curvature="0"
         style="fill:#000000;stroke-width:0" /></g></g></svg>