<?xml version="1.0" encoding="UTF-8" standalone="no"?>
<!-- Created with Inkscape (http://www.inkscape.org/) -->

<svg
   xmlns:dc="http://purl.org/dc/elements/1.1/"
   xmlns:cc="http://creativecommons.org/ns#"
   xmlns:rdf="http://www.w3.org/1999/02/22-rdf-syntax-ns#"
   xmlns:svg="http://www.w3.org/2000/svg"
   xmlns="http://www.w3.org/2000/svg"
   xmlns:sodipodi="http://sodipodi.sourceforge.net/DTD/sodipodi-0.dtd"
   xmlns:inkscape="http://www.inkscape.org/namespaces/inkscape"
   sodipodi:docname="subplot2.svg"
   viewBox="0 0 470.66666 384"
   height="384"
   width="470.66666"
   xml:space="preserve"
   id="svg2186"
   version="1.1"
   inkscape:version="0.92.3 (2405546, 2018-03-11)"><sodipodi:namedview
     inkscape:current-layer="svg2186"
     inkscape:window-maximized="1"
     inkscape:window-y="0"
     inkscape:window-x="0"
     inkscape:cy="115.83626"
     inkscape:cx="276.96179"
     inkscape:zoom="1.7383042"
     showgrid="false"
     id="namedview2188"
     inkscape:window-height="837"
     inkscape:window-width="1600"
     inkscape:pageshadow="2"
     inkscape:pageopacity="0"
     guidetolerance="10"
     gridtolerance="10"
     objecttolerance="10"
     borderopacity="1"
     bordercolor="#666666"
     pagecolor="#ffffff" /><metadata
     id="metadata2192"><rdf:RDF><cc:Work
         rdf:about=""><dc:format>image/svg+xml</dc:format><dc:type
           rdf:resource="http://purl.org/dc/dcmitype/StillImage" /><dc:title></dc:title></cc:Work></rdf:RDF></metadata><defs
     id="defs2190" /><g
     id="g2194"
     inkscape:groupmode="layer"
     inkscape:label="subplot2"
     transform="matrix(1.3333333,0,0,-1.3333333,0,384)"><g
       id="g2196"
       transform="matrix(0.125,0,0,-0.125,0,288)"><g
         id="g2198"
         transform="matrix(6,0,0,6,-284.3996,-188.99878)"><path
           d="M 74,371 H 516 V 32 H 74 Z"
           style="fill:#ffffff;fill-opacity:1;fill-rule:nonzero;stroke:none"
           id="path2200"
           inkscape:connector-curvature="0" /></g><g
         id="g2202"
         transform="matrix(6,0,0,6,-284.3996,-188.99878)"><path
           d="M 74,371 V 32"
           style="fill:none;stroke:#262626;stroke-width:0.66666698;stroke-linecap:butt;stroke-linejoin:round;stroke-miterlimit:10;stroke-dasharray:none;stroke-opacity:0.14901961"
           id="path2204"
           inkscape:connector-curvature="0" /></g><g
         id="g2206"
         transform="matrix(6,0,0,6,-284.3996,-188.99878)"><path
           d="M 96.099998,371 V 32"
           style="fill:none;stroke:#262626;stroke-width:0.66666698;stroke-linecap:butt;stroke-linejoin:round;stroke-miterlimit:10;stroke-dasharray:none;stroke-opacity:0.14901961"
           id="path2208"
           inkscape:connector-curvature="0" /></g><g
         id="g2210"
         transform="matrix(6,0,0,6,-284.3996,-188.99878)"><path
           d="M 184.5,371 V 32"
           style="fill:none;stroke:#262626;stroke-width:0.66666698;stroke-linecap:butt;stroke-linejoin:round;stroke-miterlimit:10;stroke-dasharray:none;stroke-opacity:0.14901961"
           id="path2212"
           inkscape:connector-curvature="0" /></g><g
         id="g2214"
         transform="matrix(6,0,0,6,-284.3996,-188.99878)"><path
           d="M 295,371 V 32"
           style="fill:none;stroke:#262626;stroke-width:0.66666698;stroke-linecap:butt;stroke-linejoin:round;stroke-miterlimit:10;stroke-dasharray:none;stroke-opacity:0.14901961"
           id="path2216"
           inkscape:connector-curvature="0" /></g><g
         id="g2218"
         transform="matrix(6,0,0,6,-284.3996,-188.99878)"><path
           d="M 405.5,371 V 32"
           style="fill:none;stroke:#262626;stroke-width:0.66666698;stroke-linecap:butt;stroke-linejoin:round;stroke-miterlimit:10;stroke-dasharray:none;stroke-opacity:0.14901961"
           id="path2220"
           inkscape:connector-curvature="0" /></g><g
         id="g2222"
         transform="matrix(6,0,0,6,-284.3996,-188.99878)"><path
           d="M 516,371 V 32"
           style="fill:none;stroke:#262626;stroke-width:0.66666698;stroke-linecap:butt;stroke-linejoin:round;stroke-miterlimit:10;stroke-dasharray:none;stroke-opacity:0.14901961"
           id="path2224"
           inkscape:connector-curvature="0" /></g><g
         id="g2226"
         transform="matrix(6,0,0,6,-284.3996,-188.99878)"><path
           d="M 516,371 H 74"
           style="fill:none;stroke:#262626;stroke-width:0.66666698;stroke-linecap:butt;stroke-linejoin:round;stroke-miterlimit:10;stroke-dasharray:none;stroke-opacity:0.14901961"
           id="path2228"
           inkscape:connector-curvature="0" /></g><g
         id="g2230"
         transform="matrix(6,0,0,6,-284.3996,-188.99878)"><path
           d="M 516,303.20001 H 74"
           style="fill:none;stroke:#262626;stroke-width:0.66666698;stroke-linecap:butt;stroke-linejoin:round;stroke-miterlimit:10;stroke-dasharray:none;stroke-opacity:0.14901961"
           id="path2232"
           inkscape:connector-curvature="0" /></g><g
         id="g2234"
         transform="matrix(6,0,0,6,-284.3996,-188.99878)"><path
           d="M 516,235.39999 H 74"
           style="fill:none;stroke:#262626;stroke-width:0.66666698;stroke-linecap:butt;stroke-linejoin:round;stroke-miterlimit:10;stroke-dasharray:none;stroke-opacity:0.14901961"
           id="path2236"
           inkscape:connector-curvature="0" /></g><g
         id="g2238"
         transform="matrix(6,0,0,6,-284.3996,-188.99878)"><path
           d="M 516,167.60001 H 74"
           style="fill:none;stroke:#262626;stroke-width:0.66666698;stroke-linecap:butt;stroke-linejoin:round;stroke-miterlimit:10;stroke-dasharray:none;stroke-opacity:0.14901961"
           id="path2240"
           inkscape:connector-curvature="0" /></g><g
         id="g2242"
         transform="matrix(6,0,0,6,-284.3996,-188.99878)"><path
           d="M 516,99.800003 H 74"
           style="fill:none;stroke:#262626;stroke-width:0.66666698;stroke-linecap:butt;stroke-linejoin:round;stroke-miterlimit:10;stroke-dasharray:none;stroke-opacity:0.14901961"
           id="path2244"
           inkscape:connector-curvature="0" /></g><g
         id="g2246"
         transform="matrix(6,0,0,6,-284.3996,-188.99878)"><path
           d="M 516,32 H 74"
           style="fill:none;stroke:#262626;stroke-width:0.66666698;stroke-linecap:butt;stroke-linejoin:round;stroke-miterlimit:10;stroke-dasharray:none;stroke-opacity:0.14901961"
           id="path2248"
           inkscape:connector-curvature="0" /></g><g
         id="g2250"
         transform="matrix(6,0,0,6,-284.3996,-188.99878)"><path
           d="M 74,371 H 516"
           style="fill:none;stroke:#262626;stroke-width:0.66666698;stroke-linecap:square;stroke-linejoin:round;stroke-miterlimit:10;stroke-dasharray:none;stroke-opacity:1"
           id="path2252"
           inkscape:connector-curvature="0" /></g><g
         id="g2254"
         transform="matrix(6,0,0,6,-284.3996,-188.99878)"><path
           d="M 74,32 H 516"
           style="fill:none;stroke:#262626;stroke-width:0.66666698;stroke-linecap:square;stroke-linejoin:round;stroke-miterlimit:10;stroke-dasharray:none;stroke-opacity:1"
           id="path2256"
           inkscape:connector-curvature="0" /></g><g
         id="g2258"
         transform="matrix(6,0,0,6,-284.3996,-188.99878)"><path
           d="m 74,371 v -4.42001"
           style="fill:none;stroke:#262626;stroke-width:0.66666698;stroke-linecap:square;stroke-linejoin:round;stroke-miterlimit:10;stroke-dasharray:none;stroke-opacity:1"
           id="path2260"
           inkscape:connector-curvature="0" /></g><g
         id="g2262"
         transform="matrix(6,0,0,6,-284.3996,-188.99878)"><path
           d="m 96.099998,371 v -4.42001"
           style="fill:none;stroke:#262626;stroke-width:0.66666698;stroke-linecap:square;stroke-linejoin:round;stroke-miterlimit:10;stroke-dasharray:none;stroke-opacity:1"
           id="path2264"
           inkscape:connector-curvature="0" /></g><g
         id="g2266"
         transform="matrix(6,0,0,6,-284.3996,-188.99878)"><path
           d="m 184.5,371 v -4.42001"
           style="fill:none;stroke:#262626;stroke-width:0.66666698;stroke-linecap:square;stroke-linejoin:round;stroke-miterlimit:10;stroke-dasharray:none;stroke-opacity:1"
           id="path2268"
           inkscape:connector-curvature="0" /></g><g
         id="g2270"
         transform="matrix(6,0,0,6,-284.3996,-188.99878)"><path
           d="m 295,371 v -4.42001"
           style="fill:none;stroke:#262626;stroke-width:0.66666698;stroke-linecap:square;stroke-linejoin:round;stroke-miterlimit:10;stroke-dasharray:none;stroke-opacity:1"
           id="path2272"
           inkscape:connector-curvature="0" /></g><g
         id="g2274"
         transform="matrix(6,0,0,6,-284.3996,-188.99878)"><path
           d="m 405.5,371 v -4.42001"
           style="fill:none;stroke:#262626;stroke-width:0.66666698;stroke-linecap:square;stroke-linejoin:round;stroke-miterlimit:10;stroke-dasharray:none;stroke-opacity:1"
           id="path2276"
           inkscape:connector-curvature="0" /></g><g
         id="g2278"
         transform="matrix(6,0,0,6,-284.3996,-188.99878)"><path
           d="m 516,371 v -4.42001"
           style="fill:none;stroke:#262626;stroke-width:0.66666698;stroke-linecap:square;stroke-linejoin:round;stroke-miterlimit:10;stroke-dasharray:none;stroke-opacity:1"
           id="path2280"
           inkscape:connector-curvature="0" /></g><g
         id="g2282"
         transform="matrix(6,0,0,6,-284.3996,-188.99878)"><path
           d="m 74,32 v 4.419994"
           style="fill:none;stroke:#262626;stroke-width:0.66666698;stroke-linecap:square;stroke-linejoin:round;stroke-miterlimit:10;stroke-dasharray:none;stroke-opacity:1"
           id="path2284"
           inkscape:connector-curvature="0" /></g><g
         id="g2286"
         transform="matrix(6,0,0,6,-284.3996,-188.99878)"><path
           d="m 96.099998,32 v 4.419994"
           style="fill:none;stroke:#262626;stroke-width:0.66666698;stroke-linecap:square;stroke-linejoin:round;stroke-miterlimit:10;stroke-dasharray:none;stroke-opacity:1"
           id="path2288"
           inkscape:connector-curvature="0" /></g><g
         id="g2290"
         transform="matrix(6,0,0,6,-284.3996,-188.99878)"><path
           d="m 184.5,32 v 4.419994"
           style="fill:none;stroke:#262626;stroke-width:0.66666698;stroke-linecap:square;stroke-linejoin:round;stroke-miterlimit:10;stroke-dasharray:none;stroke-opacity:1"
           id="path2292"
           inkscape:connector-curvature="0" /></g><g
         id="g2294"
         transform="matrix(6,0,0,6,-284.3996,-188.99878)"><path
           d="m 295,32 v 4.419994"
           style="fill:none;stroke:#262626;stroke-width:0.66666698;stroke-linecap:square;stroke-linejoin:round;stroke-miterlimit:10;stroke-dasharray:none;stroke-opacity:1"
           id="path2296"
           inkscape:connector-curvature="0" /></g><g
         id="g2298"
         transform="matrix(6,0,0,6,-284.3996,-188.99878)"><path
           d="m 405.5,32 v 4.419994"
           style="fill:none;stroke:#262626;stroke-width:0.66666698;stroke-linecap:square;stroke-linejoin:round;stroke-miterlimit:10;stroke-dasharray:none;stroke-opacity:1"
           id="path2300"
           inkscape:connector-curvature="0" /></g><g
         id="g2302"
         transform="matrix(6,0,0,6,-284.3996,-188.99878)"><path
           d="m 516,32 v 4.419994"
           style="fill:none;stroke:#262626;stroke-width:0.66666698;stroke-linecap:square;stroke-linejoin:round;stroke-miterlimit:10;stroke-dasharray:none;stroke-opacity:1"
           id="path2304"
           inkscape:connector-curvature="0" /></g><g
         id="g2306"><g
           id="g2308"
           transform="matrix(6,0,0,6,292.20039,2073.0012)"><text
   transform="translate(-7.919566,13.99994)"
   style="font-variant:normal;font-weight:normal;font-size:16.66699982px;font-family:'CM Roman';-inkscape-font-specification:'CM Roman';writing-mode:lr-tb;fill:#262626;fill-opacity:1;fill-rule:nonzero;stroke:none"
   id="text2312"><tspan
     x="0"
     y="0"
     id="tspan2310" /></text>


</g></g><g
         id="g2314"><g
           id="g2316"
           transform="matrix(6,0,0,6,292.20039,2073.0012)"><text
   transform="translate(1.252899,7.951737)"
   style="font-variant:normal;font-weight:normal;font-size:11.66699982px;font-family:'CM Roman';-inkscape-font-specification:'CM Roman';writing-mode:lr-tb;fill:#262626;fill-opacity:1;fill-rule:nonzero;stroke:none"
   id="text2320"><tspan
     x="0"
     y="0"
     id="tspan2318" /></text>


</g></g><g
         id="g2322"><g
           id="g2324"
           transform="matrix(6,0,0,6,1485.6017,2205.0012)"><text
   transform="translate(-3.564812,15.399933)"
   style="font-size:18.33300018px;-inkscape-font-specification:CM Roman;writing-mode:lr-tb;font-family:CM Roman;fill-opacity:1;fill-rule:nonzero;stroke:none;font-variant:normal;font-weight:normal;fill:#262626"
   id="text2328"><tspan
     x="0"
     y="0"
     id="tspan2326">t</tspan></text>


</g></g><g
         id="g2330"
         transform="matrix(6,0,0,6,-284.3996,-188.99878)"><path
           d="M 74,371 V 32"
           style="fill:none;stroke:#262626;stroke-width:0.66666698;stroke-linecap:square;stroke-linejoin:round;stroke-miterlimit:10;stroke-dasharray:none;stroke-opacity:1"
           id="path2332"
           inkscape:connector-curvature="0" /></g><g
         id="g2334"
         transform="matrix(6,0,0,6,-284.3996,-188.99878)"><path
           d="M 516,371 V 32"
           style="fill:none;stroke:#262626;stroke-width:0.66666698;stroke-linecap:square;stroke-linejoin:round;stroke-miterlimit:10;stroke-dasharray:none;stroke-opacity:1"
           id="path2336"
           inkscape:connector-curvature="0" /></g><g
         id="g2338"
         transform="matrix(6,0,0,6,-284.3996,-188.99878)"><path
           d="m 74,371 h 4.419998"
           style="fill:none;stroke:#262626;stroke-width:0.66666698;stroke-linecap:square;stroke-linejoin:round;stroke-miterlimit:10;stroke-dasharray:none;stroke-opacity:1"
           id="path2340"
           inkscape:connector-curvature="0" /></g><g
         id="g2342"
         transform="matrix(6,0,0,6,-284.3996,-188.99878)"><path
           d="m 74,303.20001 h 4.419998"
           style="fill:none;stroke:#262626;stroke-width:0.66666698;stroke-linecap:square;stroke-linejoin:round;stroke-miterlimit:10;stroke-dasharray:none;stroke-opacity:1"
           id="path2344"
           inkscape:connector-curvature="0" /></g><g
         id="g2346"
         transform="matrix(6,0,0,6,-284.3996,-188.99878)"><path
           d="m 74,235.39999 h 4.419998"
           style="fill:none;stroke:#262626;stroke-width:0.66666698;stroke-linecap:square;stroke-linejoin:round;stroke-miterlimit:10;stroke-dasharray:none;stroke-opacity:1"
           id="path2348"
           inkscape:connector-curvature="0" /></g><g
         id="g2350"
         transform="matrix(6,0,0,6,-284.3996,-188.99878)"><path
           d="m 74,167.60001 h 4.419998"
           style="fill:none;stroke:#262626;stroke-width:0.66666698;stroke-linecap:square;stroke-linejoin:round;stroke-miterlimit:10;stroke-dasharray:none;stroke-opacity:1"
           id="path2352"
           inkscape:connector-curvature="0" /></g><g
         id="g2354"
         transform="matrix(6,0,0,6,-284.3996,-188.99878)"><path
           d="m 74,99.800003 h 4.419998"
           style="fill:none;stroke:#262626;stroke-width:0.66666698;stroke-linecap:square;stroke-linejoin:round;stroke-miterlimit:10;stroke-dasharray:none;stroke-opacity:1"
           id="path2356"
           inkscape:connector-curvature="0" /></g><g
         id="g2358"
         transform="matrix(6,0,0,6,-284.3996,-188.99878)"><path
           d="m 74,32 h 4.419998"
           style="fill:none;stroke:#262626;stroke-width:0.66666698;stroke-linecap:square;stroke-linejoin:round;stroke-miterlimit:10;stroke-dasharray:none;stroke-opacity:1"
           id="path2360"
           inkscape:connector-curvature="0" /></g><g
         id="g2362"
         transform="matrix(6,0,0,6,-284.3996,-188.99878)"><path
           d="m 516,371 h -4.42001"
           style="fill:none;stroke:#262626;stroke-width:0.66666698;stroke-linecap:square;stroke-linejoin:round;stroke-miterlimit:10;stroke-dasharray:none;stroke-opacity:1"
           id="path2364"
           inkscape:connector-curvature="0" /></g><g
         id="g2366"
         transform="matrix(6,0,0,6,-284.3996,-188.99878)"><path
           d="m 516,303.20001 h -4.42001"
           style="fill:none;stroke:#262626;stroke-width:0.66666698;stroke-linecap:square;stroke-linejoin:round;stroke-miterlimit:10;stroke-dasharray:none;stroke-opacity:1"
           id="path2368"
           inkscape:connector-curvature="0" /></g><g
         id="g2370"
         transform="matrix(6,0,0,6,-284.3996,-188.99878)"><path
           d="m 516,235.39999 h -4.42001"
           style="fill:none;stroke:#262626;stroke-width:0.66666698;stroke-linecap:square;stroke-linejoin:round;stroke-miterlimit:10;stroke-dasharray:none;stroke-opacity:1"
           id="path2372"
           inkscape:connector-curvature="0" /></g><g
         id="g2374"
         transform="matrix(6,0,0,6,-284.3996,-188.99878)"><path
           d="m 516,167.60001 h -4.42001"
           style="fill:none;stroke:#262626;stroke-width:0.66666698;stroke-linecap:square;stroke-linejoin:round;stroke-miterlimit:10;stroke-dasharray:none;stroke-opacity:1"
           id="path2376"
           inkscape:connector-curvature="0" /></g><g
         id="g2378"
         transform="matrix(6,0,0,6,-284.3996,-188.99878)"><path
           d="m 516,99.800003 h -4.42001"
           style="fill:none;stroke:#262626;stroke-width:0.66666698;stroke-linecap:square;stroke-linejoin:round;stroke-miterlimit:10;stroke-dasharray:none;stroke-opacity:1"
           id="path2380"
           inkscape:connector-curvature="0" /></g><g
         id="g2382"
         transform="matrix(6,0,0,6,-284.3996,-188.99878)"><path
           d="m 516,32 h -4.42001"
           style="fill:none;stroke:#262626;stroke-width:0.66666698;stroke-linecap:square;stroke-linejoin:round;stroke-miterlimit:10;stroke-dasharray:none;stroke-opacity:1"
           id="path2384"
           inkscape:connector-curvature="0" /></g><g
         id="g2386"><g
           id="g2388"
           transform="matrix(-2.6e-7,-6,6,-2.6e-7,123.6004,1020.0003)"><text
   transform="translate(-42.013985,-6.600067)"
   style="font-size:18.33300018px;-inkscape-font-specification:CM Roman;writing-mode:lr-tb;font-family:CM Roman;fill-opacity:1;fill-rule:nonzero;stroke:none;font-variant:normal;font-weight:normal;fill:#262626"
   id="text2392"><tspan
     x="0"
     y="0"
     id="tspan2390">I</tspan></text>


</g></g><g
         id="g2394"><g
           id="g2396"
           transform="matrix(-2.6e-7,-6,6,-2.6e-7,123.6004,1020.0003)"><text
   transform="translate(-35.393608,-6.600067)"
   style="font-size:18.33300018px;-inkscape-font-specification:CM Roman;writing-mode:lr-tb;font-family:CM Roman;fill-opacity:1;fill-rule:nonzero;stroke:none;font-variant:normal;font-weight:normal;fill:#262626"
   id="text2400"><tspan
     x="0"
     y="0"
     id="tspan2398">n</tspan></text>


</g></g><g
         id="g2402"><g
           id="g2404"
           transform="matrix(-2.6e-7,-6,6,-2.6e-7,123.6004,1020.0003)"><text
   transform="translate(-25.208389,-6.600067)"
   style="font-size:18.33300018px;-inkscape-font-specification:CM Roman;writing-mode:lr-tb;font-family:CM Roman;fill-opacity:1;fill-rule:nonzero;stroke:none;font-variant:normal;font-weight:normal;fill:#262626"
   id="text2408"><tspan
     x="0"
     y="0"
     id="tspan2406">f</tspan></text>


</g></g><g
         id="g2410"><g
           id="g2412"
           transform="matrix(-2.6e-7,-6,6,-2.6e-7,123.6004,1020.0003)"><text
   transform="translate(-19.606506,-6.600067)"
   style="font-size:18.33300018px;-inkscape-font-specification:CM Roman;writing-mode:lr-tb;font-family:CM Roman;fill-opacity:1;fill-rule:nonzero;stroke:none;font-variant:normal;font-weight:normal;fill:#262626"
   id="text2416"><tspan
     x="0"
     y="0"
     id="tspan2414">e</tspan></text>


</g></g><g
         id="g2418"><g
           id="g2420"
           transform="matrix(-2.6e-7,-6,6,-2.6e-7,123.6004,1020.0003)"><text
   transform="translate(-11.458362,-6.600067)"
   style="font-size:18.33300018px;-inkscape-font-specification:CM Roman;writing-mode:lr-tb;font-family:CM Roman;fill-opacity:1;fill-rule:nonzero;stroke:none;font-variant:normal;font-weight:normal;fill:#262626"
   id="text2424"><tspan
     x="0"
     y="0"
     id="tspan2422">t</tspan></text>


</g></g><g
         id="g2426"><g
           id="g2428"
           transform="matrix(-2.6e-7,-6,6,-2.6e-7,123.6004,1020.0003)"><text
   transform="translate(-4.32871,-6.600067)"
   style="font-size:18.33300018px;-inkscape-font-specification:CM Roman;writing-mode:lr-tb;font-family:CM Roman;fill-opacity:1;fill-rule:nonzero;stroke:none;font-variant:normal;font-weight:normal;fill:#262626"
   id="text2432"><tspan
     x="0"
     y="0"
     id="tspan2430">t</tspan></text>


</g></g><g
         id="g2434"><g
           id="g2436"
           transform="matrix(-2.6e-7,-6,6,-2.6e-7,123.6004,1020.0003)"><text
   transform="translate(2.800941,-6.600067)"
   style="font-size:18.33300018px;-inkscape-font-specification:CM Roman;writing-mode:lr-tb;font-family:CM Roman;fill-opacity:1;fill-rule:nonzero;stroke:none;font-variant:normal;font-weight:normal;fill:#262626"
   id="text2440"><tspan
     x="0"
     y="0"
     id="tspan2438">i</tspan></text>


</g></g><g
         id="g2442"><g
           id="g2444"
           transform="matrix(-2.6e-7,-6,6,-2.6e-7,123.6004,1020.0003)"><text
   transform="translate(14.004652,-6.600067)"
   style="font-size:18.33300018px;-inkscape-font-specification:CM Roman;writing-mode:lr-tb;font-family:CM Roman;fill-opacity:1;fill-rule:nonzero;stroke:none;font-variant:normal;font-weight:normal;fill:#262626"
   id="text2448"><tspan
     x="0"
     y="0"
     id="tspan2446">I</tspan></text>


</g></g><g
         id="g2450"><g
           id="g2452"
           transform="matrix(-2.6e-7,-6,6,-2.6e-7,123.6004,1020.0003)"><text
   transform="translate(20.625029,-6.600067)"
   style="font-size:18.33300018px;-inkscape-font-specification:CM Roman;writing-mode:lr-tb;font-family:CM Roman;fill-opacity:1;fill-rule:nonzero;stroke:none;font-variant:normal;font-weight:normal;fill:#262626"
   id="text2456"><tspan
     x="0"
     y="0"
     id="tspan2454">(</tspan></text>


</g></g><g
         id="g2458"><g
           id="g2460"
           transform="matrix(-2.6e-7,-6,6,-2.6e-7,123.6004,1020.0003)"><text
   transform="translate(27.754681,-6.600067)"
   style="font-size:18.33300018px;-inkscape-font-specification:CM Roman;writing-mode:lr-tb;font-family:CM Roman;fill-opacity:1;fill-rule:nonzero;stroke:none;font-variant:normal;font-weight:normal;fill:#262626"
   id="text2464"><tspan
     x="0"
     y="0"
     id="tspan2462">t</tspan></text>


</g></g><g
         id="g2466"><g
           id="g2468"
           transform="matrix(-2.6e-7,-6,6,-2.6e-7,123.6004,1020.0003)"><text
   transform="translate(34.884331,-6.600067)"
   style="font-size:18.33300018px;-inkscape-font-specification:CM Roman;writing-mode:lr-tb;font-family:CM Roman;fill-opacity:1;fill-rule:nonzero;stroke:none;font-variant:normal;font-weight:normal;fill:#262626"
   id="text2472"><tspan
     x="0"
     y="0"
     id="tspan2470">)</tspan></text>


</g></g><g
         id="g2474"
         transform="matrix(6,0,0,6,-284.3996,-188.99878)"><path
           d="m 74,303.20001 4.464645,-7.95831 4.464646,-8.51135 4.464645,-9.01599 4.464653,-9.45276 4.464646,-9.80286 4.464645,-8.5108 4.46465,-6.53015 4.46464,-4.76503 4.46465,-3.2649 4.46464,-2.03369 4.46465,-1.0496 4.46465,-0.27898 4.46465,0.31451 4.46464,0.76516 4.46465,1.10287 4.46464,1.35254 4.46465,1.53436 4.46464,1.66428 4.46465,1.75468 4.46464,1.8152 4.46465,1.85318 4.46466,1.87422 4.46464,1.88257 4.46465,1.88146 4.46465,1.87329 4.46464,1.85991 4.46465,1.84276 4.46464,1.82278 4.46465,1.80084 4.46464,1.7775 4.46465,1.7532 4.46464,1.72831 4.46465,1.703 4.46464,1.67758 4.46465,1.6521 4.46466,1.62671 4.46465,1.60144 4.46464,1.57638 4.46465,1.55164 4.46463,1.5271 4.46466,1.5029 4.46463,1.47903 4.46466,1.45551 4.46466,1.43228 4.46463,1.40939 4.46466,1.38691 4.46463,1.36474 4.46466,1.34287 4.46463,1.32141 4.46466,1.30023 4.46463,1.27942 4.46466,1.25891 4.46463,1.23877 4.46466,1.21887 4.46463,1.19937 4.46466,1.18015 4.46466,1.16122 4.46463,1.14261 4.46466,1.1243 4.46463,1.10629 4.46466,1.08853 4.46463,1.07111 4.46467,1.05392 4.46463,1.03702 4.46466,1.02042 4.46463,1.00403 4.46466,0.98794 4.46463,0.97211 4.46466,0.95654 4.46463,0.94119 4.46466,0.92609 4.46466,0.91126 4.46463,0.89663 4.46466,0.8823 4.46463,0.8681 4.46466,0.85422 4.46463,0.84051 4.46466,0.82706 4.46463,0.81375 4.46463,0.80075 4.46466,0.7879 4.46466,0.77527 4.46466,0.76282 4.4646,0.75061 4.46466,0.73859 4.46466,0.72674 4.46467,0.71506 4.46466,0.70364 4.4646,0.69232 4.46466,0.68125 4.46466,0.67032 4.46466,0.65957 4.4646,0.64899 4.46466,0.63861 4.46466,0.62833 4.46466,0.61828 4.4646,0.60837 4.46466,0.59863 4.46466,0.58902"
           style="fill:none;stroke:#0072bd;stroke-width:2;stroke-linecap:butt;stroke-linejoin:round;stroke-miterlimit:10;stroke-dasharray:none;stroke-opacity:1"
           id="path2476"
           inkscape:connector-curvature="0" /></g><g
         id="g2478"
         transform="matrix(6,0,0,6,-284.3996,-188.99878)"><path
           d="M 96.099998,371 V 32"
           style="fill:none;stroke:#262626;stroke-width:2;stroke-linecap:butt;stroke-linejoin:bevel;stroke-miterlimit:1;stroke-dasharray:2, 2;stroke-dashoffset:0;stroke-opacity:0.70196078"
           id="path2480"
           inkscape:connector-curvature="0" /></g><g
         id="g2482"><g
           id="g2484"
           transform="matrix(-2.6e-7,-6,6,-2.6e-7,310.20044,33.001289)"><text
   transform="translate(-74,13)"
   style="font-size:13.33300018px;-inkscape-font-specification:CM Roman;writing-mode:lr-tb;font-family:CM Roman;fill-opacity:1;fill-rule:nonzero;stroke:none;font-variant:normal;font-weight:normal;fill:#262626"
   id="text2488"><tspan
     x="0 7.4131479 11.119722 14.826296 17.786222 24.452723 31.86587 38.532372 41.492294 48.905445 56.318592"
     y="0"
     sodipodi:role="line"
     id="tspan2486">attivazione</tspan></text>


</g></g></g></g><g
     id="g3411"
     transform="translate(-114.47939,231.25987)"><g
       word-spacing="normal"
       letter-spacing="normal"
       font-size-adjust="none"
       font-stretch="normal"
       font-weight="normal"
       font-variant="normal"
       font-style="normal"
       stroke-miterlimit="10.433"
       xml:space="preserve"
       transform="matrix(0.54857143,0,0,-0.54857143,-96,353)"
       id="content"
       style="font-style:normal;font-variant:normal;font-weight:normal;font-stretch:normal;letter-spacing:normal;word-spacing:normal;text-anchor:start;fill:none;fill-opacity:1;fill-rule:evenodd;stroke:#000000;stroke-linecap:butt;stroke-linejoin:miter;stroke-miterlimit:10.43299961;stroke-dasharray:none;stroke-dashoffset:0;stroke-opacity:1"><path
         id="path3406"
         d="m 470.16,424.78 h 8.38 c 0.65,0 2.43,0 2.43,1.7 0,1.19 -1.04,1.19 -1.98,1.19 h -13.95 c -1,0 -2.94,0 -5.13,-2.35 -1.66,-1.78 -3.05,-4.17 -3.05,-4.48 0,-0.05 0,-0.48 0.6,-0.48 0.4,0 0.5,0.18 0.79,0.59 2.46,3.83 5.29,3.83 6.33,3.83 h 4.14 l -4.89,-15.99 c -0.19,-0.59 -0.48,-1.64 -0.48,-1.84 0,-0.55 0.34,-1.34 1.44,-1.34 1.64,0 1.89,1.39 2.04,2.14 z"
         inkscape:connector-curvature="0"
         style="fill:#000000;stroke-width:0" /><path
         id="path3408"
         d="m 494.13,432.87 0.26,0.12 0.26,0.11 0.24,0.11 0.24,0.1 0.23,0.1 0.22,0.1 0.21,0.09 0.21,0.09 0.2,0.08 0.19,0.08 0.18,0.08 0.18,0.07 0.17,0.08 0.16,0.06 0.16,0.07 0.15,0.06 0.14,0.06 0.14,0.06 0.14,0.06 0.12,0.05 0.13,0.06 0.12,0.05 0.11,0.05 0.11,0.04 0.11,0.05 0.1,0.04 0.19,0.09 0.18,0.08 0.16,0.08 c 0.68,0.27 0.99,0.41 0.99,1.08 0,0.59 -0.45,1.11 -1.08,1.11 -0.25,0 -0.31,0 -0.73,-0.31 l -4.74,-3.17 0.52,5.15 c 0.08,0.63 0,1.5 -1.05,1.5 -0.42,0 -1.08,-0.28 -1.08,-1.04 0,-0.32 0.14,-1.36 0.17,-1.71 0.08,-0.59 0.32,-3.11 0.4,-3.9 l -4.71,3.17 c -0.36,0.2 -0.45,0.31 -0.76,0.31 -0.64,0 -1.1,-0.52 -1.1,-1.11 0,-0.7 0.42,-0.87 0.74,-1.01 l 5.26,-2.19 c -2.86,-1.27 -4.14,-1.75 -5.01,-2.17 -0.66,-0.29 -0.99,-0.43 -0.99,-1.08 0,-0.6 0.46,-1.11 1.1,-1.11 0.23,0 0.31,0 0.72,0.31 l 4.75,3.17 -0.57,-5.61 c 0,-0.76 0.66,-1.04 1.08,-1.04 0.42,0 1.08,0.28 1.08,1.04 0,0.32 -0.14,1.36 -0.17,1.71 -0.07,0.59 -0.32,3.09 -0.38,3.9 l 4.17,-2.79 c 0.91,-0.69 0.99,-0.69 1.3,-0.69 0.63,0 1.08,0.51 1.08,1.11 0,0.7 -0.42,0.87 -0.74,1.01 z"
         inkscape:connector-curvature="0"
         style="fill:#000000;stroke-width:0" /></g></g></svg>